<svg xmlns="http://www.w3.org/2000/svg" xml:space="preserve" viewBox="0 0 342.7 69.8"><path d="M186 39c1 1 1 3-1 3l1-2h-1l-1 3v1-1l-1 3h-1c0-3 2-5 3-7h1zm2 3zm4-41 4 2V2h11l-1 1h2V2c3 2 3 0 4 3 3 1 4 5 3 7l-5 1-10-1-2 4-2 2c2 3 6 6 10 7l5 5 3-4 2-2h4c1 3 8 2 2 6h-1l-1 1c-1-1-4 0-4 2l-2 1c1 1 3-1 3 1h-3v1l-3 1c2-2 0-2 0 0-2 0-4 7-3 8 5 0 7 5 11 6l1 2 2 1 4 5c2 1 1 8-2 5l-1 2c-5-3-10-9-13-14l-2-4c-1-1-2 2-3 1 0-3-2 1 1 1v1h-1l-1 1 1 2v1l-4 1-1 3-2 2-1 1c-1-3-3 0-3-1-2-1-1 1-2 1l-3-1 1-1v-2c5 0 8-15 8-19v-3c2-1 0-5-1-6l-2-4-1-5-6 9v1c0-1-2-4-2-2h-1l1-3 5-7c1-2 5-6 4-8h-1l-1-1h-3l-2-1V4c1 0 3 0 2-1l2-2zM51 4l2 1-1 2v3l1-2v2c-1 4-2 7 4 6 8 3 27 10 23 20 1 3 0 5-2 8 0 2-1 2-3 2v1c-1-2-2 0-3 0l-4 6c-2-1-3 1-4 2-2 1-3 3-2-1l-2 1c-1 0-2 2-3 1l1-1c-2 1-4 0-3 2l-1 1s-1-2-2-1v2h-4l-2-1-1-2-2-7c2 0 5 9 5 2l1 1c2-3-1-5-2-8l-1-4 3 5c1-1-1-4-2-5 1-1 2 2 3 2l-1-5 2 2v-1h1c4 11 4 5 9 0l1-2c-2-1-1-6-3-6l-4-3c-2 1-5 2-6 4-1 4-6 4-9 6h-3v3l5 15c3 0 2 3 2 4l1 3-2 1-1 2c-1 1-3 0-5-1l-4-2v-2c0-1 1-2-1-1v-1l-2-5-1-3c0-2 0-4-2-3 0-1 1-2-1-3v-1l-5-1c-3 1-2-2-5 0-3-3-10-4-9-9H5c0-3 3-4 6-6 1 1 4-1 2-1v-1h2c0 2 2 1 1-1h2l1-1 1 1v-1c3-3 2-3 2-7v-3l1-2 6 7h2v1l1-2 4-1v1h1l-1-1 2-1v1h-1c2 1 2-1 3-1l2-1 1-2v-2h-1 1V8l1 2V8l1-2c2-2 4-2 5-2h1zm151 2v1-1zm-54 44c0 3-3 5-5 6h-3l-4 1h-9l-3-1c-1 0-2-1-2-3-2-1-2-4-2-7 3-5 4-11 9-16l-2-6-1-5-1-3 1-4c1-2-2-3-1-6 3 1 5 6 8 7l5 10c4-1 7-3 11-3l2 2c2-1 0 1 1 2l-5 5-2-1c-4-1-7-1-5 4 0 1 1 4-2 3l-2-2-2 1c-3 1-6 3-7 6l-1-1c0 3-4 5 0 6l6 1 1 1c1-2 3 0 4 0l4-1h2c1 0 3 0 3-2h-2l2-1h2c1-1 1 1 2 1 1 3-2 2-1 4h1m61-36c-1 0-1 0 0 0-1 0-1 0 0 0l-1-1 1 1zm-7 0 1 1-1-1c0 1 0 1 0 0 0 1 0 1 0 0zM35 18h-2c0-1 2-2 2 0zm-4 0h1-1zm6 1h-2 2zm158 0 1 1h-1v-1zm0 2-1-1 1 1zM18 27c1-3 7-2 0 0zm181 4-1-1 1 1zM63 33v2-2zm77-1h-1 1zm79 0-1 1h-1l1-1h1zM63 40l-1 1h1v-1zm-12 2 1 2c1-1 0-2-1-2zm56-3 1 2-1-2zm1 2v1-1zm40 3v-1 1zm-40 0 1 1v-1h-1zm42 0zM28 49v-1 1zm21 1zm83-4h1-1zm79 1-1-1 1 1zm-13-1v3-3zm1 1v1h1l-1-1zM63 53l1-1c1 1 0 3-1 1zm-3 0v1h1v-1h-1zm137-4v2-2zm-89 2v1h1l-1-1zm115 6v-2 2zm-24 0h-1l1-2v2zm2 0c1 0 0 0 0 0zm-3 2v-2 2zM103 1v2c-1-2-2-3-5-1l-2 1c2 0 0 2 0 0-2 0 1 5 0 6l-2 1h-1l-2 2 1 1h-1c-2-1-1 3 0 5l3-1c0-2 2-1 3-1 3 2 3 5 3 8l-4-1v1c-3 0-5 2-7 1v1c-1 1-3 2 0 2v3l4 2 4 2 2 2 3 1c1 2 1 6-2 7-3-4-8-7-14-6-2 1-1 2-2 3 0 5 2 9 4 12 0 2 1 4 3 5 1 1 4 3 5 1 0-2 2-2 3-2 0 1 0 0 0 0h1c1-2-1 0-2-1h1c0-1 3-2 3 0h1l5 6c1-1-3-8 0-9l1-3 2 1c1-2 4-5 2-7l-1 2c0 1 0 2-1 1v-3c-2 1-2-6-2-7 1-2 5-2 5-4 2-2 1-2 1-4v-1h-1c0-1-2-1-1-2l-1-1c-2-1-5-3-3-6 2 0 4-1 5-4 2-3-4-6-6-7-1-2-2-8-5-9v1zM91 12v1-1zm14 11-1-2 1 2zm2 1v-2 2zM88 43l1 1-1-1zm-1 0v1-1zm1 1v1-1zm6 5-3 2c-1 0-1-4-3-4-1-4 6 1 6 2zm2 0-1 1v1c1-1 2-1 1-2zm-3 1v1-1zm-2 2v-1 1zm6 1c-1 1-1 0 0 0v-1 1zm-3 0v1-1zm7 1-2 1h-2l1 1h-2l-1 1-1-1-1 1c-1-2 6-3 7-4l1 1zm-2 2-1-1 1 1zm-2 1v1-1zm9 2-1-1 1 1zm60-57c-1 2 2 3 3 5l2 6v7c0 2 2 3 1 4l-1-1-1-3c-2-1-2-5-3-7v2l-1-4-3-2 1 2-3 3 1 2c-2 0-2 3-1 4v1h-1 1l-1 5-1 8-1 6v14l1 1h-1v5l1 2h1v-1h1v1l2-2h-1v-2h1l1 4h2v-1h1l-1-9V42l1-1v3h1c0 2 3 0 3 3v-1c1-2 2 0 1 2 2 0 1 3 0 2l1 1v6h1l-1 1v1h1l-1 2c2-1 1 2 1 2v4c3-2 1 1 2 2 2 1 2-1 2-2l1 3h1l1-1-1-1c0-1 1-1 1 1h1v-3c0-1-3-1-1-2V50h5c-1-1 0-1 1-1 0 3-2 3-2 5-1-1-1 2-1 3 1 0 1-2 3-2l-1 1c1 3 2-3 4-1l1-2v-1l1-1 1-1c-1-2 2-3 1-5s-3-3-5-2c-2-1 0-3 2-3l-1-2-3 1-1-3-3 1c1 3-1 5-3 7 0-8-2-16 0-23v-9c-1-4-5-6-8-9l-6-1zm6 17v-1 1zm-1 19 1 1h-1c0-2-2-2-3-3 1-7 7-5 3 2zm-8 0v-1 1zm0 1c-3 4 0 11 0 2v-2zm-1 7c-1 1-1 2 1 2l-1-2zm1 3-1 2v3l-1-5h2zm9 0c1 0 1 0 0 0zm-10 7h1-1zm4 1v1-1zm-1 3-1-1 1-1v2zm-5-1h-1l1 1v-1z"/></svg>