<svg xmlns="http://www.w3.org/2000/svg" xml:space="preserve" viewBox="0 0 342.7 69.8"><path d="M40 6v4c4 0 10 7 4 9l-1 1-1 2 2 2h8v-1h1c5 0 12 5 4 8-4 3-10-2-17 2v9l8-3c6-1 17 7 10 12-3 0-6-2-7-4l-8 4 6-5c0-3-3-1-4-3l-5 1c-1 6 4 15-1 20-1 3-3 4-6 4l-8-9c-3 1-5-4-5-6-3 3 0 8-6 8-3-2-6-6-5-9l-1-1 1-1-1 1 1-1h1v-1c8-1 0 3 12-2 1-3 2-7 5-10 0-1 1-3 3-3l1 2-2 5-2 3 5-1 1-11-10 4c-7 2-13 9-20 8v-3l2-2c3-2 9-3 12-6 4-2 8-2 10-7-4 2-11 1-11-4l8-5 3-3c1-4 3-12 9-12l4 4zM21 48l-2 1-3 2v1l5-4zm5 1c-1 4 0 7 3 10h3V47l-6 2zm1-3 5-2-5 2zm1-9v-1h-1l1 1z"/><path d="m108 9 1 3 1 4h2l3-5h2l4 2 2 2h-1l1 1-1 1v1c0 2-1 4-3 4-1 0-2 2-3 1l-1 6c1 4 9 6 6 10 0 8-9 9-2 17l2 1v-6l-1-4v-1 1l1 2v-1l1 5 2 5c2 1 2 3 3 5v4l-5-2-6-7c-3-3-3-7-8-2l-8 5 7-7a71 71 0 0 0-14 10v-1l4-4c3-3 6-5 7-9h1l3-5v-2l-1-1v-1l-4 8-5 6h-2c-3 1-5-3-6-5v-5l-1 3c-4-2 0 8 0 10h1v1h-1v1l-1-1-2-2-1-10v-3l-4 9 1 1-10 9c-2 0-4-1-5-3l-1-1c1-6 6-11 4-18-3 1-8 7-9 2 0 0 0 1 0 0l1-1c9-8 10-19 10-30h-1l1-1v-1h1l1-1c9 4 7 7 8 15l2 3 1 2-1 2-1 1-1 8v3h-1v2c6-4 5-12 6-19l1-1h1v7l5-7 2-8v1a57 57 0 0 0-1 5h1l3-3 1-1v-6h-2v-1 1-4l-1-1 1-1 3-3c3 2 6 3 7 5zM93 29l-2 2v-1c-1 1 0 3-2 3v1l-1 8 3-5 2-8zm-4 4zm1 1v-1 1zm0 24zm9-20h-1l-2 1v1h-2l-1 1v1c-2 1-1 5 0 7v-1c4-2 6-7 7-10h-1zm2-16-1 1h-1v1h-1l1 1h-1l-1 1h-1l-2 2v1l-1 6 8-12v-1zm-8 42zm1-35h-1 1zm6 0-5 6h1l-1 1a76 76 0 0 0 8-5l-1-3v-1l-2 2zm-4-9zm0-3v1-1zm0 22zm0 0zm1-24v-1 1zm0 46zm0-22zm0-24zm0 0zm1-2h-1 1zm0 12zm1-1-1 1v-1h1zm3 4zm12-6h-4l1 9 1 7c1-2 3-3 2-6h1c-3-3 0-6-1-10zm7 25zM148 35c1 3-3 4-4 6l-2 1c-6 5-12-4-10-10 3-7 15-6 17 1l-1 2zM161 33c-2 9-3 18 2 26l4 2c10-2 19 1 29-2-2 0-2 2-3 2l-1 1c-2-1-3 1-4 1l-3 1c-5 3-12 0-18 1-6 3-8-7-10-11h-1c-2-11-1-23 4-34 4 3 0 10 1 13zm-4 25zm33-39 5 4v4c-2 2-5 2-7 3l-2 5c2 1 3 4 4 6l-4 7 1 2c3 0 3-4 5-5 0 2-2 4-1 6l1 4v3c-6 0-18 3-20-5 3-1 0-4 2-6h-1c-1 1-2 0-2-1l-1 1 1 2c-5 1-8-8-3-10l1-1h1l1-1c1 1 2-1 3-1h2v-5c-3 1-5-1-6-4 1 0-1-2 1-2l7-7h1l1-1h1c3-1 6 2 9 2zm15-9c1 3 5 6 4 9l-1 5c-2 5 0 8 0 12v1l1 14v1c-1 2 2 5 0 7-2 3-4 6-8 6l-1 1c-2-2-2-4-3-7v1-2c8-10 3-18 4-29-2-7 4-16-4-20h-3l-15 6c-2 1-5 0-5 3-10 1 23-24 31-8zm-4 32-2 2h-1l-4-1h-3l2-2-2-4v-1h1l-1-1c5-3 8 3 10 7zM250 9c2 0 3 1 4 3 0 2-2 1-3 2l-2 1c-5 1-7 6-11 9l-1 2 1 1c4-1 7-3 9-7-1 1-2 0-2-1h-1l2-2h2l3-2c2 0 7 2 6 5v1l2-1h1c3 2 13 4 9 9-7 1-13-4-20-1 3 1 5 6 8 5 2 0 3 2 4 3l1 2-2 2-8 3-2 3 5 2c0 5-4 8-6 11v1l9-1 2-1-2-4 1 1-1-1h1l1 1v-1l-1-1 1 1h1v-1l1 1v-1c4 4 18 14 4 13-7 1-26 2-29-4v-1l-2-2h-1l-1-1v-2l1-2c-3-1-5-2-7-5l-1 1c0 3-3 4-5 7l-3 3c-2 2-4 5-7 2v-3h1c3-3 3-7 6-9l-2 7c5-3 6-9 10-13v-6h1l2 1 5-6-6 2c-2 1-15 7-15 4h-1c0-1 2 0 1-1l1-1c6-4 14-5 20-9-1-1-3-2-3-4v-1h1l1-1v-1h1l5-4a59 59 0 0 0-6 1c-2 1-4 0-3-1v-1c3-2 8-2 10-6l-1-1-1-2c2-7 9-2 12 2zm-33 41zm21-15-6 7 1 2 8-4 1-1 1-8-5 4zm4 13-6 3v1l6-3v-1zm-3 7 3-2c-2 0-3 1-3 2zm18-4h-1 1c0 1 0 1 0 0zM298 15c-4 10-5 21-5 31 0 6 5 11 4 16 0 5-7 2-8 0l-3-3-6-9-1-2c-1 4-1 10-5 11l-1-1c0-2 0-4 2-6v-1c3-5 4-11 3-17 0-3-3-6-1-9 7 2 3 13 5 18-1 2 2 3 2 4 1 3 3 6 6 8-4-13-2-26-1-39-2 1-3 3-5 3-3-3 3-8 6-10 4 0 7 2 8 6zm-11 16c-2 4-1 8-2 13l-1 1c-3-6-2-14 0-20 4-2 3 4 3 6zm35-24 4 4 1 2-1 2c-6 2-10 8-13 13l4 1 2 3 11-11h1c10 6-5 15-7 21 6 1 14 1 16 7-1 2-1 3-3 3h-5l-3 3 2-3h-5c0 4 0 19-7 10l-8-5c-8 5-3 3-6 7h-2l-2-2-2-1 2-8 2-6v8c0 6 5 0 6-3l-2-2 1 1-1-1c1 0 3 3 3 0h-1 1l-1-1h1-1l2 1v-1c-2-2-4 1-7-1v1-1l-1-3c0-3 4-4 5-7l1-1c3 2 4 2 4 5l-3 2c4 1 9 3 8 7l-2 1-1 2 4 2 1 1h-2c3 2 4-4 4-7-7-2-10-8-5-15-2-3-6-3-9-2-4 3-3 7-6 11h-1c-2 0-3-2-5-4l1-3 1-1 7-14-4-3s1 0 0 0l10-9c0-1 2-1 1-3l2-1 1-1 7 2zm-18 42zm4 1h1v1h-1v-1zm5 5h1-1zm1-1 1 1-1-1zm4 2-2-1-1-1 3 2zm-3 0v1-1z"/></svg>