<svg xmlns="http://www.w3.org/2000/svg" xml:space="preserve" viewBox="0 0 342.7 69.8"><path d="M8 30c-1 4 0 7 1 11l1 3 2 4h-2l-1-1c-1 1-1-1-2-1-4-3-7-21 1-19v3zm-3-2zm1-2h1-1zm14-8 5 2 1 1 2 1v1c1 1-1 1-1 2v1c-3 2-4 7-6 10h1l6-5-3 6c-2 1-3 3-3 5l-2 1h1c-4 5-9 0-10-3l2-10c-2 0-3-2-4-3-1-3 3-7 5-9h1l1-1h1l3 1zM9 41zm1-12zM45 3l1 1 10 12 7 6-1 1 1 1v2-1l-1 1-2 4h-1v1l-1 1v-1 1-1l-1 1-1 1-1 1-2 2v-1 1h-1l-2 2-1 1v-1l-1 1v-1s-1 0 0 0l-1 1 1 17 4-4v-1c2-2-4-5-4-7 1-2 2-1 3-1l3-1c4 2 16 9 13 15 1 3-2 4-4 3l-2-2c-3-2-6-1-8 0l-1 1-1 1h-2v-1h-1c0 3-3 4-4 7l-1 1-1 1-1-1c-2 0-2-2-4-3l-1-2-5-5-2 1-1 1-2 1 1 1h-1l-5 3 1-1h-3v2h1l-2 3-1-1c-2-1-2-4-3-5l2-5 1-2 2-6v1-1l-1 5v-1l-1 4-1 3v1-1l1-1v1h2l8-7-1-2v-1l-3-4c0-1-2-2-1-3 3-7 9-12 12-19l-3-2-2-2 3-2c2-3 6-4 8-6h1c0-3 0-7 2-10l1 1h1zM17 55zm0 1zm0 0zm1-1zm0 0zm1-7zm1 3zm0 1zm0-1zm0 0zm0 13zm1-1zm14-18c-3 0-5 2-7 3v1h1-1l2 2 7-7-2 1zm5-20h-3c-3 4-7 8-9 13v2l12-7v-8zm1 23-4 2-1 1-3 4h2l1 1v-1c0 1 1 2 2 1 2-2 3-5 3-8zm-6 7zm1-1zm0 1zm9-53zm2 8v1h1l4 5v4l-4 1c-2 2-1 5-1 7l7-5-1-4h1v-1l-5-9-2 1zm1-5zm0 0zm7 48-7 4 1 1v-1c2-1 5-2 6-4zm-5-15zm1 0c0-1 0-1 0 0zm0-29zm1 27zm1 21-1 1 2-1h-1 1-1zm0-21h-1 1zm0 0zm0 0v-1 1zm0 0zm1 0v-1 1zm1-2-1 1 1-1zm0-15v1-1zm0 16zm0 0zm0-21zm0 1zm2 18h-1 1zm0-1zm0 0h1-1zM86 14l2 6 2-1h1l5 1c4-5 8-9 14-12 6 0 16 3 14 11 0 4-4 6-6 9-7 8-12 17-20 24 1 2 4 3 3 6-2 3-6 2-8-1-4-3-8 4-12 5l7-9h-1c-4 0-11 11-13 3l-1-2 8-12-1-4c-4 0-9 3-12 1l-1-2 1-2 9-7c-2-7-2-16 3-22l3 1 3 7zm22-2c-4 2-8 4-10 9 3 1 2 6 2 9l-1 3c-3 2-4 6-6 8l2 5c8-10 14-21 18-33-2 1-3-2-5-1zM137 40c0 3 0 6 2 8l4-4c0 2-3 5-2 7 21 14-16 19-18-8-1-5 2-9 3-14 6 0 13 5 11 11zm38-6c2 4 1 6-3 8l-10-1c-3-3-2-8-4-12h1l1-1c4-4 12 2 15 6zM222 6c0 3-1 7-3 10 7 0 7 6 0 7l-7 5c-5 5-13 4-17 8l-3 3c6-4 13-6 19-9 4-3 9-6 14-6 4 0 7 3 9 7l-1 2-7 8h-1l-3 1c0 4-20 14-23 12h-2l-1 6c8 6 22 3 31 1 1-1 2-3 1-4l-7-11c4 3 5 9 10 10l-7-8 11 9c2 0 2 2 4 3 0-1 0 0 0 0 0 1 4 4 2 6l-2 1c-13 1-26 2-39 0-4 0-7-4-10-6-3-6 2-11 5-16l-6 2-2 1c-2 1-4-3-4-5l2-3 1-1c5-4 11-7 14-13-5-1-12-8-5-12l3-3c7-3 12-9 20-9l1 1c2 0 3 2 3 3zm-29 32zm10 2-8 4 4 2c1-1 4-3 4-6zm-8-4h1-1zm22-3c-7 5-7 1-5 10l1-1v-1c0-1 0-3 2-4l-1-1h2l3-3h-2zm5 13v1-1zM296 34l-1 2-2 2-5 5-1 1-1 2h-1l1-1-4 2-4 2h1v-1l2-2-4 3c7 3 14 7 18 15h-5l-1-1v1-1c-8-8-20-7-30-10-2-1-7-3-8 0-2 2-6 2-7 0v-1c1-11 21-28 16-36-3-5-1-7 5-8 7 4 8 6 7 10 9-4 30 3 24 16zm-19-5c-8 4-12 12-18 18h-1c11 2 20-10 23-20l-4 2zm1 21v-1 1zm3-3zm5-2 1-1-1 1z"/></svg>