<svg xmlns="http://www.w3.org/2000/svg" xml:space="preserve" id="レイヤー_1" x="0" y="0" version="1.1" viewBox="0 0 670 130"><style>.st0{fill:#99837a}.st1{fill:none;stroke:#99837a;stroke-miterlimit:10}</style><path d="M287.9 44.9c-1.7 7.8-7.9 6.1-9.9.8l-2 .3c.1 1.3 3.2 28.8 3 29.2.3 8.7-7.1 16.9-15.8 16.8-9.4 0-20.7-11.8-26.3-20.3l-20 14c-15.1 2.8-2.5-14.2-8-21.3l3.4.7 15.3-15.7-7 .5c-8.8 11.1-18.5-9.4-.7-25.6l1.7 1.8 23-1.8-.8-5-7.6-2.2-2.1-5.7c14.2-10.6 62.5.2 38.9 7.8l.4 3.4 3.6-.2 1.3-2.1c10.7 4.4 12.8 14.6 9.6 24.6zm-37.4 16.6-8.9 6.5c2.9-.2 7.1 0 10.1.3l-1.2-6.8zM362.8 57.6c-.6 5.1-57.8 3.4-61.4 4.4-14.9-3.4-10.1-15.6-.2-22.7l2.4 1.9 48.6-2.4 2-2.1c5.9 4.7 15.5 13.9 8.6 20.9zM442.1 70.7c-3.6 2.2-6.7 1.3-9.9-.8-6.3-4.1-15.4-8.2-27.3-12.4l-.8 25.2c-6 19.7-30.2 10-33.6-7.7 6.2.4 2.7-48.5 4-51.5-5.2-1.5-7.2-3.7-7.1-9.7a52 52 0 0 1 33.9-2.5 38 38 0 0 1 12.2 4.7c3 5-3.3 9-7.6 8.8l-.3 7.4c10.1 3.2 19.7 7.2 28.5 12.2l1.9-2.2c6.8 7.1 15.4 21.5 6.1 28.5zm.7-41.1c-4.4 5.7-8.2-2-11-4.2 0 6.6-8 8.5-10.3 1.3-1.4-4.3-1.9-8.3-4.6-12.2 6.1-4.2 12.1 2.1 14.3 7.7l1 .8.3-1.7c-.5-1.2-1.9-3.7-4-7.5 4.8-1 5.4-1.5 7.1-1.3 4.3 2.6 12 12.1 7.2 17.1zM528.1 42c-.9 1.7-2.1 2.5-3.6 2.5a64.8 64.8 0 0 1-62 46.6c-2.4 0-4.3-.9-6-2.6-6-6.5 2-15.8-2.9-23.1l3.7 2.2a44.2 44.2 0 0 0 40-29.1l-33.9 3.1c-16.1 11.5-22.4-19.3-3.7-29.2l2.5 1.3 39.5-3.8c3.5 3.8 4.2 8.4 6 12.8 2 5.8 11.4 6.8 13.9 1a8.3 8.3 0 0 0 5.5 3c1.6 6.7 3.1 10.1 1 15.3zm.1-17.4c-2.7.5-5.4-3.4-8.4-5.2.6 8-8.3 7.8-10.4 1.6-1.6-4.3-2-8.1-5.3-11.9l5.7-1.4c5.1 2.2 6.5 4.1 9.3 9.2l1.3-1.3c-2-3.2-3.9-5.7-5.6-7.5 12.5-8.6 23.4 14.1 13.4 16.5zM618.2 64.7a79.3 79.3 0 0 1-23.5 21.2c-.1 7.8-9.4 6.2-15 2.5C571 84 569 78.2 565.9 70c1.9.4 3.2-.6 3.3-2.4l2.4-44.3-3-2.6c-.9 14 2 37.5-6.6 49.8-4.4 6.8-17.8 25.2-23.6 10.8-1.6-5.6-2-8.8-5.1-14.7l2.7-.4c9.7-10.4 10.3-29.4 8.8-42.4-1.1-.8-2.5-1.8-4.1-3.2 8.8-8.9 13.6-15.9 25.6-4-2-5.3 11.9-8.4 14.7-9.3 7.9-.5 35.3 9 15.8 16l-.7 32.7c8-5.7 14.8-13 20.5-21.9 1.6 10.7 8.4 21.4 1.6 30.6z" class="st0"/><g><path d="M95.8 32.1c1 10.9-4.7 15-14.6 19.5L75 44.4c7.6-1.8 12.3-4.5 12.2-12.3l-13.5.7-.2-7.8 35-1 .4 7.7-13.1.4zm-17.3-9.5v-7.4l24.9-.5.4 7.2-25.3.7zM148.1 20.5c-3.1 2.2-5.7 5.2-9.5 7.8v23l-8.1-.1V33.7c-4 2.4-7.9 4.3-11.7 5.7l-4.9-6.9c10.1-3.6 23.4-10.9 29.1-19 .5 1.1 9.4 6.5 5.1 7zM190.7 22.6a96.2 96.2 0 0 1-23.3 29.3l-6.3-5.2a68 68 0 0 0 19.1-21.5l-7.8.8c-3.4 5-7.1 9-11.1 12.1l-5.4-5.1a48 48 0 0 0 14.7-19.9l6.9 2.5c2.2.9-.4 1.9-.7 2.9l6.6-.7c1.2-.6 1.8-1.4 3.2 0 .7 1 5.7 3.2 4.1 4.8zM107.9 64.7c-3.5 4.6-6 9.6-8.9 12.7l-6.5-3.8A21 21 0 0 1 80 93.5l-6-5.9c8.3-3.2 11.4-10.3 9.9-18.8.8.3 9.2 0 9.3 1.2-.5.9-.7 2.3-.6 3.3 1.7-2.4 3.3-4.9 4.8-7.4l-22.8.6-.2-7.7 26.8-.7c.4.1 1.1-.4 1.4-.6.7-.2 4.9 5.1 5.5 5.5.4.8.5 1.2-.2 1.7zM148.5 66.7c-3.1 15.3-7.9 24.5-23.6 26.7l-4-7.7c10.2 0 16.8-5.3 18.1-15.5l-15 .7.2 7.5-8.1.1-.3-15.3 10.7-.5c0-2.5-.3-4.5-.8-5.9.9.3 9.6-.4 9.7.9-1.1 1.7-.9 1.8-.7 4.6l5.1-.2c1.3-.1 2.4-1.5 3.7-.2.8 1 6.7 3 5 4.8zM184.5 83.8c-2.8-2.8-7-5.5-12.6-8.2l-.2 18.3-8.6-.1c.1-13.7.7-28.4-.1-37.2l8.2.5c2.2.2 1.3 1.1.9 2.2l-.2 10.9 2.1-2.6a46.8 46.8 0 0 1 15.9 9.7l-5.4 6.5z" class="st0"/></g><g><path d="m181.9 111.4-3.8.2-.3 14.4-.3.4c-1.4 1-2.8-2.3-2-3.1l-.2-11.5c-4 0-3.6.9-5.5-.4-.4-.5-1-1.3 0-1.4l10.5-.8c.9-.1 3.3 1.9 1.6 2.2zM197.3 126.2a3 3 0 0 1-2.7-1.5c-10.4 8.8-12.6-12.8-1.1-6.6.4-3.1-3.7-4.4-6-2.6-1.6 1.2-1.8 1-2.7-.1 3.4-3.5 11.5-3 11.7 2.8-.2 2.8-.8 6.3 2.4 7.4-.5.4-1 .6-1.6.6zm-3.8-6.2c-1-3.1-5.5-1.3-5.1 1.7-.3 3.2 4.3 5.4 5.4 1.5-.2-.6-.3-1.6-.3-3.2zM213.8 126.7c-1.9.8-5.3-6-6.4-6.8l-1 1v5.2c-.4 1.4-3.3-.3-3.4-1.2 0-.3.9-.8.8-1.2-.4-1.9 1.1-13-1.4-13.9.7-.8 4.5.6 4.6 1.6-.9.7-.5 5.4-.6 6.4a37 37 0 0 0 2.9-3.2c-2.4-2.2 7.6-1.3 4.1-.1-1.2.1-3.4 2.9-4.3 3.6 4 6.1 7.8 8.4 4.7 8.6zM229.6 120.4c-.5.8-8.6.2-9.5.4.5 6.9 7.6 5 9.6.2-.2 7.9-13.4 7-12.8-.9-.5-8.8 14.4-8.7 12.7.3zm-3.5-3.8c-2-3.9-6.4-.7-6 2.8h6.6a6 6 0 0 0-.6-2.8zM257.3 124.2c-5.6 7-14.8-2.1-10.2-8.6 5.4-7.1 15 1.8 10.2 8.6zm-2.5-6.9c-.5-2.6-2-3-4-2.4-2.3 1.7-2.2 6.9-.7 9.1 4.1 3.4 6.1-3.3 4.7-6.7zM271.7 126.6c-.9 0-1.6-.3-1.9-1-1.9 1.5-7.2 1.7-7.8-1.3v-8.9c-1.5-2.1 1-2.5 2.7-1.9 1.2.5.1 1.4 0 2.2v8.1c.4 1.8 3.7 1.7 4.8.5v-9.8c-.8-1.5 1.1-1.4 2.3-.6 1.4.8 1 1 .6 1.9v8.8c-.1.6 1.3.8 1.7.3a2.4 2.4 0 0 1-2.4 1.7zM286.9 125.6c-9.9 4.2-7.3-4.5-7.6-10.4-1.5.1-3-.2-2.9-1.9.4.7 2.1.5 2.9.5v-2.6c-.3-.8-.8-1.7.7-1.7 3.5.4 1.7 2 1.9 4.3 1 .2 4.2-.6 4.3.9 0 .9-3.8.3-4.3.4v9.4c1.2 1.3 5.6.2 6.4-1.5.2 1.1-.2 1.8-1.4 2.6zM316.2 112.5c-.4 3-.3 9.6-.2 12.6 0 .8.3 1.4-.7 1.4-3.3.1-1.7-6.7-2.1-8.4l-4.3.3v6.3c.2 2.3-2.1 2.4-2.4.6-.3-.3-1.4-1.6-.6-2.2.5-5 .8-7.9-.1-12.6-.5-.3-.5-.6.1-.9 2 .5 3.9 1.4 3 3.5v3.3c.6 0 3.8-.4 4.3 0 0-1.1-.1-3.5.1-4.6-.1-.8-1.6-2.4.2-2.4 1 .1 3.6 1.8 2.7 3.1zM331.4 124.2c-5.6 7-14.8-2.1-10.2-8.6 5.4-7.1 15 1.8 10.2 8.6zm-2.5-6.9c-.5-2.6-2-3-4-2.4-2.3 1.7-2.2 6.9-.7 9.1 4.1 3.4 6.1-3.3 4.7-6.7zM348.8 117.6c-1.9 1.8-7.3-1.1-2.8-2.4-5.2 1.7-4.2 3.4-4.3 9.8 1 .1 2.7-.2 2.8 1-.4.7-2.5.5-3.4.4-1.9.2-4 .4-5.3-1.4h3.1v-8.7c-.9-.4-1.6-.9-1.9-1.5 1.1-1.2 4.7-1.7 4.8.9 1.4-2.9 10.2-2 7 1.9z" class="st0"/><path d="M362.3 125c-2.5 2.3-7.1-.2-9.7 1.6-1.9-.1-.9-5.1.7-2.5 2.6 2.1 11.9-.9 5.8-3.2-12.2 1.9-7-10.1 2.5-6.8l.9-.7c1 1 1.3 1.9.4 2.9-2.3-.9-7.2-2.7-7.7 1.1-.1 2.8 3.4 1.4 5 1.5 3.7-.2 5.7 4.2 2.1 6.1zM391.6 126.4c-1.3 0-2.1-.4-2.6-1.1-11.4 7.7-11.6-17.7.1-10.6 0-2.1.4-3.1-1.5-4.5.5-1.2 4.4.3 4.7 1.2-1.1.4-.6 12.4-.7 13.4.1.8 2.3.5 3.2.3-.7.9-1.8 1.3-3.2 1.3zm-3.2-10.7c-6.8-4.9-6.7 14.1-.2 8.8.5-.5.8-1 .8-1.4-.2-1.2.7-6.5-.6-7.4zM401 112c-.7.7-2.1.8-3 .5.8 0 1.4-.3 1.9-.9-6.4-1.5 4.4-4.4 1.1.4zM415.7 124.2c-5.8 7-14.7-2-10.2-8.6 5.5-7.1 15.1 1.8 10.2 8.6zm-2.4-6.9c-.5-2.6-2-3-4-2.4-2.3 1.7-2.2 6.9-.7 9.1 4 3.4 6-3.3 4.7-6.7zM432 120.4c-.5.8-8.6.2-9.5.4.5 6.9 7.6 5 9.6.2-.2 7.9-13.4 7-12.8-.9-.4-8.8 14.5-8.7 12.7.3zm-3.4-3.8c-2-3.9-6.4-.7-6 2.8h6.6c-.1-1.1-.3-2-.6-2.8zM445.5 126.6c-.9 0-1.6-.3-1.9-1-1.9 1.5-7.2 1.7-7.8-1.3-.1-1 .4-9.6-.6-10.2.9-1.8 5.2-1 3.3 1.6v8.1c.4 1.8 3.7 1.7 4.8.5v-9.8c-.8-1.5 1.1-1.4 2.3-.6 1.4.8 1 1 .6 1.9v8.8c-.1.6 1.3.8 1.7.3a2.4 2.4 0 0 1-2.4 1.7zM462 114.4c-2.6.5-3.4 15.7-7.5 11.6l-3.3-10.3c-3.2-3.1 1.3-2.8 3-2-.1.4-.8.6-.5 1.1l2.3 7.1c.4-2.3 3.7-6.9 1.7-8.1 1.1-.9 3.3-.3 4.5.2l.1.2c-.1-.1-.2 0-.3.2zM477.7 117.6c-1.9 1.8-7.3-1.1-2.8-2.4-5.2 1.7-4.2 3.4-4.3 9.8 1 .1 2.7-.2 2.8 1-.4.7-2.5.5-3.4.4-1.9.2-4 .4-5.3-1.4h3.1v-8.7c-1-.4-1.6-.9-1.9-1.5 1.1-1.2 4.7-1.7 4.8.9 1.4-2.9 10.2-2 7 1.9zM493.6 120.4c-.5.8-8.6.2-9.5.4.5 6.9 7.6 5 9.6.2-.2 7.9-13.4 7-12.8-.9-.5-8.8 14.4-8.7 12.7.3zm-3.5-3.8c-2-3.9-6.4-.7-6 2.8h6.6a6 6 0 0 0-.6-2.8z" class="st0"/></g><path d="M511 120h159M0 120.5h159" class="st1"/></svg>