<svg xmlns="http://www.w3.org/2000/svg" xml:space="preserve" viewBox="0 0 388 176"><path d="M18.5 10.9c0 3.7-1.2 7.2-.4 10.8 4-2.5 7.8-5.6 12.5-6.6.2-.2.6-.4.8 0l1.5.7c-2.6 3.1-3.1 7.5-6.3 10.1-1.6 2.1-3.9 4.6-4.1 7.2-.5.8-.9 1.8-2 1.7-2.7 1-5.1-1.6-6.4-3.7-2.2 1.3-2.9 4.2-3.2 6.6 5.3 4.8 13.9 3.8 20.5 5.7 1.9 0 4.2-.4 5.6.8-10.5 5.3-44.8-3.4-24.8-18-1.7-7.5 0-15.4 4.6-21.7.1.3.2.4.4.5l.2-.4c2.5 1.2 1.9 4.1 1.1 6.3zm8.5 8.3a31.8 31.8 0 0 0-8.3 5.8c.2 1.8.6 3.6 1.1 5.4 3.7-3.5 6.8-7.6 9.4-12l-2.2.8zM66.2 6.8c1.7 1 3.2 2.1 3.7 4a6 6 0 0 0-.2 1.5c-6 1.8-10.5 6.5-14.2 11.3C68.6 34.8 58 51.8 80.7 26l.3.5c-4 6.3-6.2 14.5-12.1 19.4-10.1 1.1-8.6-14.5-16-17.6-3.3 3.9-7.4 7.5-8.9 12.4.1.4-.1.7-.4.9-.1.2-.1.2-.1 0-.6.4-.4 1.7-1.2 1.8-.3.1-.4.2-.5.4-2.5-.1-3.8-7-3.3-9.1.2-.1.3-.2.2-.4.3-.2.8-.4 1.2-.4.3-1 1.6-.8 2.1-1.7.1-.2.3-.3.5-.2a28 28 0 0 0 4.5-5.2c-.5-.6.2-.7.2-1.2A3 3 0 0 0 47 24c.6-.1.3-.6.2-1.1.5-.1-.1-1 .6-.7v-.4h.3c-.2 0-.3-.1-.3-.2.7-.2 2.4 0 3.1.2 3.8-4.9 8.3-9 12.4-13.8v-.3h.3c-.1-.4-.3-.6-.6-.8l.7.1c.1-.4.6.1.8-.2.2-.1.3-.1.4 0l.2-.3c.4.1.8-.1 1.1.3zM114.1 11.8c2.7 5 3.7 11.2 3 16.7h.1c-.2.1-.2.3-.2.6l.1.1c-.3.2.1.5-.2.8l-.4 1.8v.1c-.1.1-.1.1 0 .1l-.2.5v-.1c-.2 0-.3.3-.1.3-.2.5-.5.9-.5 1.5l-.2.4c-.1.1-.1.1 0 .1l.2-.2c0 .2-.1.3-.2.3a3 3 0 0 1-.4.8c0 .5-.5.8-.7 1.3l.3.1-.5.6.1.1-.2.1-1 1.3c.2-.2.2-.4.2-.6l-.2.3h.1l-.9.8c-.2.6-.8 1.1-.8 1.8l-.3.4v.2l-1.7 1c6.6 2.1 10-5.4 14-9.3a26.3 26.3 0 0 1-14.1 12.9l-.2-.1h-.1l-.1-.1c-.1.1-.1.1-.1 0h-.1v.1h.2c-.2-.2-1.2.1-1.2-.3-1.1-.4-2.2-.9-3.2-1.6-14.1 6-26-10.6-20.2-23.4 4.2-10.7 21.6-21.8 29.7-9.4zm-10.7-1.4a21 21 0 0 0-12.2 6.9h.1l-.3.4c-.1.2-.3.2-.4.1l-.4.4h.1l.1.2-.8.8v.1c-3.8 5.6-3.7 14.6 1.8 19.1 2.7-7 12.4-8.7 14.7-.6 6.5-7.1 8-18.6 2.4-26.8-.4-.2-.9-.3-1.4-.3 0 .1-.4.2-.5 0-.3-.1-.5-.3-.5-.5a8 8 0 0 0-2.7.2zm-5.1 24.7-.1.1-.1-.1c-2 1.2-3.2 3.1-5.3 4.2 2.5 1 5.1 1 7.7.5-.9-1.4-1.3-3.1-1.8-4.7h-.4zM147.4 28c2.4 9.3-6.3 15.1-12.8 19.7 21.8-25.4-3.9-35.4-5.9-8.3 3.2-2 3.5-6.1 5.6-8.9 1.4 3.1-2.8 15-6.9 11.4-1.2.1-1.8-.9-2.5-1.7.2-.1.2-.6 0-.6 2.6-9.4 15.1-26.7 22.5-11.6z"/><g><path d="M63.5 64.6c5.8 2.3 16.6 12.2 9.2 17.5a44 44 0 0 0-8.5 2c-4.6 5.7-4 13.4-3.5 20.4.1 7.9-1.8 16.2-.9 23.9.3.2 15.1-6.1 15.4-6.1 7-15.7 9.8-34.2 20.5-48.2 10.8-10.7 29.6 12.2 25 23.6-6.9 5-16.1 1.1-22.9 6.1v-.8c6.1-7 4.4-16.5 2.8-25-1.3.7-2.7.7-3.9 0-6 1.8-3.6 8.4-6.5 12.4-4.1 6.6-2.3 14.6-4.5 21.5a12 12 0 0 0-.7 7c1.2 0 2.4-.4 3.6-1.1 26.9-.2 20.3 23.1 6.5 36.3-4.9 2.4-9.7 11.4-15.1 8.9-8.8-9.7-5.2-22-3.4-33.7-.7-.5-1.1-.5-1.5 0-5.3 2-10.3 4.6-15.1 7.4.3 8.3-8.6 25.2-17.9 24.2-5.9-4.4-17.9 2.5-18.3-8.2l.9-.5c-.3 0-.4-.1-.5-.3 7-3.7 12.5-9.8 19.6-13.6-.7-7.3-1.5-14.5-2-21.9.3-4.5-.4-10.7-1.1-15-5.2 4.4-18.2 5.8-16.9-3.6 15.7-13.4 16.4-21.3 22.9-39.5.9-.3-.1-1.8 1.5-2.2-.1-.7 0-1.1.4-1.5.8.7 1.5.7 2.2 0 6.2.4 10.7 4.3 12.7 10zm-19.4 83.3c-1.1 1.2-4.8 3-4.5 4.9 2.4.4 4.5-.1 5.9-1.8l-.9-.7c0-.7.1-2-.5-2.4zm40-20.5c-.5 7.5-1.3 15.7.4 22.9l1.3-.5c5.2-6.5 10.4-15.1 9.2-23.9-3.9-.2-7.4.2-10.9 1.5zM199.7 17.7c25.4 11.1-2.4 32.8-14.7 42.2 8.3-1.5 16.2-5.3 24-8.4-.2-.6-.2-1.3 0-2.1l-1.8-4h2.6v-1.9c.5.5 1 .8 1.6.6l-.6-1.8c.8.2 1.6.6 2.1 1.1V43c6 4.1 40.8 16 31.1 25.9V70c-8.4 1.1-15.6-6.6-22.9-1.1 1.3 1.1 2.7 1.9 4.3 2.4.2 6.8-3.3 13.6-3.1 20.3 22.4-1.2 14-8 35.3 7.7-.5.8-.2 1.6.8 2.4-1.3.3-2.3.8-2.7 1.9-10.6 3.6-22-.3-32.7 2.4-2.9 14.5-.6 29.2.6 43.6.3-1 .5-2.3.5-3.4 0 3.9.2 7.9.6 11.8 1.6 2.4 2.1 4.7 1.3 7.1.5 1.3.2 2.3-.6 3.1h-.6l-1.1 1.8c-3.4.6-6.3.2-8.9-1.1a57.8 57.8 0 0 0-16.6-20.8 6.1 6.1 0 0 1-2.4-4.8l-.6-.6c4.3 2.3 8.9 4 13.8 5.5a9.4 9.4 0 0 0 0-7.7c-.5-10.2-.5-20.7 0-30.8-7.3 1.8-14.2 5.4-21.4 7.1-7 13.1-16.3 25-26.6 35.3-3.5 3.4-8 4.6-11.3 7.9-1.4-.5-2.7-1.1-3.9-1.8a12 12 0 0 1 3.9-3.5c9.3-8.9 18.4-19.7 19.5-33.3-9 1.6-17.2 5.2-24.6 10.6a10 10 0 0 1-4.5.6c-6 .5-23.2 12.9-23.7 2.4.5-.1-.5-1.8.3-1.8l-.3-1.3c.8-.2 1.4-.6 1.6-1.8 16-9.6 34.1-17.3 51.8-24-.2-4-.6-7.7-1.8-11.4.5-.8.5-1.9 0-3.1h.6V91l1.1.6.6-1.3c.8.2 1.3.5 1.8 1.3 4.7 2.1 8.5 5 11.4 9 8.4-3.1 17.1-5.5 26.1-7.2 1-7.7 3.1-15.3 6.3-22.7-1 0-1.8.2-2.6.6 1.8-3.2 4.2-6.1 7.6-8.5l-6.3-4.2A116.4 116.4 0 0 1 187 75a41.5 41.5 0 0 1-18.8 10.6c-1.1.8-1.8 1.6-1.9 2.4-.7-2.3-3.1 2.9-3.1 3.5l-2.1-.6a6 6 0 0 1-2.6.6c-7.3 6.4-15.3-16.1-8.7-19.6 1.6 0 2.6-.8 3.1-2.6 8.7-6 14.4-15.7 20-24.6 5.1-10.4 14.6-16.9 21.1-26.4.6.8 1.3.8 1.9 0 .6-.2 1.1-.6 1.3-1.4.6.7 1.6.9 2.5.8zM335.5 41.1c-4.7 8.6-3.7 19.4-4.3 28.7l14.5-10.9c3.4-4.8 7.1-9.3 11.3-13.5-2.5-1.1-6.4.1-8.4-2.1a47.8 47.8 0 0 1 17.2-9.2c3-5.4 24.1 13.5 13.2 19.2-17 2.6-32.6 14-45.7 24.5 5.6-1 11.2-.3 16.7-2.1 6-.9 9.2 5.6 13.8 7.9 7.1 5.8 12.2 13 15.1 21.7-1.3 4.8-3.7 9-7.6 12.1a140.1 140.1 0 0 1-16.6 30.4c2.2 2.8 1.5 6.3.6 9.7-5.5 1.1-10.7 1.5-15.9 3.7-8 .7-16.5.6-24.6 1.4-10.5-1.2-19.9 5.8-30.3 4.2-2.6-2.8-6-6-6.1-10 .5-.3 1-.3 1.4 0-.5-.8-.5-1.4 0-2.1h.6v-.6h.8c.9-1.4 3.3.4 3.2-2.1 7.9 1.4 12.7-11.4 16.9-16.3-6.9-.4-12.9-3.3-14.7-10.5 1.1.8 1.6-.4 1.4-1.4h1.3v-1.4c16.7-5.3 23.1-21.4 38.2 0-2.1 2.1 2.6 7.4-1.4 7.7-2.2 3.1-5.6 3.1-8.4 4.8l-.8-.5c-.6.6-1 .6-1.1 0-.8.8-1.8 1-2.9.5-6 5.7-14.7 9.6-18.5 17.1 11.5-2.7 29.2-1.1 34-14.8.6-4.8 2.1-9.3 4.7-13.4-1.3-2.4 1.5-3.8 0-6.4 1.6-7.1 3.9-14.2 6.9-21.3-7.3 1.4-14.7.6-21.6 3.4-7.8 4.3-15.6 7.2-23.8 10.6-9.7 2.9-13.5 21.7-24.6 18.5a18.2 18.2 0 0 1-12.4-11.9 26.4 26.4 0 0 1 18-15.6l1.3-1.4c11.6-1.2 21.3-10.1 32-14.8l4.3-5.8a6.8 6.8 0 0 0 .5-6.9c-.5-5.9 2.7-11.4.6-17.5-9.6 2-14.3 11.3-20.8 17.5a4.6 4.6 0 0 0-2.3 4.5c-1.7 8.9-15.5-6.6-15.1-11.4-4.6-4.3.5-9.4 4.3-12.1 3-1.1 7 2.2 8.2 5 8.5-1.4 17.1-3.5 25.6-6.3.1-7-.5-13.5-.6-20.6.5-1.6-1.6-3.7-1.4-5.5 1.4-1.8 3.1-3.5 4.7-5.2.8.5 1.4.5 2.3 0 8.5 3.9 18 9.8 16.3 20.5z"/></g></svg>