<svg xmlns="http://www.w3.org/2000/svg" xml:space="preserve" id="レイヤー_1" x="0" y="0" version="1.1" viewBox="0 0 700 160"><style>.st0{fill:#d6d2ce}</style><path d="m128 141 58-36 1-1 17-4 11-39c0-2 2-2 3-2l2 3-11 37 24-5 7-5 21-28h4v3l-13 17 15-9 23-32c0-2 2-2 3-1s2 2 1 3l-16 22 36-22h4l-1 4-47 30-27 17-8 5h-1l-45 11-58 36h-1l-3-1 1-3z" class="st0"/><path d="M1 105h3l26-26 84-23h25l15 7-13 9-23 16-72 24-2 3 3 2h1l72-24 48-33 13-5a2176 2176 0 0 0 55-22l-12 12-52 26c-1 1-2 2-1 3l2 2 1-1 53-26h1l13-14v-3l-1-1 4-2 13 4h1l11-3 8 3-13 5c-2 1-2 2-2 4l2 1h1l20-7h1l20-13 10 3-13 5c-1 1-2 2-1 3 1 2 2 2 3 2l27-12 12 14a2 2 0 0 0 3 0v-4l-7-8 11-8 6 3-6 5-1 3 4 1 15-12 5 6h2l9-1 3 4c1 1 2 2 3 1l5-2 14 32 2 2h1c2-1 2-2 2-4l-8-19 5-1 20 31a3 3 0 0 0 4 0v-3l-12-18 16-5 35 2-13 8c-2 1-2 2-1 3l2 2 1-1 20-12 13-6 4-1-13 13-31 40-4-3h-1l-17 4-15-26c-1-1-2-2-4-1l-1 3 16 27-15 12-18-11-44-47h-3v4l32 35-32-19-18-19-3-1v4l17 20 1 1 64 36-33 12-43-55c0-2-2-2-3-1v4l41 54-7 2-16-7-20-47c-1-1-2-2-4-1-1 1-2 2-1 3l19 45h-30l-22 4-12-35c-1-2-2-2-4-2-1 1-2 2-1 3l12 35-22 5-19-27c-1-1-2-2-3-1s-2 2-1 4l17 25-43 9h-1l-20 17c-1 1-2 3-1 4a2 2 0 0 0 4 0l20-17 71-14h2l1-1 22-4h33l18 7h2l47-17h1l19-17 17-4 72 41h2l64-48 43 3h2l18-9 11 1h1l11-3 20 13 4-1-1-3-21-14h-2l-3 1-12-21-2-1h-5l-7-10-2-2-2 1-6 5-4-5-2-1h-6l-3-6-3-1h-8l-4-5-2-1h-9L577 6l-2-1-8 2-5-5-2-1h-12l-2 1-3 6-16 2-2 1-18 18-11 3h-1l-13 6-42-2h-1l-17 5-1 1-6-10-3-1-7 2-5-11-1-2h-2l-6 3-3-4-2-1-9 1-6-6h-3l-6 5-10-5h-3l-12 9-2-2-3-1-9 4-16-5h-2l-21 13-14-6h-1l-11 3-13-4h-2a3411 3411 0 0 1-79 32l-5 4-19-9h-27L28 74l-1 1-26 26v4zm651-32-13 6-15-19 20-15 6 9 2 1h5l11 18-4 1-11-1h-1zm-64 7-14 10 2-33-2-2-3 2-3 37-39 30 15-68c0-1 0-2-2-3l-3 2-16 71-15-9 8-35-2-3-3 2-8 34-24-14 15-18 28-24 1-1 27-52h9l4 4-5 9c-1 1 0 3 1 3 1 1 3 1 4-1l5-9 7-2 18 19 1 1h10l4 5 2 1h8l3 6 2 1h7l3 4-12 9-14-17h-4v3l32 39-2 1-43-3-2 1zm-96-27 36-38 12-2-22 43-27 24-16 18-13-7 30-38z" class="st0"/><path d="m98 117 64-51h3v4l-64 51a2 2 0 0 1-3 0v-4zM389 35l4 1 18 33c1 1 0 2-1 3h-1l-2-1-19-32 1-4zM379 64h-2l-2-2-10-20v-2l6-12c0-1 2-2 3-1 1 0 2 2 1 3l-5 11 10 19-1 4zM547 48l-2 2-2-1v-3l11-18c1-2 2-2 4-1v3l-11 18z" class="st0"/></svg>