<svg xmlns="http://www.w3.org/2000/svg" xml:space="preserve" id="レイヤー_1" x="0" y="0" version="1.1" viewBox="0 0 393 158.7"><style>.st0{fill-rule:evenodd;clip-rule:evenodd;fill:#1e1210}</style><path d="M53 26.7c1 0 2 0 1-2 2 2 3-1 4 1 6-5 19-8 25 0l3 10c-1 3 1 6 1 10l5 6c1 6 6 12 3 18-2-3-5 0-6-3-2 7-7 12-13 16v-4c-1 2-3 1-3 4-4-1-5 3-8 3-1-2 1-1 1-3l-7-5c-2-5-3-19 2-22l1-4c4-3 10-4 16-6l-2-11c-7 3-22 1-21 16 0 2-2 3-1 5l1 2-4 21c-6-1-13-7-18-14l1-5c-2 4-6 9-5 16-13 5-2-21-4-27-4 3-9-4-6-10 5-5 12 1 14 7 1-6 4-17 0-23l2-10c6-4 5 4 12 4 1 4 5 6 6 10zm13 36 2 16h2c1-7 11-11 9-21-4 2-9 5-13 5zm85-57c4 1 4 6 7 8v8c-2-2-2-5-4-1-5-2-9-11-3-15zm-32 11c4 0 5 3 8 5 9 0 9 5 12 11l-4 4c1 4 5 4 7 7 0 2 0 5-2 7 0 3 2-2 3 0l-5 4v17c-3-1-3 4-5 6-2-1-2-3-5-4l2-12c-5 4-30 11-22-6 7-1 12-5 18-7l-2-8c-9 5-25-2-17-13 4 1 6-1 10-2 1-4 0-7 2-9z" class="st0"/><path d="m137 9.7 4 1c5 4 13 10 8 18-6-3-11-6-14-11l2-8zm-8 69c0 3 1 6 4 7-2 2-3 1-5 0 0 3 3 2 4 3-8 1-20 2-30 1-5-1-10-3-12-7l2-7c13-6 27 0 37 3zm160-27c-3 4-6 8-11 9 0 3 2 8 5 11 0 11-8 17-13 23l-4-1-4-8c2-6 6-7 8-12-4-5-8 2-12 1-4 0-8-7-7-11 1-3 4-3 5-6-7 2-20 6-27 6l-6-7c0-3 2-5 1-7 12-12 34-17 53-17 4 7 11 11 12 19zm50 14c-1 5 0 7 1 11-4 11-15 16-23 13-7-3-17-18-19-26v-6c-2-9-4-24-3-37 7-15 11 8 17 12 0 11 4 15 4 28 5 5 12 4 20 3 0 3 2 2 3 2zm-103-26c-3-2-6 2-8 5-5-3-9-12-14-10 1-3-1-7-4-8 1-1 2-1 2-4 3 2 3-2 6-3 4 5 17 11 18 20zm-39 2-1-1c-6 3-6 14-7 19 2 5 12 1 16 6 8-2 18 10 15 17-2 5-11 6-10 10-2 2-3 4-6 4-3-2-5-5-10-3l-1-2c-1-5 4-4 1-8 5-2 11-3 13-9-2-3-10-3-17-4-1 6-2 14-7 20h-12c-5-8 5-8 6-15-3-2-9 1-14 0 0 3 4 7 3 12-11 0-21-16-17-26 12 1 21 0 30-1 1-4-2-7 0-11-3-5-9-2-14-3-4-2-8-7-12-8 0-4 0-8 3-10 6 2 14-1 21-2-1-5-2-10 1-14 7 1 8 8 11 12l12-1c2 3 0 8 5 8-1 4-6 3-7 5 0 2 3-1 4 2l-8 4c0-1 1-2 2-1zm-31 32c6-1 10 2 13-2-5 0-10-1-13 2zm119 22 4 8c6 0 12-5 17-2l3 4c2 3 7 5 6 10-2 3-4 7-4 11-3 1-3 3-5 3-3 0-6-3-6-5s3-3 4-6v-6c-5-2-14 1-19 3-7-1-10 2-16 2l-13 12c-2-4-6-7-8-12 4-7 10-10 18-12 2 0 2 1 3 2l9-2c1-4 0-10 7-10z" class="st0"/><path d="M290 117.7c1 4 3 6 6 6l-2 4c-2 0-5 1-6 3 2 1 4-2 8-1l2 4c-1 1-2 3-5 4 8 3 23 0 23 10l-23-4c-4 2-14-1-17 2-5-3-12 1-16 5 0-2-1-3-3-5 2-7 7-13 14-14 1 2 4 3 2 6h6c0-2-2-6-1-8-4 1-13 0-10-7 5-4 12-5 22-5zM120 105.7l3 6c5-2 10-2 16-1 5 4 13 8 16 16 2 6-4 20-10 22-2-1-3-3-4-6-5 1-2-7-8-7 3-3 0-5 1-8 2 0 3 0 4-2-4-1-10 0-13 4 1 4-1 5 1 8-2-1-4 3-2 5-4-3-9-5-9-13l-8 4c-3-4-8-8-4-15 5 0 8-3 13-4-1-3-1-10 4-9zm29-7c11 1 16 9 24 13 0 7 6 7 8 12l-9-7c0 2 1 4 3 4-1 2 1 5 2 7h-1c-1-4-5-3-8-4-6-3-15-11-19-15-2-3-4-7 0-10zM233 143.7c-2 0-3 0-3 2-2-1-1 2-4 2l4-5c-5-1-6 4-10 3-1-3 1-3 2-4v-1c-3 2-6 2-7 5-3 0 1-2-2-2 3-11 15-12 17-24-7-5-14 2-20 2-5 4-11 5-15 8-2-2 1-2 1-4-1-1-2 1-2 2-3-2-4 1-8 0 1-1 3 0 2-1-12-9 1-18 10-19v-1l8-1v-1c-2-2 7 0 7-3 1 0 2 0 2 2h2c0-3 5-3 6-2h-2c0 2 2 1 3 1 3-2 7 3 10 4l-1 2 3 1c-1 1 1 2 1 3 10 7 2 20-4 29l2-1c1 3-4-1-2 3zm7-18c0-2 1-5-1-5l1 5zM380 126.7c2 0 1 2 1 3l-1-3zm0 4v2-2zm0 3c-1 4-6 10-10 14-8 1-13-4-19-6l-10 5v1c-5 0-7-7-7-12l2-10c5 3 3 10 4 15 3 1 5-1 7-1v-5h-3v-5l8-2c-3-2-8 3-9-1 1-2 1-4 3-4l-3-2v-3l6-2v-4l-9 6h2l-16 11c-1-5-4-8-7-11l1-1c3-3 6-3 10-6l16-11 6-1 2 5c7-1 14 6 14 13l-6-2 1-1-8-6c-3 2-2 4-1 7 10-4 8 13 2 16l-1-4c-2 1 0 3 0 5l-7 2 4 3v-3l5-1c2 3 2 7 7 7 6-4 4-16 10-20 1 1 2 4 1 7l1-1v3l1-1 1 7 2-1zm-30-12c2 0 6 0 5 4 2-1 2-4 2-7l-7 3z" class="st0"/></svg>