<svg xmlns="http://www.w3.org/2000/svg" xml:space="preserve" id="レイヤー_1" x="0" y="0" version="1.1" viewBox="0 0 393 158"><style>.st0{fill:#231815}</style><path d="M383 143c-2-1-4-1-5-3h1l-2-1 1-2c1 0 0 2 2 1v-1c-2-1-4-3-3-5l-3-1c-2 1-4-2-5 1-1 0-2-1 0-1l-3-1 6-2 3-1h2l2-1c-3-13-14-2-19 2-2-1-5-1-7-3l2-1c-1-3 4-1 3-4 12 2 5-13 6-20l-2-5-8-1c-2-3 0-6 0-8h1c3-1 0 2 3 2 2 4 6 5 9 8l4 2c2 0 3 2 4 1v-1l-4-1c1-1 3 1 3-1l-2-1 1-1 2 2 2-3c-1-1-4 0-2-2-2-1-3-3-6-3 0-2-4-1-2-4l-4-1c-3-6-12-4-13-9-2 1-4 0-4 2-3 0-5 3-6 5-2 0-3 3-4 3-3 4-5 6-9 8l1 2-1 2-3 3h-2l-1 2h-1v2s-2 0-2 2c-3-1-4 2-5 4l1 1-1 1c1 0 3 1 2 2 1-2 2 0 3 0l-1 3 2-2v3-1h2l1 2 2-3c2-1 2-4 5-5v-1c-2-1-2 2-3 2l-1-1 3-4v-1h1v1l3 2v2c-3 10-9 20-5 30 4 2 8 5 12 2 1-5 8-2 9-6l8 6 6 3c3 3 9 0 12 1 2-1 5-1 6-3-1 3 3 1 4 3l-1-3zm-66-31v-1 1zm8 0h-1v-1h1v1zm3-9h-1 1zm16-11-1 1v1l-1-2-3 1c1-1 3-3 5-1zm-10-1 2 1-1 1-1-2zm2 9v-1l2-1c0-3 4-1 4-3l3-2c0 5-7 4-9 7zm10 28v3l-9 1 4-11c1 3 3 5 7 5l-2 2zm1-11v-1l-6 3c-1-3 2-5 0-8 0-2 4-3 6-6 3 0 5-3 8-2l1-1c0 1-1 4 1 5l1 4c-4-5-11-5-15-1-2 3 3 4 4 6 4 0 8-2 11-3 1 2-2 3-2 5-3-1-6-2-9-1zm6 8z" class="st0"/><path d="M318 121c-7 2-13 6-18 9-5 1-8-2-12-4h2c-1-3 3-2 2-5l4-1c2-3 4-2 6-4 3 1 2-3 3-4l-1 1v-2h-10c1-6 0-5 5-6l-2-2c2-1 1-3 3-3l-4-3c-8-1-16-1-22 4l3-6c0-2 2-1 3-2 4 0 10-1 14 1h11c2 4 1 8 2 12l3 2c4-10 7-20-7-20-3-5-5-12-11-13-3-4-6 0-8 2l-2 6v2c-3-1-5 1-8 1-2 0-3-2-4 0-5 1-8 8-12 11-4 4-4 6 1 8 3 0 2 4 5 5 4 1 6-5 9-6l2 2h8l-1 4c2 2-1 4 0 4-2 3-1 6-1 8-2 2-3-1-4-1-2 0-4 1-5-1l5-4v1-1c2-1 3-1 3-3-1-3-4-3-7-3-6 2-11 9-13 13-4 1-3 6-5 8v1c1 2 5 3 7 2 1 0 1 2 2 1l1-3c0-1 3-2 2-3 8-4 16 9 23 11 2 2 5 1 7 3 5 1 10 5 16 4 0-3 3-1 3-3-1 1-2-1-1-2h1c-1-2 2-4-1-5 1-2-3-1-2-4l1-1c-1-4 5-7 4-11zm-44-18v-1 1zm11 22v-1 1zm1 0h1l1 1-2-1zM157 101c0-2-2-4-3-5 0-3-4-5-5-6-4-4-9-1-14-2-3 3-8 3-11 6-4-1-6 3-8 4-1 3 1 5 2 8l5 3c2 0 2 3 4 3 3-3 8 0 10-4h1c-5 10-11 20-20 27-2 2-8 3-7 7 4 4 8 1 10-3l2-4h1c1-1 4-2 2-3 1-1 3-2 4-1 3-1 5 4 7 5l1 1c5 4 9 7 14 9l4-4c-1-2-3-3-2-4-3-6-12-7-14-14 2-1 3-3 6-3 0-4 4-6 5-9l3-3 2-3c2-2 1-4 1-5zM78 115v-1 1zM73 91h3l-1-1v-2l-1 1c0-2-2-2-3-2-3 0 0 3-4 2l1-1-2 2-11 4c-2 3-6 2-8 5-4-1-6-6-10-5-4 2-6 6-9 8-14 38-9 41 29 41 6-1 10 3 14 0 2-1 3 1 4-1 4 1 1-4 3-5l-1-1c-1-1-2-5-1-7l-1-2 2-8-1 1-1 2c-2-2 0-3 1-5 0 1 2 2 1 0h-1v-1l1 1 1-2-2 1c-2-2 2-2 2-4h-1c1-1 0-4 2-6l1 1c1-7 1-3-2-9-6 2-1-5-5-7zm-2 9-1-1c-2 3 0 4 0 7l1 2-1 6c1 2-3 4-2 6-1 4-1 8-3 11 1 2-1 3-1 3v1l-2-1c-3 1-6-3-8 0-1-2-5-2-7-1 0-3-6 1-7-2h-2c0-9 7-14 8-23-1-3 2-4 2-7 1-1 4-2 4-4 6 1 11-6 16-3l-1 1c2 0 2 2 4 0h1c-3 1-1 4-1 5z" class="st0"/><path d="M195 123c-1-3 1-7-3-10h1c-2-3-6-7-9-8 2 0 3-3 5-1l-2 1 3-1c-1-1-2-2-3-1 0-2-3-1-3-2 0-2 0-3-2-3 0-1-2-3 0-3l-1-1c-2-2-4-2-7-3 0 2-3 1-2 3-2 2 0 4-2 6-2 3-1 7-2 9h1v1h-1l-1-1v2l-1 1c-10 6-11 8-1 14 1 1-1 3 1 4-3 3 0 5 1 8 2 0 4 1 6-1l-3-1 2-1 2 2c1 1-1 2 1 2v-2l4 3 2 4-1-16c2-3 1-8 4-10 2 2 3 5 2 8 0 1-3 0-2 2-4 0 1 2-1 4 1 3 5 4 7 5 0-2 3 0 1-2l1-1h-1c4-1 0-4 2-5l1-2-1-1 2-1v-2zM210 107c-1-1-4-4-2-5-2-3-5-6-9-8-2-3-5-3-8-2l-4 3 1 1c7 4 10 12 18 13l4-2z" class="st0"/><path d="M327 94z" class="st0" transform="matrix(.00835 -1 1 .00835 230 420)"/><path d="M324 95h1v1h-1z" class="st0" transform="matrix(.00853 -1 1 .00853 226 419)"/><path d="M381 97zM184 96h-1 1zM324 97v1zM249 107c-4-6-13-8-21-7l-2 1c-1-1-2 0-2 1-3 1-9 4-11 8-3 3-11 7-7 12 2 3 5 1 7 3 3 1 5-2 7-4 7-1 10-8 17-7 3 3 3 8 0 10-2 7-10 8-13 13 0 2 6 3 8 2l20-16c2-5-1-10-2-15l-1-1z" class="st0"/><path d="M319 101z" class="st0" transform="matrix(.00583 -1 1 .00583 216 420)"/><path d="M317 103v1z" class="st0" transform="matrix(.00589 -1 1 .00589 211 420)"/><path d="M329 106zM329 108h1-1zM168 110zM328 113h-1v1l1-1zM328 114l1 1-1-1zM327 115v1-1zM108 117c0-2-3-2-5-3-1 3-3 1-5 2-7 2-11-2-16 3-2 2 3 3 3 5 2 0 3 3 5 3 2 2 3 1 5 2l2-2c3 0 3-2 7-3l2-2 1-1 1-1c0-2 2-2 0-3z" class="st0"/><path d="M76 132h1v1h-1z" class="st0" transform="rotate(-90 77 132) scale(1.00001)"/><path d="m78 58-1-1c-3 0-9-1-11 2-3 2-2-3-5-4 0-2 2-1 3-1l9-4c2 2 3-3 6-1 3-2-2-3-1-6-3-1-6-3-8-1-4-2-7 2-11 1 3-4 1-10 5-14 4 2 6-3 8-5-2-5-6-8-11-10-7 11-10-6-16-4-6 3-1 9-1 14-5 2-10 4-15 1-16 5 8 26 17 17l1 6C40 53-4 62 5 72c5 5 9-1 14-2 2 1 3-4 4-1 2-2 4-3 7-3 2-3 7-2 10-3 0 7 3 24 13 16-2-3 1-8-1-11 2-3-1-7 2-11 4 4 3 11 5 17 1-2 2 2 3 0 3 0 4 1 5-3l4 2c4-4 6-2 10-5l1 1 1-2c0-3-1-4-3-7 0 0 0-3-2-2zM148 53c1-3-1-6-2-8-3 1-4 4-7 6-4-4-7-11-9-17l5-5c0-3-3-3-3-5 1-2-3-2-3-4-6 4-4-6-10-1 2 5 0 7-3 8-21 6 3 11-7 35l-3-5h-3c-2 0-1-2-2-3 1-3 5-3 6-6l-4-7c-5 1-5-6-8-7-6-3-5 5-2 8 1 5-8 4-8 10 1 3 2 4 5 6 5 0 5-3 6 3-4 2-8 3-8 9 4 10 9-1 15-1 1 0 2-4 4-2 0 3 3 4 4 6 5 1 4-4 7-6 0-3 3-6 5-8 3 5 0 11 0 15 1 1 1 3 3 3 2 1 3-1 4-3l3 2c1-4 4-6 6-9 3 3 6 4 9 5 2 0 1-2 1-3-1-2-1-6-5-4-4-5 3-7 4-12zm-17 10c0-6-3-10-6-12l-4 1c1-4 0-9 3-13 4 6 8 11 10 18l-3 6zM222 48c-2-1-2 2-4 2l-9 10c-2 0-4-3-4-5-2-3 3-4 4-7l-1-1c3-1 3-5 3-8-2-1-5 0-5 2h-1l-5 7-6-12 8-9c0-3 2-4 3-6-4-2-8 3-12 3-4 4-22 7-11 14h1l2 2-6 9c-2-7 0-17-5-23-6-1-7 5-11 8-1-2-2-4-4-4 0 1-3 2-3 4-1 3 1 5-2 8l-3 27c0 5 5 6 7 10l1-2c6 0-1-7 2-11l5 6 9-2v8l2-1v-2c3-1 1-6 3-8-3-5 12-12 14-17 3 4 6 24-3 21-3 4 2 5 2 7 2-2 1 6 4 2l-1-1c6-3 5-9 6-14 2 2 4 7 7 8 1-3 7-3 5-7h1l3-5c-1 0-1 3-2 1 0-1 0-3 2-3l-1-1 1-2c2-1 1-5 3-6l1-2zm-48 7-3 1c0-1 2-4 3-1zm-7-12c3 1 0-3 4-2l1 6h-5v-4zm7 25h-2c6-8-2-8-9-7l-2 2c1-2 1-13 6-5 1 0 5 1 6-1 2 3 1 7 1 11zm18-20c-1-2-3 1-5 1-2 3-6 4-7 8v-3c5-2 3-8 7-8l3-4c0 2 2 3 3 5l-1 1z" class="st0"/><path d="M139 40c1-4 4 0 4-4l-3-7-4 1c-5 4 2 8 3 10zM193 56v1l-1-1c-4 3-12 7-10 14 4 1 6-6 10-7 2-2 2-4 1-7zM24 71c-7 5 2 12 6 13l2-1c1-1 3-2 2-5-3-2-6-7-10-7zM179 75h1-1z" class="st0"/></svg>