<svg xmlns="http://www.w3.org/2000/svg" xml:space="preserve" id="レイヤー_1" x="0" y="0" version="1.1" viewBox="0 0 393 158"><style>.st0{fill-rule:evenodd;clip-rule:evenodd;fill:#1e1210}</style><path d="M60 60c0-2-4-2-4-5-2 1-1-1-3-1-2-11 0-24-4-34-5-2-10-2-14-5v-5c5-2 12-2 17 1 2 1 2 4 5 4 1 2 1 4 3 5 2 12 2 25 1 36 0 2 1 3-1 4z" class="st0"/><path d="M25 39h7l-1-7c0-2-3-2-3-3-1-7 8-6 14-6 2 3 4 4 3 7-1-1-1 1-2 1 0-1-2-2-4-1-2 2-1 4-2 8 2 1 5-1 6-2l3 4c-4 2 4 8-1 12-4 0-4-3-3-6h-4v5c4 0 7 3 5 7 6-3 15-1 14 7-9-4-25 1-35 1 0-2-2-3-1-4 0-2-3-1-3-3h-2l-4-4c-2-6 0-27 4-32 0-2 3-3 4-5 6 4 7 13 5 21zm0 7c-1 4-3 10 0 13 4-1 8 0 11-2-7 1-8-5-3-7v-3c-2 0-5-2-8-1zM87 4c5 0 6 4 8 6 5-3 6 2 9 3 0 1-4 1-2 3l-4 1 1 6 3-2c3 1 4 3 4 5-4 3-8 2-12 5 0 2 2 4 1 5 1 2 3 0 5 0 1 0 1 2 3 2-2 4-8 2-8 8h3c6 5-1 5-3 9 2 2 6-4 9-1l1 1 1 2c-3 3-7 5-12 7l-1-1-4 3-4-2v-3l8-4c0-2-3-1-4-3-3 1-4-1-6-1l1-4 4-1v-2l-3 1c-1-2-2-3-4-3-3-2 0-7-1-9-3 0-4 3-5 2 1 2 1 20-2 20 1 1 2 0 1 2-1 1-2-2-3-3h-2c-1-8-2-16 0-22 5 0 7-4 12-3 1-3-1-7-2-10-5 1-11-2-7-6l15-3V4zm-2 17c0 2 0 6 2 7 1-2 2 0 5-1v-7l-7 1zm-1 12 2 7 3-1 1-8h-2c0 3-3 1-4 2z" class="st0"/><path d="m103 14 2 2c-1 1-3-1-2-2zM127 29c4-2 8-5 14-6 7 4 9 9 1 13l-10 7-4 3v6c8-2 15-5 19-10 2 0 2-2 3-1l7 4c1 3-1 3-1 5h-2c-11 4-24 19-37 8-2-5-1-9-4-13V27h1l-1-3c4-7 11 1 14 5zM176 34v11c7 1 16-9 21-13 2 0 5 1 6 4-2 3-8 3-7 6-3 1-5 4-7 6l1 2-2-1c0 4-6 6-9 10-4-1-7 1-9-2-11 2-8-16-10-23-1-16 10-6 16 0zM140 125c4 2 3 5 3 9-7 5-31 18-40 13-19 0-17-26-12-37-1-2-2-3-1-6 2-2 4-1 6-4 12-2 16-11 24-17l1-3c-2-2-5 1-6 0-8 6-16 8-20 17-1-1 0-3-2-4h-7c-2-12 9-16 16-21 6 1 12-3 21-1 11 3 15 16 5 22 4 5 9 7 9 14 0 2-4 14-7 15-6 1-4-1-8 4-8 2-13 6-23 4-1 4 1 9 3 12 18-1 31-3 38-17zm-25-21c2 3 5 7 1 12 3 0 5-2 7-1 1-5 3-8 3-13-2-2-4-1-6-2 0 3-3 3-5 4zm-15 7 2 8c-2 0-2 2-2 3l9-2c-5-2 0-9-3-13-2 2-4 1-6 4zM208 65c0 6 0 10-4 12 2 4 2 11 0 12-8 1-10 0-17 2 2 3 7 3 9 6 4-1 7-2 9-4l5 2v7l-5 1c3 6 14 8 10 18-8-3-11-9-18-12-11 3-20 9-32 11-8 6-3 19-10 27-6-5-8-14-3-23-7-1-10-9-3-13 11-3 10 0 14-11-4-1-10 0-12-5 1-5 6-7 10-9-9-9-3-25 6-12 4 1 5-2 7 1 2-3 2-6 8-5 0 3 2 4 1 7l10-8c5-2 10-12 15-4zm-35 39c2 0 7-1 9-3-2-1-5-3-3-6-4 2-4 4-6 9z" class="st0"/><path d="M202 117c4 11-7 12-12 19 5-1 17-5 15 6-13-3-20 12-33 7 1-2-2-4-1-8 4-5 12-7 16-13-1 0-10-2-9 3-5-3-1-7-1-12 6-3 18-6 25-2zM299 82c-1 3 2 4 2 6 6-1 13-3 20-3 3 1 3 5 5 8-3 8-5 18-11 26-4 1-6-1-7-3l8-21c-10-1-18 7-29 4-1-4 1-6 3-7-2-4 3-14 9-10zM272 93c5 0 12 3 9 8l1 2c-4 7-8 15-13 21-2-3-8-4-9-8l-1-1-1-5c0-2 2-2 3-4 2-6 8-8 11-13z" class="st0"/><path d="M306 113c-2 2-10 1-9 6 3 1 7 1 9 4l-4 4c-3 1-7 0-8 4 12 2 28-5 29 10-1 2-3 0-4-1-13-2-26 2-40 1l-4 5c-9-2-10-16-3-22 3 0 2 2 5 2v7h10l1-17c-6 3-9-2-9-7 8-6 28-10 27 4z" class="st0"/><g><path d="m62 79 6 1c1 2-2 3 1 2 1 2 0 2-1 2 3 3 7 7 11 7 3 6-6 6-8 11-12 4-75 1-59-22h14c10 6 31-12 36-1zM60 121l-3 1c1 1 6 0 5-1 2 2 6 0 9 0 2 2 3 4 7 4l-2 1 3 2c1 2 0 5 3 5 0 2-2 1-1 3l-5-1-4 4c-21 1-51 12-68-5 2-14 25-11 34-10 6-4 15-2 22-3z" class="st0"/></g><g><path d="M237 139c0 5 2 6 3 10-5 1-9 0-11-2-4 1-9-3-8-8 5-4 9 1 16 0zM233 130c-2-1-6-1-6 1-5 0-7-3-6-5 0-6 12-6 14-9-1-3-4 1-5-2l-8 2c-8-5 0-11 6-12-1-3 1-3 1-6 6 3 10 2 16 0 2 3 2 7 5 10l-7 3c2 3 5-2 8-2 2 4-1 8-3 10 0 2 2 0 3 1l-4 3c2 5 2 12-4 14-2-2-3-6-1-9-3-2-8 2-10 3-2-1 0-2 1-2z" class="st0"/></g><g><path d="m320 117-1-3 3-2v1c2 0 4-3 3-4 0-2 1 0 2 0 1-2-2-1-1-3 2-1 1 1 3 1l-1 3c2 0 1-2 3-2 0-2-2-3 0-5 1 3 1 1 3 0l1 4c3-2 1-8 5-8-1-2-3 2-4 0 2-4 6-3 8-7 2 0 3 0 3-2h2c2-4 8-10 16-7l2 6c8 2 17 7 16 16-2 0-3-4-5-2-3-5-9-6-17-6l3 7c2-1 4 1 5-1 9 4-1 16-1 24 4-1 7 0 7 5l-3 1c2 2 6 3 9 2 2 4 2 6 6 8l-2 2 2 1c-4 2-18-4-22-9-4 1-6 4-9 6 0 2 2 0 2 2-3 0-3 1-4 3l-4-5c-7-1-8-14-6-21 9-3 5 12 8 16 3-2 8-3 10-6-1-2-4 3-8 2l-2-2v-3c3-2 7-2 9-4 2-1 5 0 4-3l-13 3-1-5c4-2 14-4 14 1 2-3 2-8 2-11-3 1-4 1-5 4l-3-1c-3 3-9 7-11 1-6 4-10 9-14 14-1-2-4-2-4-4-2-1-2 1-2 2-2-2 3-4-2-6-1 4-3-4-6-3zm33-8 4-2-1-4-3 6zm12 19c2 0 2-3 0-3v3z" class="st0"/></g></svg>