<svg xmlns="http://www.w3.org/2000/svg" xml:space="preserve" id="レイヤー_1" x="0" y="0" version="1.1" viewBox="0 0 393 158"><style>.st0{fill:#231815}</style><path d="M102 60c1 0 3-2 4 0l2-2 1 2c5-3 11-9 10-15-1-2 0-4 1-6-4-3-7-7-11-8-2-6-25-10-32-13 0-3-1-10-5-9l-2 6-1 5c-7 1-12 5-17 8l-1-3c-3-2-4-8-9-8l-2 4c2 1 1 2 0 3-1 2 2 4 0 5l2 1h-1l1 1c0 2 2 4-1 6-1 1-2 4-4 4 1 2-2 2-2 4-4 5-8 10-9 16 1 2 0 5 3 6h-1l4 2c3 0 8 2 11 0 2 1 3-1 4-3 2 1 1-1 2-1l1-4 2 2-1-1v-4c3 1 1 5 2 6 1 0 2 1 1 2l-1-1c-1 1 1 1 1 2 1 0 1 2 2 0l1 2c1-1 0 1 1 1 2-1 1 3 3 1v1c2 1 4 5 7 5-1-1-3-2-2-3 2 0 1-2 2-2v1c1-1 2-2 3-1l1-2c-3-2-3-4-5-6s-1-5-2-6c-2-1 1-3-1-3-2-6-8-11-8-17 3-2 7-5 11-4 4-2 1 3 3 4v2c-1 1 2 3 0 3l1 1c-2 2 0 6 1 8h2l-1-1c1-1 1 1 2 1l-1-1 1-2c1 2 2 0 4 0l1 1V33l14 4c1 2 7 0 7 4l-5 7c-1 6-8 4-11 8 0 1-3 2-2 4 0 2 2-1 2 2 0-2 1-1 2 0l1-1-1-1h4l-1-1h3l-1 1h2c1-1 2-3 4-3 3 2 3-1 5 0l-2 1c2 1 0 2-1 3h1l1-1zM68 71h1-1zm0-1h-1 1zm-7 0v1-1zm32-11zm1 0zM52 63v1-1zM125 30c10 3 13 0 13 13-4 1-10-1-13 3-2 6 0 5 3 8h1l1 1 10-1c3 0 1 2 1 4-4 2-9 1-14 2-3-4-4-1-5 2 0 5 5 9 9 11 2 2 3-2 4 0s3-1 5-1c11-4 1-12 15-6l2-2-1-1h2c0-2-2-2-3-3-2-2-5-1-7-3l1-1h-1c1-2 1-4 3-5l-1-2h1c0-1 2 0 2-2l-2-1-5-4-1-7c1-3 3 0 4-1-1-2 0-4 2-4-3-2-3-5-6-6-2-3 0-8-3-10-2-1-3-3-5-3-3 2 1 7-2 8l-1-1h-3c-5-1-9 1-9 6 1 2 0 5 3 6zm9 38v-1c2 1 3-3 6-2-2 1-3 3-6 3zM196 59c5 7 7 0 9 3 2-1 2 1 4 1-1-4 2-6 1-10 2-2 1-7 3-7 3 4 7 1 11 2v4h-10c-1 0-2 0-3 2-2 1 2 3 2 4s1 3 2 1h8c1 5-4 15 5 12l2-2V52l2 1h1l2-1 1 1 2-2 4-8c3 1 4 3 6 5l-1 1-13 10c-1 2 1 2 2 3 5 1 10-10 14-8l1-3c2 2 3 6 3 9 2 1-1 2 1 2 0 2-3 1-2 3-3 0-2 4-5 3-2 2-5 2-4 6 1-1 2-2 3-1 0 1-2 1-1 2l2 1c-1 2 2 0 1 2 2-2 3 1 4 0v-1l2-1c2 1 3-3 5-2 1 4-2 5-3 7 3 0 4-6 7-4l1-2-1 1v-1l1-1c4 0 2-8 3-10h2c9 1 17 9 24-2-2 0-3 3-6 2l1-1-1-1c0-1-2-2-1-3h-1l1-2-1-1h1l-1-2c2-1-1-3 1-4 0-1 3-3 3-5-1-2 3-2 1-4l-11 9c-1 2-4 2-6 3l-2-1v1l-2-1 2-2c0-2 8-2 3-5l1-1-1 1c-2-1 0-1 0-2-2-1 1-2-1-4l1-1h-1l-4-4c-2 1-2-2-4-2l-1 2c0-1-1-1 0 0-1 2-2 0-3 1h2l-7 10-10-8s2-2 0-2l2-1v-1l3-3c-1-1 1-1 1-2h7v-1l5-1 3-2c-1-2-3-2-5-3-3 1-1-4-4-3 0-2-2-1-3-2-8 1-16 4-23 9 1-3-1-7-3-9l-6-2c-1 0-3 3-4 1h-1l-1-1c-1-2-4-3-6-3-5 0-5 6-7 8l-2 3v1l-1 2c0 1 1 3-1 3v2c-2 11-6 19-5 29zm50 13h-1v-1h1v1zm1 3v-1 1zm-15-35V29l1-1c-1 3 2 4 3 5l4-1h1c-3 6-8 10-10 15l-1-3c2-1 1-3 2-4zm-18 0 1-4c2-3 3-7 6-7l1-1c2 3 1 8 1 12-2 1-4-2-6 0-1 1-3-1-3 1v-1zm0 2zm-1 1v2-2zM192 71v-3l-1-3h2c-2-1 0-4-3-5-2 8-11 10-18 7-4-2-4-7-5-11 2-1 4-5 7-4l1-2s2 1 1 2c1-1 3-2 4 0v-2c2 0 1-2 2-3l-1-1 9-4v-3h1v-1c-2-1-4-4-7-2l2 1h-3c0 2-3 2-4 3-2-5-6-10-11-11-2 2-3-3-4 0v-1c-2 0 0 4-3 4l8 15-2 3c-1 2-4 4-3 7-6 4-1 14 5 16l8 2 6 1c4 1 5-4 9-5zM175 53l-1-1 1 1z" class="st0"/><path d="m250 56-14 11c2-1 1 2 2 2 5-2 9-7 14-8 0-1 2-2 1-3 0-2-1-2-3-2zM343 127v1-1zM357 101h1-1zM362 141v-1l-1 1-13-3s-2 0-2-2l-6-3-1 2c-1 1-2 1-2 3h-4c-2-8 5-2 6-7 0 0 1-2-1-2l5-2h1l3-2 1 2 4-3c2-6 2-13-1-20-2 0-4-2-7-1 1-3-2-6 1-9l6 5c2 1 3 2 5 1v1h1v-3l1 2h1v-2l-1-1h2l-13-12-1-1c-2 0-1-1-2-2v1l-2-4c-2-1-2-4-5-5 0 1-1-1-2 1l-4 1-8 11h-1l-1 1c-1 2-3 5-6 6 1 3-2 4-3 5 0 1-2 1-1 2-2 3-6 6-6 10 1 2-1 8 2 7h-1v-2l2 1 1-1c2 3 2-3 4 0l1-1 2 1 2-1c-1-1 0-2 1-3v1-1l1-1 1 1 4-2c1 0 2-3 4-3l1-2 1 1c-1 3-3 4-5 4v1c-1 1-3 2-1 4 7 1 12-3 17-5 1-2 3-2 4-2 3 3 3 6 3 10s-5 4-6 7l-4 2-7-1v1c-3-1 0-3-3-4 1 0 2-2 2 0l13-1-2-2c0-2 1-2 2-2-1-3-5-1-7-2-4-1-5 1-7 3l-1 3c-2 1-1-4-5-4v1c-4 2-4 5-4 8l2 2c-1 1-2 0-2 2-1 1 1 2 2 3v-2c2 1 0 4 1 5-3 6-2-2-4-2v2c1 2 2 5 1 6l5 4 1-1 2 2 1-1 1 3c2 0 2-4 3-2h1l1-2h-1s-1-2 1-2c-1-2 2-2 3-3 2-1 2 2 4 1l5 3c2-1 2 3 5 2l3 1v1l2 1c2-3 6 0 8-1 1-2 3-3 1-5h2v-2l-6-1zm-28-34c1-1 4-6 4-2-1 2-3 1-4 2zm-13 34v-2h1l-1 2zm31 1h-1v-1h1v1zM265 101l11 2c5 2 12-1 17 3l5 8c2 0 4 0 5-2l-1-2c3-1 1-5 4-5 0-5-5-7-8-10-5-4-13-1-12-9-2-2 0-5-4-6l1-1c-4-3-8 1-11 3-2 1-1 3-3 5-2 4-7 0-10 2-10-3-18 14-17 22 0 4 4 1 5 4 0 4 4-1 5 2 2-1 2-2 2-4 2 0 2-3 3-4l4-4c0-3 2-3 4-4zM84 127l-2 1c-10 2-19 5-29 3-1-2-4-10 0-10v-3l7-6c2 1 2-2 4-1 3-7 27-8 16-17-10-2-5-8-20-2-4-2-4 4-8 3-3-5-1-6-6-9-3 2-7 3-6 7l-1 1v1l-1 1-3 28v3c3 6 3 15 11 16 6 8 23 1 30-2 3-4 7-1 9-4l2-6c-2-1 1-6-3-4zM175 112c-2 0-4-2-5-4-3-1-7-2-9-4-2-1 1-3 0-5l1-4c-1-4-3-7-6-9-2 0-2 3-5 4l-4 11c-3 4-10-2-14 13 0 1 2 1 1 3l6 2c0 2 2 0 3 1-1 6-4 17 4 19v-1l3 1v1h2l2-7c-1-4 2-7 2-10 1-1 0-5 3-4 3 2 3 5 3 8 1 2 0 6 3 7l2-1c2 1 4 3 7 2 3 1 4-4 6-6 2-4-1-7-2-11-1-2-4-3-3-6zM129 116h-1v-1c-6 4-13 11-21 15-1-13 2-30-9-37-11 4-8 18-10 27h1c1 1 0 2-1 1l1 3 2 13v1-1h-1l1 2c2 0 1 2 0 0v1c0 2 2 4 4 4 4 0 4 3 7 5v-2l4 2v-1c2-3 2 1 3 2v-2l5-3 2-4c5-2 3-7 6-5l4-4c-2 2-5 4-8 4 0-2 2-2 2-2v-1c2 1 2-2 4-2 1-3 4-3 5-6-2-2 0-3 0-5v-4zM191 116c-2-3 1-5-1-7 1-2-1-3-2-5-3-5-7-7-11-11-2-1-4 1-6-1l1 1c-3 1-2 4-3 6 5 11 9 16 22 17zM236 122l-1-2c0-3-2-3-3-5-1-1-2-3-4-3l-2-1c-9-8-19-4-28 2-5 1-6 7-9 11-1 1 1 3 1 4 2 3 8-1 10 4 5-4 11-8 18-10 4 9-8 16-5 20l1-1v1l4-3c2-3 5-1 7-4l1 1c0-3 4 0 4-3 2 0 3-3 5-3 3-4-1-9 1-8z" class="st0"/><path d="M304 139v-3c-1-2-3 0-4-1h-7c-4-2-11-2-13-6 3-3 8-3 11-7-1-1 1-3-2-4l-8 1c-1-4 0-3 3-4s0-4 0-5c-2-7-12-5-18-6-1 1-1 3-3 3v2c0 3 5 5 8 6v4l-2 6c-1-1-3 1-5 1l-2 2c-1 6 18 15 23 17v1c5 0 11 4 15 1l5-2v-1c0-2 2-4-1-5zM320 114c-1 0-3 0-2 1l2-1zM254 118c-7 6-8 9-12 16-3 2-3 6-2 9 1 2 2-1 3 0 2 0 2 1 2 2l1-1h2l-1 2 2 1c-1-3 3-6 3-8l3-4c1-2 3-3 3-6-3-3 1-6-1-8h1c0-2-2-3-4-3zM359 133l1 1 1-1h-2l-2-1 1-1-1-1 3-1-1-1 1-1c0-2-2-1-3-2l-6 3c-1 2-3 5-1 7l1 1 1-2v2c3 1 1-2 4-1h2l-2 2 3-1v-3zM90 136v1zM91 137z" class="st0"/></svg>