<svg xmlns="http://www.w3.org/2000/svg" xml:space="preserve" id="レイヤー_1" x="0" y="0" version="1.1" viewBox="0 0 393 158"><style>.st0{fill:#231815}</style><path d="M84 61c1 0 3-2 4-1l2-1 1 1c4-3 11-8 10-15-1-2 0-4 1-6-4-2-7-7-11-8-4-6-24-9-32-13 0-3-1-9-5-9-2 2-2 4-3 7 0 1 1 3-1 5-6 0-11 4-16 7l-1-2c-3-3-4-8-9-9l-2 5v2c-1 2 2 4 0 5l1 1v1h1c-1 2 2 4-1 6-2 2-2 4-5 5 2 2-2 1-1 3-4 5-8 10-10 17 2 2 0 4 3 5v1c2 2 12 3 15 2 2 0 3-2 4-3 2 0 1-1 2-2l1-4 2 3-1-1c1-2-2-3-1-4 3 0 2 4 3 5l1 2-2-1 2 2s1 2 2 1v1c2-1 1 1 2 1 2-1 1 3 3 2 2 1 4 6 7 5-1-1-3-1-2-3 2 1 1-1 1-2l1 1 3-1v-2l-5-5 1-1c-2-1-1-4-2-6-2 0 1-2-2-2h1c-2-7-8-11-8-18 3-1 7-4 11-4 4-1 1 4 3 4v2l-1 1c0 1 3 2 1 3h1c-2 3 0 6 1 9h2l-1-2 2 2v-1l-1-1 1-1c1 1 2 0 4-1 0 1 0 2 1 1V33l14 4c1 3 7 0 7 5l-5 7c-2 5-8 4-11 7 0 2-3 2-2 4 0 2 2 0 2 2h2l1-1h-1l4-1-1-1 2 1v1h2v-1l4-3c3 2 3-1 5 0v1h-2c2 1 0 3-1 3h2zM50 71h1v1h-1v-1zm0-1v1l-1-1h1zm-7 0v1-1zm32-10v-1 1zm1 0v-1 1zM34 64zM107 30c10 4 13 0 13 14-4 1-10-1-14 2-1 6 0 6 4 9l1-1v1h11c3 0 0 2 1 3-4 2-9 2-14 2-3-3-4 0-5 2 0 6 5 9 9 12 2 1 3-3 4 0 1 2 3-1 5-1 11-4 1-13 15-7l2-1-1-1 2-1c-1-4-8-3-10-5l1-1-1-1c1-2 1-4 3-5l-1-2h1l2-1-2-1v-1c-1-2-3-2-5-3l-1-8c1-2 3 0 4-1-1-2 0-3 1-4-2-1-2-4-5-5-3-4 0-8-4-11-1 0-2-3-4-2-4 1 1 7-2 7h-1l-3-1c-5-1-9 1-10 7 2 2 1 4 4 5zm9 39-1-1c3 0 4-3 7-3v1l-6 3zM178 60c4 7 6-1 9 3 2-2 2 1 4 0-1-4 2-6 1-10 2-2 1-6 3-7 3 5 7 1 10 2l1 4h-10l-3 2c-2 2 1 3 1 5 1 0 2 2 3 0 2 2 5-1 8 0 1 5-4 15 5 12l2-2V52l2 1 1 1 2-2 1 1 2-2 4-7c3 0 4 2 6 4l-14 11c-1 2 1 2 2 3 5 1 9-9 14-8l1-3c2 2 3 6 3 9 2 1-1 2 1 3-1 1-3 0-2 2-3 1-2 4-5 3-2 2-5 2-4 6h2v2h2c-1 2 2 0 1 2h4l2-2c2 1 3-3 5-1 1 3-2 4-3 7 3-1 4-6 7-5l1-1h-2l2-2c4 0 2-7 3-10h1c9 1 18 9 24-1-2 0-3 3-5 1l1-1h-1v-1l-1-2-1-1v-2h-1l2-1-1-2c2-1-1-3 1-3l3-6c-2-2 3-2 1-4l-11 9c-1 2-4 2-6 4-1-1-2 0-2-2v1l-2-1 2-2c0-2 7-2 3-5v-1l-1 1c-1-1 1-1 1-2-2-1 1-2-1-3l1-2h-1l-4-4c-2 1-2-2-4-2l-1 2-1 1h-2v1h1c-1 4-4 6-6 9l-11-7c1-1 3-3 1-3l2-1h-1l4-4c-1-1 1 0 1-1l7-1v-1l5-1 3-1c-1-2-4-3-5-3v-1c-3 1-2-4-4-3l-4-2c-7 2-16 4-22 9l-3-9-6-1c-2 0-3 2-4 0h-1l-1-1c-1-2-4-3-6-3-5 1-5 6-8 8l-1 3v1l-1 3c-1 1 1 2-1 3v1c-2 11-6 19-5 30zm50 12h-1 1zm1 3zm-16-35c0-3 2-7 1-10l1-1c-1 2 2 3 3 5l4-1h1c-3 5-8 9-10 15l-1-4c2 0 1-3 1-4zm-17 0 1-4c2-2 3-6 6-7l1-1c2 4 1 9 1 13-2 0-4-2-6-1l-3 1v-1zm0 2v1-1zm-1 2v2-2zM174 72v-3l-1-3 2-1c-2-1 0-4-3-4-2 7-11 10-18 6-5-2-4-7-6-10 3-2 5-6 8-4l1-3c0 1 2 1 1 2 1 0 3-1 4 1v-3c2 0 1-2 2-2l-1-1 9-5v-2h1v-2c-2 0-4-3-7-2 1 0 2 0 1 1l-2 1c-1 2-3 1-4 2-2-4-6-10-12-11-1 2-2-2-3 1v-1c-2 0-1 3-3 3l7 15-1 3c-1 2-4 5-3 7-6 5-1 14 5 16 2 2 6 1 8 3h6c4 1 5-3 9-4zM157 53h-1 1zM22 31v1-1z" class="st0"/><path d="m232 56-14 12c2-2 1 1 2 1l14-8c0-1 2-2 1-3 0-2-2-2-3-2zM271 60z" class="st0"/><g><path d="M268 118c0-4 3-7 4-10 3-2 1-7 4-10h21c3-1 7-2 9 1 0 3 3 5 4 8 1 2 0 5 2 7h5c1-4 2-9-1-12 1-4-3-7-5-10l-9-2c-3-1-1-4-2-6-5-8-13-9-16 2v4h-10c-2 3-6-2-8 1-5 3-7 7-10 10l-2 3c-2 2-1 4-1 7l8 5c3-1 4 5 7 2zM384 147c-2-5-7-2-10-4-2 1-3-2-5-1-3-3-6-3-9-5-2 1-5-1-6 2-2 0-4 2-5 1-1-2 1-3 1-4v-2h7l1-1c2 1 3-2 5-1l5-3c2 0 2-1 3-3 1-10 5-28-11-23v-8l19 7v-3h1v-2l2-1c-3-5-9-5-13-8h-1l-6-3c-4 0-8-4-12-1l-13 11c-1 0 0 3-2 2 0 2-2 3-4 4v1c-3 2-4 6-8 8l-1 2v3l3 1c1 2 4 1 6 3 2-1 4 1 6 1l1 3c-2 2 2 8-1 10l2-2 1 1c-2 1 0 2-1 3l-1-1-1 1-1 4 1 7c1 4 5 3 6 5 3 2 4-1 6-2l3 2 1-2h-2c2-2 1-5 3-6 8 5 17 9 27 11l1-1c1-2 5 0 6-1-3 1-3-3-4-5zm-40-35 3-6 5-5 1 5c-2 2-7 3-9 6zm9 3c0-2 2-1 3-2 1-2 4-2 6-4 4-1 1 4 2 6 1 5 2 10-3 13h-11l-2-8 5-5zM155 93c-8-5-19 0-28 2l-3 2h-1l-5 2c-1 1 0 2-2 2v2c0 2 1 4 3 5 0 1 2 1 2 3 4 1 7 3 11 3 3 0 10-8 11-4-4 15-15 27-30 31-2 0-3 2-3 2-4 2 1 4 1 6l4-1c2-2 5 0 7-3l5-4c2 1 4-2 6-2l-1-1h4c1-2 1-3 3-3 5 7 10 12 20 12h4c-2-4-2-8-7-10l-11-7 1-1 6-8c1-1 2 1 2-1 1 0 4 0 2 2 3 2 3-2 5-3 0-3 3-5 3-9 5-5-4-8-5-12l-4-5zM53 102zM81 122v1-1zM81 123zM84 141l1-2c-2-2-2-3-2-5l-1-1 1-2c0-1-2 0-2-2h1l-1-4v-2l-1 1-1-1-1-3c2-1-1-3 1-4h-2l1-2v1-1c2 0 0-3 2-3v-2l-1-1v-4c-2 0-1-2-2-3h2c0-2-2 0-2-2-2 0-3-3-6-2-1-2-3 0-5-1-1 2-3-1-5 1-1-2-2 0-3 0h4c1 1 4 0 4 2l-4 1c0 2-3 0-2 1h-3v1c-2-2-3 0-4 0h1l-1 1c-2 0-2-4 0-5v-1c-1 0-2 2-3 1v-1c-1-1-2-4-5-3-2-3-5-1-8-1-3 1-3 5-5 8-3 2-2 6-4 8l-4 10v1c-2 2-1 5-2 8v6l-1 1h1v6c5 7 15 9 23 10 13-2 26-2 41-2 1-1 3-2 1-4 3-2 1-3 0-5-1 1-1 2-3 1zm-13-20c-2 4-1 11-3 16H55l-11-1c-7 0 0-8 0-12 4-5 4-12 7-17 4-3 10-3 15-3l1 1c3-1 2 3 4 3v13zm8 3h-1 1zM205 107c-2-3-5-5-8-4-1-2-3 1-5 0v-3c2-2-1-3-1-5l-5-2c-1 1-3 2-2 4-2 2-1 5-3 7v5c-4 3-12 2-10 9 2 3 3 6 6 8v2c1 5 0 10 3 14l2 1c1-3 3 1 4 0-1-3 2-2 1-4v-4c2-10 0-11 11-15 0 1 2 1 1 2l1 12-9 5c-2 0 1 2 0 3h3l-1-1c3 1 6-2 9 0 1-2 3 1 5-1l3 2-1 2c3 1 3-4 3-6l1-6c1-2-1-3 1-4 0-5-1-11-5-15 0-4-3-4-4-6zM56 97h1-1zM228 115l-1-6c0-5-6-7-9-11-1-2-3-1-4-2h-2c-2-2-4 1-6 0l-1 4c1 4 6 5 9 9 3 1 6 4 10 4l4 2z" class="st0"/><path d="M327 143v-2l-3 2c-1-1-3-1-2-2h-1l-1-1c3-2-1-4 2-6 0-2-4 0-5-1-3 1-8 1-11 3-2 0-5-3-8-2l-2-1-1-1c1-4 7-5 10-7v-4c-2-2-5 0-8 0 0-3 2-6 0-9l1-2c2 1 3-3 6-1-1-2 2-2 1-2l-3-1c1-2-2-3-1-5l-17 2c-1 2-3 1-5 1l-3 3c1 5 5 7 9 7l1-1 1 1c-2 5-1 11-1 16-8 2-1-6-5-9-5-4-14 8-15 12s-5 7-4 11l1-1c2 0 0 2 2 2 1-1 3 2 4 0l-1 2 2-2 2 1c0-1 3-1 1-2l4-7c17 5 34 16 51 9l-1-3zM252 120v-1l-7-6h-8l-7 3-1 1c-5 2-6 8-11 10-1 3 1 6 3 7 4-1 7 1 10 2v-2l4-1 1-1c-1-1 1-1 1-1v-2c2 0 1-3 3-3h-1l4-3 3 1c-1 5 2 10-4 14 0 1-3 2-2 4l-1-1-1 2 1-1 7-2-1-1c1-2 2 0 2 0l2-3c2 0 1-2 1-3 2-1 1-3 2-3 1-4 2-7-1-10h1zM81 116l-1 3h1v-3zM117 130l-2-2c2-1-1-2-1-3 2-1 1-3 3-3l-1-1v-1l-2-2h2l-1-2-3-1-9 4c-5 2-13-4-13 5 5 8 20 9 27 6zM352 123l-1 1c3 1 6 3 8 0 1 2 2-1 4-1 2-2-2-2-1-4-3-2-9-2-11 2 0 1-1 2 1 2zM154 122l-2 2s3 1 2-1v-1zM371 135c-2-3-2-3-5-3l-2 4-1 1c2 2 3 0 5 1l1-1c2 2 1-2 2-2z" class="st0"/></g></svg>