<svg xmlns="http://www.w3.org/2000/svg" xml:space="preserve" id="レイヤー_1" x="0" y="0" version="1.1" viewBox="0 0 393 158"><style>.st0{fill-rule:evenodd;clip-rule:evenodd}</style><path d="M59 80c0 4 3 5 3 9 9 0 35-6 34 9 0 4-4 6-8 8-2-1-3-3-6-3v-4c-3 2-7 0-9 2-11-1-19 5-21 15h-1c-2-1-2-4-6-3l-1-8-6 3c-2-1-5-4-5 1-3-1-4-4-9-3-2-1-2-5-4-5-1-2 3-6-1-7 9-9 20-1 25 7 4-7 5-20 15-21zM262 93c5 5 0 10-3 14-3 3-6 8-10 10 1 12 1 16-1 27-8-1-7-10-6-21-4 3-7 5-10 10l-1-1c-2 1-3 2-3 5-3-1-3-3-4-4-2-1 0 1-2 1 0-2-2-1-2-2-1-7 5-7 7-11 10-7 19-15 27-25 3-1 4-5 8-3zM214 90c1 1 1 3 3 3-3 2 0 2 1 4-12 21-33-8-4-7zM170 148c-3-1-2-4-4-6-2 0-3 0-4-3 0-6 10-15 11-24 4-2 1-5 2-8-8-2-18 7-23-1 0-15 16-12 30-15 3 1 4 5 8 6 1 6 2 16-4 19-2 2-2 7-5 8 0 3-5 7-3 9-4 3-5 9-8 15zM136 94l1 1h-4l3-1zM324 104c-1 1-2 3-4 3 1-2 2-3 4-3zM301 108c-1 1 3 4 1 4 0 2 2 2 4 2-2 4-8 3-12 4l1 3 6-1c2 2 3 2 2 5-5 2-11 1-13 6 5 5 40-1 34 11-3-3-12-5-16-2l-1-2h-5c-1 1-8 3-11 0h-19l-4 7-4-4c2-8 6-12 9-19 7 0 4 6 2 9 1 2 5 1 6 1 3-4 2-8 4-12-1-1-2-2-3 0-2-2-4-5-3-8 7-2 16-4 22-4z" class="st0"/><path d="m88 120 4 8c-1 4-5 2-8 1-5 4 1 8 1 14-2 1-3 2-5 1-2 1-4 3-4 8-2 1-5 0-7-1v-6c-11 7-29 0-25-14l-5 1c-3-1-2-5-1-8 3 0 6-3 10-2 4-6 10-13 18-13 2-12 27-3 22 11zm-27 0 4 1 2-5c-3-2-4 3-6 4zm13 1c3 0 3-3 4-5h-2c0 2-3 2-2 5zm-6 10v2l4 1 1-3h-5zm-13 1-1 3c5 1 6 0 11-1v-3l-10 1zM202 146c-3 0-3-2-4-4 3-7 10-14 13-22-5 1-8 3-11 5-3-2-4-4-7-4-7-12 13-11 21-12 3 2 6 5 6 9-1 3-3 9-6 10 1 2-4 6-5 8l-7 10zM356 116v6c-5 0-8 3-13 3-4-8 6-10 13-9zM34 116c1 2 0 4 2 5l-5 5 4 2v9c-4 0-4 2-6 3-8 0-9-6-11-10 2 0 1-2 1-2 2-3 4-1 7-3-1-1-3-2-4-1l-3-8c1-4 3-7 9-6 2 2 3 5 6 6z" class="st0"/><path d="M319 107c1 3-4 3-4 6l2 1c1-4 4-5 7-9 3 1 1-4 7-4l-3-1 3-3-1 2 4-1c-1-3-2-2-3-1-1-3 3-2 3-4 1 2 1 0 4 1 0-2-1-2-2-2-2-1 3 0 1-2h3l-1-1 12-11c1 1 4 5 2 7 5 10 21 0 23 19l-2-3-2 2c-1-3-7-3-6-5-2-1-1 1-2 1l1-1c-1-2-2 0-3 0v-1c-4 0-7-2-10-3 0 4-2 8-1 11l15-2c-1 1 0 1 1 1-3 4 1 12-3 16l1 2c-1 1-3 1-3 3-5-3 2-12-1-16l-23 8c3 6 3 15 2 20 3 3 8-1 11-2 0-4-4-1-6 0l-3-1v-6l13-5c0 3 1 5-1 7l14-5c-1 3 5 6 0 8-1-2-4-1-6 0 5 6 14 6 20 9l2 6c-10 1-21-5-30-9l-7 4c0 1 2 1 1 3-13 2-17-7-15-18 1-3 3-9-1-12-3 4-5 6-10 9 6-7 13-15 23-18-2-2 0-4-2-6-3 1-6 4-6 6-2 1-3 2-3 4h-3c1 2-4 4-6 2 1-2 4-2 3-5 1 1 2-1 3-1l-1-2c-3 3-6 4-6 8 1 2 3 1 4 2-1 2-6 2-4 4-1 2-6 2-4 3-1 0-3 2-4 1 3-1 3-4 5-5l-9 3-1-2-4 2c-1-4 1-12-1-20l-12 1 1-1c-4 4-13 3-19 6-1 5-5 14-8 18-2-2-2-6-5-5-3-8 5-15 9-21 5 0 8-2 12-4 1-11 9-9 7-2 7 2 20-6 21 5 2 2 1 3 2 2v10c1 1 4-2 5-3zM138 128c-2-2-4 2-5 3-2 0-2 0-2-2l-1 1c0-1 1-2-1-2 1-1 3-2 1-2l6-9c-6 1-11 8-7 16 6 3 15-4 19 2-3 2 2 3 2 5-5 1-14 5-19 5-1-2 2 0 2-1-8-2-12-6-13-15l-9 6c-6-3-6 7-11 8 0-3-2-2-3-3-2-5 4-5 6-9l2 1c2-1 3-3 3-6 3 0 2-1 3-2-4-2-12 0-16-3 0-10 11-7 19-9v-8l-7 2c-5-1-6-5-4-11 5-3 15-1 13-10 4-4 7 1 8 5h7l2 7h3c1 3 0 7-1 10l2 1c-1 2 2 3 2 6 3-1 4 1 7 1 2 7-4 11-8 14h-1l1-1zm-36 6c2 0 2-1 2-2-2 0-2 1-2 2zm23-24 7-6c-4-3-10 3-7 6zM93 10c5 0 4 6 6 9l11-1 3 7-1 1c-3-1-5-1-7 1 2 2 1 4 0 5 3 0 9 0 7 6h-4l1 1c-2 0-5 0-7 2v-2l-3 1c1 2 1 5 3 6 3 0 3-2 7-2-2 2 2 1 1 3l-4 4c-3-3-7 6-4 8 1 1 0 1-1 2l3 1v2l-4 3c3 3 6-2 10-1-1 2 1 2 2 2l-1 3c-8 0-15 7-23 4v-4l7-1c-2-4-10 2-9-4l8-4h-5c1-2 4-1 5-3-4 1-8-4-10-5-1-3-1-11 3-11 2 2 3 5 3 7l5-2-1-8c-2 1-5 2-8 1-7 9-10 18-11 29-2 0-1-4-4-3v1l-2-1c1-11 4-19 8-29l8-2-1-6c-3-1-7 1-9 3-2-2-4-4-3-7 5-4 15-4 21-6-1-2-2-8 0-10zm-3 18 2 8c5 0 8-3 7-10l-9 2zm2 30c1 0 3 0 3-2-2 0-3 0-3 2zM216 30l6-3c5 2 7 6 9 10 0 3-4 2-3 5-6 1-9 6-14 8-1 4-2 7-1 11 9 1 14-7 22-4 0 2 4 5 3 7-2 3-4 2-7 3-16 4-18 11-32 1 0-9-3-22 0-29-1-6 1-12 2-17-1-1 0-2-2-2 4-12 16 2 17 10zM289 38c12 2 11 19 7 27-3-2-4-3-8-3V48c-4 1-4 4-6 9v3c-5 2-2 7-2 12h-3c-4-7-3-15-2-23-3-2-4-5-2-8l5-2 3-15c7-6 12 8 8 14zM322 42c-2 0-4 0-3 2-8-4-17-7-18-18 9-4 10 9 17 10 1 3 4 4 4 6zM251 57c6 1 9-5 15-6 2 1 1 3 3 5-2 2-4 2-5 5-5 1-7 5-13 7-2-2-3-2-7-2-6-10-3-29 1-41h4l6 9c-1 7-4 12-4 23zM317 69c0-1 1-3-1-2 10-8 30-10 36-25l-1-1c-7-5-19 2-22 8-2 0 0-3-3-2-1-5 3-6 4-9-7-5 26-15 28 0l2 2c0 4 1 7-2 10-3 13-22 20-33 23-3 0-5-5-8-4zM374 49c3 0 6-1 8 1 1 8-10 8-9 13l-2 1h7c-1 2 3 0 2 4-5 1-11 2-15-1-1-5 2-10 5-13-4-3-8-16 2-13 0 3 3 6 2 8zM47 52h4c1 3 2 5 0 7l-4-1v-6zM181 29c-5 4-11 7-14 12 3 1 5 3 6 5l5-8c3 0 4 2 6 3 0 4-8 14-1 16 8-2 7-6 12 4-5 7-16 3-20-3-3 2-2 5-4 7-3-1-5 1-7 3l-5-2c0-2 0-2 2-2l-2-1 1-4c-2 0-3 5-6 5-1-1-3-5 0-5-1-3-2-3-4-3l-2 10c-1 2-4 2-5 3-1-2-5-3-3-6-3-1-7 3-10 0-1-7 6-9 11-7 1-1-1-2 1-3-1-1-8-4-9 0l-3-1c-4 3-4 6-5 11l-4 1c0-3-6-2-8-4-1-16 7-21 13-30h3l5-4c8 4 22 8 17 18 4-1 6-5 8-8h-4c-2-3 0-7 1-9l21-5c1 3 2 6 4 7zm-49 17c2 0 4 1 5-1l5 2 1-8c-7-3-9 4-11 7zm33 6c-1 1-2 1-2 3l5 1c2-6 2-8-4-9 0 2 2 2 1 5z" class="st0"/><path d="m47 69 1-1-6 3c-7 1-16 7-24 3v-3c-1-1-3-2-5-1-1-2-1-5-3-7l-3 2-2-3v-5l8-32c6-13 18 3 16 12l-5 10c4 0 11 1 10-5-2 0-3-1-4-3 0-1 3-3 1-5 5-6 18-2 18 7l-7 3c4 1 7 2 7 7l-8 3v4c3-1 7 1 6 4h10c-3-17 9-35-20-33-10-3-6-14 5-12l3 2c8-1 14 7 18 13 5 10 3 22 0 32l1 2-3 2c-5-1-10-2-14 1zm-27 1c5-2 13-2 15-5l-4 1c-2-1 0-4-1-6l4-1v-3c-6 0-9-2-11-5-3 5-3 11-3 19z" class="st0"/></svg>