<svg xmlns="http://www.w3.org/2000/svg" xml:space="preserve" id="レイヤー_1" x="0" y="0" version="1.1" viewBox="0 0 393 158"><style>.st0{fill-rule:evenodd;clip-rule:evenodd}</style><path d="M257 7c2 4 3 6 3 10l-4 4c10 1 24-1 30 7-2 3 1 4 1 7-3-3-8 2-9-3-8 2-20-3-28 2l-4 13c-3-2-6-1-8-5-9 2-16-6-11-11 7-1 10 2 12 5 5-10 6-27 18-29zM106 17c2 0 1 2 3 2l1 6c7-1 14 2 13 10 9 2 8-8 15-9 1 2 3 5 2 7l3 1c-1 2 0 3 2 5v5c-3 2-8 2-10 4 4 1 5 5 9 5l3 6c-6 4-12-2-16-6-3 4-6 9-11 11-4-6 4-13 5-18 0-3-5-1-4-4-3 1-4 5-6 8l-3-1c-5 6-11 13-18 18l8 5c-1 3 2 3 4 5-1 2-4 3-3 7-4 1-5-2-9-2-3-5-11-12-1-15-5-4 0-10 3-11-2-1-4-3-5-6 1-7 8-3 12-1 2 0 2-2 3-3-6 1-4-6-6-9-2 1-3 5-6 3 0 6-7 6-10 10-2-3-7-2-7-7 12-7 16-21 29-26zm-2 17 6 5c2 0 6-6 3-7-2 1-8-1-9 2zM152 36c-1-2-2-3-4-1-3-3-2-7-4-11 6-11 12 7 8 12z" class="st0"/><path d="M264 35c10 2 23 0 22 10l2 3c-2 2-4 6-2 10-5 0-3 7-6 8 1 2 1-1 4 0l2 6-8 1c-3 2-3 7-5 10-2-1 0-2-2-3-3 0 1 3-2 2-1-2-3-4-2-8-9-2-18-7-25-1-2 0-1-3-4-2l-1-3 4-8c-2-1-3-5-1-8 9 3 11-18 23-10 0 7-4 6-7 9 2 2 5 0 9 1 2-2 2-5 3-8-11-4-2-6-4-9zm8 17h5l2-7-6-1-1 8zm-6 15 4 1 4-10c-7-1-6 5-8 9zm-16-7c0 3-1 2-2 4 7-1 9 2 14 2l1-7-13 1zM236 56c-4 3-11 1-13-3 2-10 13-5 13 3z" class="st0"/><path d="m289 51 1 1c-1 3 1 3 1 6l-2 1c-2-4-2-5 0-8zM236 65c-3 5-9 7-12 11-11-4 7-17 12-11zM136 69c-3 3 0 4 0 8-2 0-1 1-2 2-7 0-15-14-4-15l6 5zM154 73c-2 2 1 4 0 7-6 0-14-6-18-11 3-10 18-1 18 4zM111 65h5c0 3 2 4 5 4-1 2 0 3 2 4-1 3-4 4-2 8-7-1-9-6-13-10l3-6zM305 67c-2 2 0 3-3 4 0-2 1-3 3-4zM213 44c-7 6-19 5-24 13 6 7 19 6 23 16 1 0-1 5 1 6-11-4-21-6-27-14-8 5-7 20-21 18-2-3-6-3-8-6 2-4 7-4 10-7 4-4 6-12 10-18-4-4-12-7-11-13 1-7 12-3 19-5 2-8 4-18 3-27l3-3c11 3 12 17 7 26 4 2 8-1 11-2 2 1 4 6 6 6-1 1 2 5 2 6-3 0-5 2-7 4h3zM15 92l-6-3c-3-3-2-4-2-8 8-3 15-9 19-16a8 8 0 0 1-4-15c6-2 20 2 18-11-7-3-15-3-21-7-5-10-7-20 8-18 11-1 28-9 36-9v5l6 2c0 1-2 1-2 3h2c-2 2-2 4 2 4l1 4-4 1c-1 8-8 9-15 12l1 8c5 0 6-2 11-1-1 5 3 5 3 8-1 6-12 4-14 9-4-1-3 3-6 1 0 3-2 1-4 4 7 3 19 2 26 3 1 4 3 6 3 10l-10 3c1-1 0-1-1-1-8 3-19-1-26-4-8 6-11 13-22 17-1-1 0-1 1-1z" class="st0"/><path d="M323 21c0 2 3 4 1 5 0 2 3 1 5 2-2 2-2 2 0 4l-8 2c-2 1-2 4-2 8 9 0 9-10 19-12 2 3 4 8 3 13-4 0-6 2-6 5-4-4-7 4-12 5-6-1-11 8-19 8-1 2 2 1 3 2-3 0-4 4-6 4l-1 3c-3 0-3 4-6 4 0-2-2-1-2-2v-6c3-3 5-7 10-8-1-2 1-4-1-3 1-3 6-1 7-3-5-1-10 0-15 1l-3-6c5-6 14-3 19-5l-1-6h-4l1 1c-3-2-3-5-7-7l1-6c3 1 5-1 6 1 1-2 2-1 5-2v-9l2-2c4 2 4 6 6 10 1-2 4 0 5-1z" class="st0"/><path d="m348 76-2-2c-7 6-18 2-24 5l-1-1 2-1-9-4c-1-6-2-11 1-16 6 3 9 1 13-4 6 1 7 7 6 12l-6 4c-3 1-4-2-6 0 8 6 21-3 29 1l2 4c-1 2-4-2-5 2zM263 83c1 5 0 8 2 11h20c7 9 4 22-1 34-1-3-4-3-6-4 1-9 5-17-1-24l-13 2c0 2 3 1 4 2-2 1-9 0-11 4-6-3-7 1-15 0l3-1c0-3-3-1-4 0-9 0-10 5-15 9-1 4-3 10-6 9 0-1 2-3 1-5l-4 2-2-5c2-11 10-17 18-22 2 0 3 2 5 3 15 0 14-5 21-16l4 1zm-12 23h6c-1-3-5-2-6 0zm-5 1c2 0 4 0 4-2-2 0-3 0-4 2zM106 139h-3c-2 6-8 7-10 14l-6-2c-2-10-9-8 0-18 5-5 6-14 11-19l-2-2c-7 2-15 5-24 6v2c-5-4-10-8-9-16 10-8 38-19 51-13 0 6 9 10 9 18-5 11-12 19-17 30zM209 114c-2 0-2-1-2-2-2 1-2 5-5 7v-2l-4 1c3 11 5 17 3 27h-3c1-3 1-6-4-5-3-5 0-11-4-16-4 1-17 19-17 11h-4v-4h1c0-2 0-2-2-1 14-14 27-28 43-39 2 0 1 2 3 2 2 15 1 8-5 21zM155 93c2 1 1 5 4 7-1 3-2 2 0 4l-18 6c-3-1-3-3-5-4v-8c6-3 10-5 19-5z" class="st0"/><path d="M284 146c-14-1-32-8-48-8l1-2h-2c-1 2 1 1 1 3-5 3-6 8-10 11l2-4c-1-2-2 1-4 0 1-3-2-3-2-5 3-8 10-11 16-16 0 1 1 2 3 2v4c2 1 7 2 10 1l1-12c-4-4-10 2-14-2l1-6c10-1 23-6 31-1 0 1-2 2 0 2-1 1 0 2-2 2 1 2 4 1 3 4-3 2-8 0-9 3 3 3 10 0 10 7l-1 1c-1 2 4 2 2 5-3 0-4-2-6-3-2 1 1 3-1 3 5 3 12 2 16 5 4-2 10 1 15-1-3 3-1 4 1 6l-9 1h5c-2 3-7 0-10 2v-2zM163 113l2 11c-4 3-7 8-9 14-3 1-5 3-6 7-3 2-6 3-8 6h-5l-2-6c4-7 12-11 16-18-6 1-13 6-20 6-1-3-3-4-5-5v-6c9-4 24-11 37-9zM373 105c-9-2-13-6-20-7-2 1-1 4-1 6 10-1 12 3 13 10-3 3-3 9-3 13-1 1-3 1-2 4h-5c-1-2 0-5-2-7 2-1 2-5 3-8-2-3-6-1-9 0 6 0 6 11-1 10l3 1c-1 3 2 3 0 5 2 2 6 2 9 2 4 7 20 7 26 2 1 2 2 5-1 5 4 3 0 6-1 8-12 1-21-1-33-5-7 2-11 7-18 8l-3 4c-13-4-4-29-9-29 2-3 2-9 5-11 10 5-1 18 4 29 7-2 15-3 17-9-4 0-12 3-11-5 1-3 7-3 11-5-2 0-8 1-10-1v-5c2 0 2-2 3-2-1-2-3 0-4 0-7-7 4-12 9-14v-1c-5-1-11 6-16 5-1 2-4 1-4 3-11 2-14 13-25 15-1 0-1-3-4-2 1-3-2-9 0-14 16-8 30-18 46-25l6 1c12-8 35 6 27 19z" class="st0"/></svg>