<svg xmlns="http://www.w3.org/2000/svg" xml:space="preserve" id="レイヤー_1" x="0" y="0" version="1.1" viewBox="0 0 747 206"><style>.st0{fill:#231815}</style><path d="M273 135c-1-1-3-2-3-4-8 1-22-3-27 6-9 4-7-9-12-10-1-7 2-3 6-4 7-5 15-7 22-10 7 5 10-7 16-1 7-7-4-8-3-15-6-3-13-9-19-5-11-3-18 6-28 5 6-12 1-27 12-36 11 4 15-10 21-13-6-13-16-23-29-28-17 30-25-15-40-10-17 10-3 23-3 35-12 7-26 12-39 5-30 9-4 27 6 41 11 9 27 9 38 3 1 5 4 11 3 16-37 15-78 24-112 47-4 7 5 7 5 12 12 15 22-1 34-4 6 3 8-11 12-3 3-5 10-7 17-7 6-7 17-5 25-9 4 7 0 21 5 29 4 8 9 14 16 18 6 2 9-5 14-6-6-8 2-18-5-26 6-10-1-20 6-30 9 10 9 28 12 43 4-3 5 5 10 2 6-1 10 1 13-7 3 1 6 5 10 3 9-9 15-5 25-12l1 2 5-6c-1-7-4-10-8-16-2-1-1-8-6-5zM453 122c2-9-4-16-6-22-8 3-11 10-18 17-11-12-18-29-23-45 6-2 9-10 12-13 1-7-6-6-8-11 3-6-6-7-5-12h-2c-7 6-12-1-15-6-6-2-6 5-10 4 11 29-24 17-31 35-3 5 1 7 3 12 14 15 7 46 1 63l-7-13-7 1c-4-1-2-5-4-8 3-8 11-8 14-15-3-6-6-13-11-19-14 5-14-30-30-17-3 7 1 14 5 19 2 14-19 12-21 27 4 7 8 10 14 15 13 1 12-10 17 7-10 7-21 9-22 24 9 24 24-2 37-2 4-2 8-10 12-7 0 9 8 10 11 18 12 2 11-11 16-16 2-8 8-15 13-20 9 11 1 27 1 38 2 2 4 8 7 6 5 4 9-2 12-6 2 2 3 5 6 3 2-9 11-14 17-21 6 7 13 10 22 13 4-2 2-6 2-8-3-6-3-14-12-11-12-14 7-19 10-30zm-44 24c1-14-7-25-16-31l-11 3c5-11 3-24 9-34 10 16 20 30 26 49l-8 13zM642 107l-1 3c-5-4-5 3-9 4-7 9-16 18-24 25-5 1-9-7-11-12-4-7 10-10 11-19l-1-2c6-3 8-13 6-21-4-1-12 0-13 7l-1-2c-5 7-12 12-15 19l-15-30 22-25c-1-7 6-8 8-15-11-6-20 7-32 7-10 14-36 9-36 29 0 4 5 8 9 9l2-2 6 6c-6 6-10 17-15 24-6-18-2-44-13-61-16-3-19 15-28 22-3-4-6-12-11-11-2 4-8 5-7 11-4 6 1 13-5 19v8c-8 21-4 41-9 63-1 13 14 15 18 26l3-7c14-1-3-18 5-27l13 14c8-1 13-4 22-4-2 6-2 18 0 20 1-2 3-2 6-2l-1-4c8-3 3-17 8-22-5-4 0-9 3-11 10-8 26-22 33-32 4 10 8 20 7 30-3 9 3 29-14 24-7 10 3 13 4 19 5-5 3 4 7 6 2 1 4-2 4-3l-2-2c13-7 12-23 14-35 6 5 11 17 19 20 2-9 16-8 13-19l1 1 8-12c-1 0-3 7-6 3 1-3 2-8 6-10l-3-2c1-1 3-2 2-5 5-3 4-12 9-15 2-2 3-5 3-7zm-123 19c-1 3-5 1-7 2-1-3 5-9 7-2zm-17-29c8 0-1-8 9-7l4 16-15 1c3-3 3-7 2-10zm18 62c-3 2-4 2-7 0 3-3 8-8 6-12-3-12-18-4-27-5-1 3-5 2-7 6 3-7 4-34 16-13 4-2 12 1 17-4 5 7 2 19 2 28zm46-51c-4-3-8 3-12 4-6 7-17 10-20 20l-1-8 1 1c13-5 8-20 19-23 1-3 3-7 6-10l8 15-1 1z" class="st0"/><path d="M428 89c3-10 11 0 11-11-1-6-4-13-7-17-4-1-6 3-10 2-14 9 6 20 6 26zM568 130l-1 1-3-2c-10 9-30 18-25 35 12 4 15-14 26-18 5-5 5-11 3-16zM133 167c-17 14 6 30 18 35 1-1 1-3 3-3 4-4 8-7 6-14-8-6-15-18-27-18zM532 179l2-1v-2h-2z" class="st0"/></svg>