<svg xmlns="http://www.w3.org/2000/svg" xml:space="preserve" id="レイヤー_1" x="0" y="0" version="1.1" viewBox="0 0 747 206"><style>.st0{fill:#42281d}</style><path d="M165 115v-1c1 2 8 11 5 12 0 4-6 3-8 3l-1 1v-1h-11c-3 10-4 21-6 32l-1 2c7 2 17 6 19 13h-1v1c-9 2-16-6-25-5-6 3-13 4-18 8l-4 3c-8-1-14 2-20 6-2 0-3-1-4-3 5-8 12-13 18-21-19-3-64 2-54-29-14 1-18-4-20 14 4 20-23 25-24 4 0-23 5-44 11-65l2-1v-3h2c6 19-11 41 0 60l9-11c-4 0-8-1-11-3v-2l1-1 1-2 1-2c8-5 17-8 26-11l1-1c5 0 11-3 17-5 7-9 15-17 21-27-10 4-19 1-27-6-7-24 28-41 41-57l5 1 3 2c3 7 1 15-4 21l-3 9 10-3v-2l1 1 1-1v-1l1 1 1-1 19 10 1 6c-1 1-6 1-6 4l-25 15c-8 7-12 17-20 23l12-1 11-15c6 2 9 8 12 13l8 2 1-1 3-19c-3-2-8 1-11-3l2-1-2-1c9-6 20-7 29 0 8 10 1 20-1 31l7 4 1-1v2l4 3zM42 45c-9 8 3 11-16 22 0-10 0-23 6-33l2-1c6 0 10 7 8 12zm32 87c-3 4-5 9-5 13 1 2 3 2 5 3l-1-2 1-1 3-6h-1v-2c-3 0-1-4 0-6l-2 1zm44-5c-6 9-4 22-17 27l13 2c6-9 11-20 13-31l-9 2zM241 49c5 7 10 14 13 22 1 2 0 5 3 6l1 4 1 2-2 3c-4 3-6 9-7 14 10-12 23-24 29-38l2-2v-1c22 7-1 16-6 26 6 5 9 13 15 17 3 2 5 4 7 8-1 3-5 1-7 2-14-5-29 0-43 2l-3 3c0 2-2 2-3 3h1l-2 1-15 13-4 4h1l-2 1v1l-3 3 1 1 1-1h1l2 1 4 2v-1l2-1 2-1c12-4 21-16 31-25l4-2h1c6 5 12 11 14 19-2 4-5 8-10 11l3 3h-2c-2 1 2 2 2 2l3 5 1-1-1 1 2 1v1l2 1c3 5 8 8 11 12l1 1 3 4 1 1c-25 10-89 10-81-31l-1 2-1 1v1-1l-1 1h1l-3 1-2 2h1l1-1c-1 2-2 3-4 3l-1 1h1c-8 8-16 17-22 28h-9l-1-4c7-13 9-29 19-41l-3 8h1l1-1v2l4-8v1l4-7h-1l1-1v1l2-1v3-1c-4 8-7 17-9 26 13-11 24-22 35-35l8-10c-12 3-28 6-36 14l-1 3c-1 2-2 3-4 3v-2l-1 2 3-5c-6 1-12 4-17 7v2c-2-1-6-6-5-8h1c-1-1 0-1 1-2l-1-1 1-1v-1c1-1 3 1 4-1 16-5 35-11 45-26-7 3-25 9-25-2l1-1c16-12 26-25 31-45h1l1-2 2-2v1l1-1 3 1zm-47 90v1-1zm6-1zm2-41zm6 57v1-1zm56 0-3 2v-1 1h2l-4 1c-2 3-5 5-8 5-4-1-9 3-11 6 11 4 23 6 34 4l2-1-12-17zm7-64-14 10c-1 1-3 2-3 4 7-2 15-3 23-3l1-1-4-7c2 2 4 3 5 6-1-3-3-6-6-8h1l1 1-2-4-2 2zm-11 66zm3-2-1 1 1-1zm2-1-1 1 6 7-5-8v1-1zm0-2zm1 1-1 1h2v1l-1-2zm1-3-1 2 1-1v1h1l-1 1 2 3-1-1v-1l6 8-5-9 9 10a465 465 0 0 1-6-8l-1-2-1-1h1l-2-2v2l-2-2zm3 2zm0 11zm3 2h-1 1zm0-54zm0 39zm2 4zm2 10-1-2 1 2zM352 126l-2 14h-1l-1 1v1l-3 5h-1v1l-2 3c-1 1-1 3-2 2l-5 5h-1l-5 5h-1c-2 3-6 6-9 7 14-12 23-31 20-49-3-2-8-3-12-1 10 18 8 13-1 29v2l-2 2h-2l-2 1v-1l-5 1c-1-1-4 0-6 1h-3c-2-1-3 0-4-3v-2l-1-2v-1c1-22 40-52 51-21zm-36-3c-6 5-8 12-13 17-3 3-3 7 1 9 9-7 13-17 16-27l-4 1zm4 32v-1 1zM421 46c-5 7-12 13-16 21l14 7 2 3c0 2 3 3 2 6l1 2-7 6c-3 3-4 10-6 11 8 2 24 4 18 16-4 3-6 6-6 11-4 3-8 6-12 6l-2 4c-2 4 16 4 16 9l8 8c-1 2 0 3 1 4 2-1 5-2 6-4 0-11-3-23-5-33l2-2h-1c3-9 0-19 4-28 3-9 0-20 3-29h4c5 6 7 14 4 21 7-3 12 1 18 2V66c-3-2-7 3-10-1v-2c1-7 7-10 13-14h1l1-2c1-6 19 0 21 1 16 7 7 16 5 29-4 16 7 59-2 67v13c10 3 15 5 21 13l-1 3c5 12-53-11-65-2l-1 2c-11 1-43 19-46 4l1-1-1-3c6-2 11-4 17-8l-5-2-6-3v-10c-1-2-3-3-3-6-2 9-4 19-4 28-3 4 0 10-3 11l-6 6-2-4c2-1-1-3 0-5-2-2-3-5-3-8-7 8-17-7-19-13 1-6 6-9 8-15 3 1 8 3 7 6 0 5 5 8 7 12l-1-25c-11 4-20 4-21-9 1-2 5-4 4-7l1-5c-6-6-11-15-14-23 5-12 15-22 24-32 10-8 16-25 28-29h2c5 3 7 9 4 14zm28 53-3 17c7-7 16-2 24 0v-8c-8-2-16-2-21-9zm21 32c-4 2-6 5-11 4-4 2-8 1-13-1 1 6 3 11 7 16 0 2 0 3 2 3l11-15 4-7z" class="st0"/><path d="M606 50c31 6 69 74 20 40-3-1-5-1-7-3-6 1-19 0-14 9v2h-3v1c-8 1-17 6-26 2-9 2-16 11-22 18 3 13 10 27 19 38 1 0 3 1 2 2-2 2 2 4 3 7l-2 1c-1 3-5 2-7 4h-4c0-3-2-4-4-5-12-11-25-31-16-46 0-2 3-3 5-3l18-19-4-2c0-2-3-3-1-5-1-1 2-1 1-2 5-4 9-8 15-11 8-1 17 3 23 10l-1 1h1c4-4 10-7 11-13-10-9-22-15-35-20-10 15-22 26-31 41-4 8-46 63-38 27 30-17 42-52 66-74l-1-1v-2h1v-3l2-1h4v-1c8 4 16 5 25 8zm24 78 2 5-2 4v-3l-4 1c-3 4-6 8-10 10-2 4-5 8-8 10l1-1v-1h1l1-3-7 7v1c8 1 15-1 23-1l-1 1h-1l2 1c-1 1-4 0-6 2l5-1-5 2 7-1h2l-8 6c-7 13-34 3-42-6-3-12 11-20 17-30-9 1-17 3-23 9l-3-4v-3c14-15 47-31 59-5zm-24 28v1h-1v-1zm3-2v-1 1zm0 0v-1zm4-4zm15 8zM704 71c3 5 5 10 5 15V72l1-3h2l2 2h1c12 9 6 28-2 37-7 8-3 20-4 30-1 2-2 5-5 5 0 2-1 2-2 2-1 2-4 0-6 2h-4l-7 2c-4 0-5-10-5-14l-11 6v-1l-6 3c-1 28 57 22 75 17l1 3-2 3c-17 16-79 8-85-18-4 3-9 5-14 4l-2-3 1-1c0-3 4-2 5-4l9-5c-1-7-2-16 2-22 2-5 8 1 6 4-2 5 0 8 1 12 7-2 13-7 19-11l2-16c2-2 3-8 1-10 3-11 7-21 14-30l7 2 1 4z" class="st0"/></svg>