<svg xmlns="http://www.w3.org/2000/svg" xml:space="preserve" viewBox="0 0 747 206"><path d="M559 118c2 2 2 7-2 7l1-3h-1l-3 7c2 0 2 4-1 3v-3h-1l-2 8h-1c-1-7 4-12 6-18l1-1h3zm5 7v1-1zm11-113c4 1 7 5 11 5l1-2c8 3 16-3 24 0l3-1 2 1v1l-1 2 4-1 2-1 1-2c7 5 8 0 10 10 8 0 9 12 7 18v1c-7 1-15 2-22 1-8-1-22-6-22 7-4 2-5 7-9 8v1c8 7 17 16 28 18 6 3 9 10 14 14l9-10c4 0 5-3 5-6l3 1c2-2 6 0 9-2 4 8 23 6 6 16-1 4-6 2-6 5h-1v-1c-3-3-11 0-10 5-10 1-6 6 1 4v2h-8l-1 3-6 3c3-7-2-6-2 0-4 2-14 24-3 22 11 4 17 15 28 19l2 3c4 3 5 6 10 7 1 4 5 6 5 10l2 1c2 3 1 18-5 14l-2-2-1 8c-10-5-19-17-26-25-9-6-12-18-18-26-3-3-5 4-7 3-2-9-7 2 1 3h1-1v1l-1-1-2 5 2 5c-4 0 0 3-2 4-4 0-6 3-10 3-3 1-2 4-3 6-2 3-6 3-6 8l-3 2c-2-8-7 1-9-4-4-1-3 4-3 4v1c-2-1-9-3-9-5l2-1-2-3 2-4c13 1 21-40 22-52 3-1 2-7 2-10 4-4-3-12-5-16l-4-12c-2-4-1-9-4-12-6 8-9 17-17 24v2h-1c-1-2-4-9-6-4-1-6 11-23 15-28 3-6 15-16 12-23-3 0-5-1-7-3h-7c-2-4-5-1-6-3-2-1-1-5-1-7-1-2-2-4-1-5 3-2 9-1 6-6 4 0 7 0 8-3zm-395 8 6 3-2 6c-3 2-3 9 0 8s1-5 3-6c2 0 1 3 1 4-5 14-8 20 10 18l6 2c21 10 67 25 59 55 2 8-2 14-6 20-1 5-3 6-7 7l-2 1-3-2c-3 4-9 7-11 12l-6 7v1c-4-2-7 5-9 7-6 3-9 7-7-2-2-2-5 1-6 2-3-1-5 5-7 2l1-4c-16 6-3 8-11 11-1-2-1-6-3-5s0 4-1 5l-11 2c-3 0-3-5-6-5 1-2-1-4-3-6-1-5-3-12-6-17 5-1 13 23 14 5l2 2c9-12-9-21-6-32 1 4 3 9 6 12 4-2-3-11-4-14 3-3 4 6 7 6 2-5-4-13-2-15 3 0 3 7 5 7l1-2h1c13 31 13 14 27-2 0-2 2-5 4-5-6-3-4-15-10-16-1-1-10-8-12-8-4 2-10 4-14 8-2 9-9 11-16 14l-2 1-4 3-3 1c-3 6-7-4-11 1 0 17 9 35 15 50 7 1 5 8 4 13 7 11-1 7-5 14-4 3-10 3-13-1l-11-5h-1c-4-8 3-12-3-11h-1c2-6-5-9-6-15 1-4 0-6-1-10 0-5-1-9-6-7l-1-1c4-6-1-5-2-11-4-2-9-1-14-3-7 4-5-5-14 0-7-8-27-9-26-23h-5v-1c2-9 9-12 16-16 4 2 11-3 6-3l1-2c2 0 5 1 5-2h1c0 5 6 4 3-1 3 0 5-1 6-3h1l2 1v-2l2 1c8-9 4-9 4-20-1-2-3-7 0-9l2-6h1c5 7 11 14 18 20l3 1 1 1 1 1v-1c3-1 3 0 3-4 3-2 6-3 10-2-1 1 1 1 2 2v-2l-1-2c1 0 4-2 6-1v1c-1 0-3 0-3 2 6 1 4-3 7-4 2 0 5 1 7-2l-1-2v1c3 1 2-3 3-5 2-4 3-5-1-6v-1l1-3h1c0 1 0 3 2 3l1-6c2-1 3-3 3-6 4-3 9-4 14-3v-1h1zm423 5v2-2zM453 148l-2 8c-2 3-10 7-14 8-1 3-4 2-6 3-3 2-11 3-13 0h-10c-4-2-10 0-13 2-3-1-7-4-10-3-4-2-5-4-5-8-6-4-7-14-6-20 9-13 11-30 22-42 5-6 1-14-2-19-1-4 1-13-4-14v-1c2-4 2-7-2-8 0-5 3-8 2-12 4-5-4-10-1-16 8 2 15 16 21 19 4 10 12 17 15 27l6-1c8-4 17-5 25-6 2 1 1 4 4 4 6 0 2 4 4 7l-11 8c-1 2-3 6-6 6-3-4-15-7-18-2-1 6 7 20-4 19 0-5-3-6-6-6-2 3-4 3-7 4-8 1-15 7-18 14v1l-2-1c-1 6-13 12-1 16l12 2c2-2 3 0 5 0-1 2 2 3 3 3 1-5 7 0 11-1l10-2s7 2 7 0c3 0 8 0 9-5-2 1-7 3-6-1l5-2h2c5-3 7 3 10 4 3 7-7 5-4 10l2-1v1M628 42h-1l-1-3 2 3zm-18 2h1-1zM137 58c0 2-6 1-7 1 0-2 3-2 4-3 2 0 2 1 3 2zm-12 1 1-1h-1v1zm18 3c0 2-7 3-7-1 3-1 5-1 7 1zm442 1 1 1h-2v-1h1zm-2 5c-2 0-2-2-2-3 2 0 3 1 2 3zM88 85c-1-4 6-5 8-6 8 2-6 6-8 6zm507 10v1c-2 0-2-3-1-3v-1l1 3zm-381 6c-1 1-1 4 1 4l-1-4zm215-3v1-1zm221 0h1v1l-3 1h-1v-1l3-1zm-436 22-1 3h1v-3zm-32 5c0 1 1 5 3 5 1-2-1-4-3-5zm157-8c0 1-1 5 1 5 1-2 1-4-1-5zm2 6v4l1-4h-1zm111 9h-1l1-3v3zm-110-1-1 1 2 1 1-1-2-1zm117 1v-1 1zm-342 14v-3h-1l1 3zm58 2h1-1zm234-12 1 1-1 1v-2zm220 4-4-1 1-2c1 0 4 1 3 3zm-36-1c-2 2-1 4-1 7h1c1-2 2-5 0-7zm3 0v5h1c0-2 1-4-1-5zm-382 19 4-3c3 1-1 6-4 3zm-6-1-1 2 2 1v-3h-1zm383-10c-2 1-4 6-1 6 1-2 3-5 1-6zm-250 4v4h1c1-2 0-3-1-4zm323 16c-2 0-2-2-2-3 2 1 2 1 2 3zm-69 1-1-1 1-3c2 1 2 2 0 4zm7 0zm-10 6c-4 0-1-4 0-6 2 1 2 4 0 6zM328 13l-2 4c-7-11-8-3-18-1v1c5 1 0 5-1 0-5 0 4 15 1 18-4 0-5-1-6 3h-2c0 3-4 3-6 5l1 2h-1c-6-1-3 9-2 12h9c1-5 6-3 9-4 7 5 7 15 8 23-3 1-7-1-10-3l-1 3c-4-1-8 2-12 2-2 2-5 2-8 2-1 4-7 8-1 9 0 2 2 4 3 5 4 0 9 3 9 8h1l12 6c1 3 3 3 5 5l8 2c2 6 4 17-5 20-8-12-39-30-45-8 1 7 0 15 6 20 0 10 17 39 28 29 0-5 5-4 8-4 1 0 1-4 4-2l1-2c-1-2-5 2-8 1-3-2 2-2 4-2 0-2 8-6 7 1h3c5 5 9 13 15 15 3-2-8-22 0-25v2c4-2 2-6 3-9l4 2c3-5 12-14 6-20h-1c-1 2 1 5-1 7 0 2-1 4-4 4 0-4 3-6 2-10-6 2-7-16-7-20 4-4 13-4 15-11 5-4 4-6 3-12-2 0-3 0-3-2 0-1-5-2-5-5v-3c-7-2-14-9-10-17 7 0 12-2 15-10 4-9-11-17-17-20-2-7-6-21-13-24l-1 3zm-36 30v1-1zm39 31c-2 0-3-5-2-6 3 1 3 4 2 6zm7 1c-2 0-2-4-1-6 1 2 2 4 1 6zm-53 53c-2 1 0 4 2 3 0-1 0-2-2-3zm-4 1v2-2zm5 3-1 2c-1 0-2-1-1-2h2zm16 13c0 2-2 4-4 4l-4 1c-4 0-3-9-9-9 0-2 0-5 2-5 3 1 14 6 15 9zm4 1-3 3 2 1c2-1 4-2 1-4zm-6 4-2 2v1h2v-3zm-7 4v-2c0 1 2 2 0 2zm17 4-1-2v-1c1 1 2 2 1 3zm-10-2v1l1 1c1-1 0-1-1-2zm20 3v1l-5 1v1l-5 1h-1l3 1c0 2-5 4-4 0l-3 2-2-1h-1c1 1-2 3-3 2-1-4 16-8 18-10l3 2zm-5 6-3-1 1-1 2 2zm-5 3v1l-1 2c1 0 2-1 1-3zm24 5-1-2c2 0 2 1 1 2zM504 14c-2 6 6 9 8 14l4 18v20c1 4 7 7 4 11l-3-4-1 1v1c-2 0-3-9-3-10-4-4-4-15-6-21l-2 6c-4-2 0-16-9-15 2 5-3 8-5 12l-2 1c0 2 3 3 2 5h-1l-1 4c-2 5 3 9 1 10h-3l1 2c-1 2-4 11-2 13-2 6 1 16-3 21 1 0 0 18-2 17l-1 41c3 0 6 4 2 2-1 6-1 14 2 19l3 1v-3h1l2 2 4-4v-1l-2 1v-3l-1-4c-1 0 2-3 5 1 1 5 0 11 7 10v-4l4 1v-1c0-7-4-16-2-24 0-5-3-10 0-14 0 0-2 0-2-2 2 0 1-10 2-12l3-2c2 2 1 4 0 6v1h2c0 6 8 1 9 8h1c0-7 4-1 2 3h-1v1c5 0 4 7 1 6-2 1 4 2 1 5 3 3 3 9 1 13v1l3 1c0 2-2 2-4 2l1 3 2-1c0 3 1 3-1 5v1c6-2 3 4 2 6l1 10c7-4 1 4 6 7 3 1 3-3 4-6 3 0 3 6 4 7h1l2-1-1-3c-1-4 4-4 4 1 7-12-9-10-1-14 1-13 0-25-1-38 4 0 10-5 10 0l3-1c-1-2 2-4 3-1 0 6-5 7-5 13h-2v8c3 1 4-6 7-5l-2 3c3 7 7-9 11-5l3-4c-4-1-2-4 1-4l1-2 3-2c-1-5 6-10 3-16-1-3-9-6-13-4-6-2 0-8 4-8l-1-5c-4-1-6 1-9 2 0-4 0-4-3-7l-8 2c1 7-4 13-8 19l-1-1c2-20-6-43-1-63 0-8 0-17 2-25-6-17-23-29-40-28zm16 48c0-1-2-1 0-3v3zm-2 52 2 2-3 1c-1-4-6-5-9-7 0-5 4-14 10-13 3 1 3 15 0 17zm-24 0v-3c1 1 2 3 0 3zm-1 4c-9 21 3 24 1 0h-1zm-3 19c-1 4 0 7 4 7 0-3-2-6-4-7zm4 9c1 2-1 3-1 4v10c-5 0-4-13-3-16l4 2zm27 0v-1 1zm-28 18c-1 1-1 2 1 2l-1-2zm10 3c-1 1-1 4 1 4 1-2 0-3-1-4zm-3 8h-2l1-3c1 1 2 2 1 3zm-15-2-1 1 3 3c1-2 0-4-2-4z"/></svg>