<svg xmlns="http://www.w3.org/2000/svg" xml:space="preserve" id="レイヤー_1" x="0" y="0" version="1.1" viewBox="0 0 747 206"><style>.st0{fill:#4c4b1e}</style><path d="M42 89c-1 10 0 20 3 30 4 0 3 5 5 7 1 5 5 7 4 12-1 2-3-1-4-1-2-1-5 0-6-2l-2-1c-29-35 6-71 0-45zm-8-6zm5-4h1-1zm37-24c8 3 16 7 22 13-2 2 2 5-1 6-1 1-2 1-1 2l-1 1c-8 7-12 19-16 29 8-2 13-10 20-14l-11 16 1 1c-7 3-7 13-12 17-7 10-19 2-24-6-4-10 3-20 2-31-18-5-5-24 5-31 4-6 10-6 16-3zm-29 64v-1 1zm2-32h1-1zm95-72c11 10 20 23 29 36v-1c3 7 20 15 18 20 3 0 3 2 2 4 2 1 0 3-1 3l-8 13-1 1v1-1 1l-2 1h-2v-1c-1 4-6 5-7 8l-5 4v-1l-2 1h1-1v1c-2-1-8 5-7 6h-1c-1 1-1 2-3 2 1 0 3-3 1-2l-3 2 1-2c-1 0-2 0-1 1a205 205 0 0 0 0 46c4-1 9-6 13-10-2-2 2-3 1-5-5-6-10-10-12-16 10-10 26 0 36 9 6 6 18 14 16 22-4 9 5 18-13 12-12-8-18-10-30-2-2 1-3 4-5 1v1h1c-7 4-3-1-6-3-1 9-11 13-13 21-1 2-4 2-3 5-6-5-13-10-17-16-6-4-11-20-19-11l1 1c-4 1-6 3-9 5h1c0 2-3 0-1 1l-13 8 1-2c-1 0-2 1-3-1-1 0-5 2-3 2l-1 2 1 1h1c-3 3-2 7-6 9l-11-16c1-5 4-10 7-14 3-8 3-16 7-23-1 5 0 4 2 0 1 6-3 11-4 16v-3c-1 2-5 11-3 10-1 4-1 7-3 10l3-4v3l1-2c0 3 3 3 4 1 5-8 28-14 20-24 3-2-1-5-2-6-6-3-6-9-10-14 7-19 27-34 35-53-5-2-14-4-14-10 3-1 6-3 7-6l1-1v1c5-8 15-10 22-17 4-6 0-22 8-28l4 3zM67 158zm1 2v-1h-1v1h1zm1 1zm1-3zm0-2v1-1zm4-18v1-1zm1 9zm0 1v1-1zm0-2v1-1zm0 0zm1 35zm2-1h1-1zm39-51c-4 1-23 8-18 13 2 1 1 4 3 5 8-6 13-13 20-20l-5 2zm14-55c-14-5-28 26-32 37-2 2 0 3 0 5 21-14 37-11 32-42zm2 64c-5 1-9 8-14 8l1 1c-4 5-14 12-3 11l3 1v-1c4 10 10-7 13-12v-8zm-16 20zm2-3v1-1zm1 2-1-1 1 1zm25-144h-1 1zm5 21c0 1-2 7 1 5 7 5 17 14 12 23-14-3-14 12-13 22l18-15-2-9h3c3-4-13-32-19-26zm1-14zm1 1 1 1-1-1zm18 131c-5 4-18 5-16 13l2-1c4-2 11-8 14-12zm-13-42zm2 0c1-1 2-2 1 0h-1zm2-77h-1 1zm1 74zm4 54c-2 1-4 2-4 4l5-3 2-1h-3zm-1-55h-1 2-1zm-1 1h1-1zm3-3zm0 1h-1zm2-1c1 0 1 0 0 0zm2-4-1 3 1-3zm-1-40v1-1zm1 44v-1 1zm0-2zm0-55h1-1zm1 1zm3 49v-1 1zm2-1h1-1zm1 0v-2 2zM239 70l4 12c5-3 11-2 17 0 6-10 15-19 26-24 13-1 33 5 29 21-2 12-15 17-19 27-9 15-21 28-33 40 15 12 1 21-10 11-8-7-17 8-24 9l15-18c-9-6-23 24-29 6-7-13 22-23 11-37-7 0-17 6-23 3l-2-5c3-8 14-10 20-17-7-18 5-69 18-28zm44-5c-8 5-17 9-21 18 9 5 4 17 2 24-6 8-15 17-8 27 16-19 30-42 38-66-5 2-7-5-11-3zM337 126c-1 5-1 11 3 15l8-8h1c-8 16-4 14 7 24 7 34-70 3-42-53h1c11-1 25 10 22 22zm75-12c11 17-15 18-26 13v1c-6-5-4-16-7-23v-2c10-9 25 2 33 11zM564 15c4 2 8 5 11 9l-29 31c17-9 41 1 51 15-3 1-2 6-6 6-4 3-7 7-12 7-9 6-16 2-24 12l-1-1c-1 3-2 0-3 2l-1 2-1 1h2v-1c5 1 16-5 25-4 7 3 22 6 20 17-20 19-40 38-62 55l-13 10c-1 3-3 5-5 6-3-1-4 4-6 1-12 8-3-5-12 8-3-3-4-9-6-12l19-38c1 6-3 10-3 15 5-1 4-10 8-13-21 61 42-15 47-33-5-3-15 3-21 2l-2 1v1c-2-2-4 3-5 1l-15 4c-2-4-3-8-2-11h-1v-2c-1 10-25 35-19 38-6 11-27 19-20 35 6-3 12-6 16-12l-11 16c-5-1-7 8-10 11-5-5-9-10-8-18-7 7-18 4-25 11-4 0-2-7-5-9 2-1-1-3 0-5 1-1 2-2 1-3 10-8 24-21 25-34-8 11-35 26-45 14 2-1 0-2 0-4 2 0 2-1 1-2 18-7 32-22 45-36l4-19-8 4c3-5 9-9 12-15-8-1-14-7-14-15 2 0-1-4 2-4l1-1c2 1 7 1 9 4 4-1 7-6 10-5-1 5-6 11-1 15 5-5 9-11 12-18-1 0-2-2-1-3-4-2 7-5 8-8 5-2 14 3 19 8 4 14-24 12-28 24 7 1 4 9 8 10-5 11 11 6 14 14l-3 1c-3-2-3 4-6 3-9 12 3 9-17 20 0 6-4 12-1 18 15-11 25-27 38-42-8 15 24-22 25-27-6-1-13-1-19 2l-6 1c-7-10-1-20 8-27l32-34 4 1zm-55 7c-19 23-17 14-42 17-7 3-8 13-12 18-5 7-16 3-21 10 38 20-12 41-2 1-22 14 11-27 17-28 14-9 26-24 43-26 6-2 24-1 17 8zm-76 46v-1 1zm74 118zm1-31v-2 2zm2 2-1-1 1 1zm4-16v1c-4-4-1-8 2-12 3 3 0 8-2 11zm18 26v1-1zm1 0h-1 1zm16-71-5 4c-1 1-3 0-4 3l7-3 1-1v-1l2-2h-1zm-4 55zm13-57c0-1 0-1 0 0zM698 123c-2 2-3 6-6 7-2 4-6 7-9 10-1 2-3 5-6 5l1-1c-3 0-5 6-7 5l-7 4v-1h1c-2-1 4-3 4-5-22 13 11 2 27 35h-3v1h-5l-2-2v1l-1-2c-19-16-47-15-70-22-3-1-5 0-7 3-4 4-14 4-14-2 3-22 43-56 32-73-9-26 32-12 25 5 19-9 61 5 47 32zm-38-11c-16 9-23 27-37 37 23 3 39-21 45-41l-8 4zm3 41zm6-4h1-1zm10-5 2-2-2 2z" class="st0"/></svg>