<svg xmlns="http://www.w3.org/2000/svg" xml:space="preserve" id="レイヤー_1" x="0" y="0" style="enable-background:new 0 0 385.6 693.1" version="1.1" viewBox="0 0 385.6 693.1"><style>.st0{fill:#fff}</style><path d="M318 14c-3 17-14 33-10 51 11-7 23-18 37-21 22 10 9 38-5 49h-2c-6-8-13-18-12-28 3 7 7 14 12 20 6-8 11-20 7-30-13 4-24 12-35 20-2 4 0 9 1 13l-4 5c-10 0-20-2-30-1l-2-6 1-1v-1c9 1 17-9 25-14-3-11-3-22-3-33-4 0-11 7-14 2 10-14 19-17 21-36 3-6 10 0 12 4l1 7zm-14 72-2-7c-3 2-7 4-9 7 3 0 7 2 11 0zm34-75c5 4 13 9 14 17-6 8-12 11-22 10-7 3-13 9-17 17 6-10 13-45 24-45l1 1zM355 106v3l-16 8c2 3 7 3 9 6l-12 6 1 3 2-1c14 8 16 7-1 11l-2 6 7-4h3v-1l2 1 6 2 4-10h1v-1h1l8 6c-1 9-9 14-14 19v-1l-5 2c4-1 11 0 15-2v1c7-4 16 4 22 8l-2 2c-5-2-11 0-15-3l-7-2c-13 0-22 2-30 13 2 0 5 0 6-2 2 0 2-3 4-2l4-2c5 2 10 5 13 9l-11 9c5 5 12 6 16 11l-1 1c0 3-11 3-13 3-7-2-14 3-20 6l10-10c-14-1-15-7-7-17-2 0-4 0-6-2l-9 9c2 5 11 11 3 16l-7-6c-8-6-1-22 3-15v5l18-22c-4 1-8 1-11 3l1 2-5 4h-4c-6-6-14 3-19 5l2 13c-2 5-3 12-8 16-7-8-14-17-19-27-2 9-6 19-14 22 0-4 1-8 4-11l2 1c4-4 5-11 6-17l-4 1c-2-1-5-6-1-7l-1-1c3-3 6-5 8-10l-2-22c-2-1-3-3-3-5l-1-1 2-2 1-1c5 1 10 5 9 10 3-1 6 1 8 2l1-19-8 3c-1-3 0-6 2-8l7-5 3-2 9 4c-5 12-4 25-4 38l16-14c-7 6-12 13-17 21l1 16c5-1 9-4 13-6-3-4-6-9-7-13l1-2c3-2 5 0 7 1l11-10-7 1v-5l1-1c3-5 9-8 12-12l-9 1c-3-5 1-10 6-11l12-11-3-1-3-1 3-1v-1l9-3 2-1h1l1-1 9 5zm-83 62c-2 1-2 2-2 4l2-4zm15 1-14 10v3c4 5 8 12 15 10l-1-23zm-3-16-7 6-2 9 11-7v-8h-2zm-7-2v6l3-4-3-2zm38-31c-2-2-2-4-2-7v-1h1v-1l5 2 6-3-6 8-4 2zm17 39-14 4 2 5c7-3 18-3 23-8l6-7-17 6zm-6-10-5 5 6-2-1-3zm-3-9 5-2v-2l-5 4zm16-22v-1 1zm7 54v1-1zM299 249c-1 1 1 1 2 3l1-3v4l3-2c22-40 6 17-3 24l-4-4c-2 0-4-4-5-6 1-11 5-25 15-32-3 5-8 10-9 16zm41-14 1 10h1c-1 15-14 24-26 32h1-1c12-12 19-28 15-45-4-2-7-7-12-6h-2c9-5 21-2 23 9zM341 303c-1 9-16 12-18 24 10-4 22 2 25 13l-1 1-20 22 21 1c4-1 8 0 12 2 5 4 17 8 10 16-6 1-11-4-17-3-2-3-5 1-8 0h-5l5-4c-20-4-40-3-58 6l-3 2c-3 1-5 4-9 3-4-2-11-8-7-13l26-7 4-18c-7 3-12 12-17 0 1-1 0-3 2-3-1-1 0-1 1-1l15-6 7-23c-6 0-12-4-13-10v-3l1-1c8-1 15-4 22-8l1-2h1c6-6 22 5 23 12zm-20 34c-4 9-8 18-14 27h3c11-6 21-16 22-29-3-3-8-1-11 2zM344 402c10 11-8 18-15 22 3 9-19 9-24 12-2 2-2 5-5 7l-2-1c-8 5-20 9-22 18l8 13c1-3 2-7 1-10 6-6 14-11 22-16 5 2 10 4 13 8v4c-3 2-5 5-7 9l4-2c-4 14-12 17-24 23-1-4-7-10-2-13 1 0 2 0 2-2l2-1 5-9-14 5c-2 4-1 7 1 10v3l-1 1-2 4c-9 1-17-25-13-33h2c8-4 15-10 22-15-4-10-14-16-13-28 0-2 0-3 2-4l2-2 1-1c10 4 10 15 15 24l12-7 2-1 1-1 4-1 5-10-11 1c-3 3-10 3-9-3 2-1 4-5 7-6 13-3 21-11 31 2zm20 42c6 6-4 14-7 19l10 10-1 4h-3c-9 8-21 10-32 17h1l-3 2c7-5 12-11 17-18l-6-2c-5-8 5-15 7-23-10-5-16 12-13 19 3 4-1 6-1 9l-1-1-2 4-3-3c-6-13-2-28 3-40v-1c6 3 1 12 2 18v1c4-5 5-11 10-15 10-4 11-9 22 0zM303 524c-2 13-4 26-3 40-1 2 1 5-2 4-9-17-7-40 3-57h1c4 4 0 9 1 13zm40-4c0 3-5 3-7 4-8 2-11 12-15 18l7-15-11 3v-1c6-4 10-11 16-15l10 6zm-22 28c4 3 9 7 15 8 5-1 10 4 13 7v3c-4 1-8-1-12-1l-4 2 3-3c-7-3-15-6-18-14l2-4 1 2zm-1-3v1-1zM207 223v7c-13 9-37 22-41 37 13 10 31 6 46 5 3 0 19 2 21 0-2 7-7 13-12 18-19 9-45 8-61-7-4-5-12-14-7-21 19-9 31-16 43-34l-10-12v1c-4-4-12-5-12-12l1-2c2-2 6-2 9-2 9 6 18 12 23 22zM193 324c7 12-4 21-13 28l-11 17c-6 9-14 16-14 27 0 4-6 4-6 0l9-36c0-1-1-2-2-1-18-4 5-17 12-21l8-15v-1l1-1h1l1-2 3-2h3l8 7zm24 19c3 1 4 4 5 7-9 11-20 18-31 27 5 10 14 16 25 18l1-1c1 0 1-2 3-1l-1-1c3 1 5 2 7 5v4l-1 1c-17 1-35-7-41-24l2-4c11-5 23-13 27-25-4-2-10-2-13-6 3-5 13-2 17 0zm2-7c-1 2-2 3-4 3-3-3-8-6-9-11l1-2c3-1 18 5 12 10zm9-9-4 3-1 1c-3-5-7-9-9-14h1v-1c5-1 18 5 13 11zM182 414c0 9-4 17-8 26 3 1 6 2 7 5l-2 10c9-8 22-21 36-19 14 3 26 22 15 34-4 3-8 10-12 10l-14 15c36-50 6-75-32-24-6 10 8 24 1 33-4-6-6-13-8-20l-6 5h-3c-3 0-6-1-7-4 4-9 11-17 15-26v-2c-34 22-17-1 0-13 2-13 1-31 14-38 4 0 4 5 4 8zM199 517c6 2 11 6 11 13-3 7-10 9-16 14l-26 23c14-2 28-10 42-9 15 6 5 23-4 30 3 3 11 11 1 12-13-13-8-4-22 2-3-6-7-12-8-18 7-12 16-8 24 0 3-5 8-11 6-17l-5 1c-15 1-33 5-45 16-5 0-6-6-6-10 17-10 28-27 38-44-5-2-8-6-10-11 3-6 8 0 13-2h7zm-12 67c-2 1-4 2-4 4 1 3 1 8 5 8l7-6-8-6zM92 68c-6 3-13 2-19 6l-10 4c-12 9-29 12-37 27l1 3c12 2 38 7 46-2l4-2v-1h3c4 2 16 9 10 14-5 1-9 6-14 6-7-1-11 6-17 9v-1l9-11c-21-1-73 2-36-29 20-10 38-26 60-33 2 0 4 2 4 4 0 3-2 5-4 6zm-52 0c-1 6-2 14-7 16-4-11-15-60 1-65h2c15 12 3 33 4 49zM60 144h1l-1 1 1 1c-11 14-9 2-17 21 13-3 11 10 11 19 1 5 0 12 3 17 13-9 20-24 31-34-5 9-13 18-15 29-24 36-23-3-25-24-2-2-5 0-8 0h-1a255 255 0 0 0-17 37c-6 0-10-5-10-11 3-9 11-18 15-27l20-29c1-2 2-3 4-3h2l3 1 3 2zM56 234l-1 2c22 0 12 41 3 51l-1 1c-2 1-4 0-5-2-1-5-9-11-7-16l5 5v-1c1 1 3 3 5 3 4-9 4-20 3-29h-1c-4 0-7 4-9 6h-1l-6 17h1l-10 28-3 4h-1l8-39c-3 3-17 16-17 7l23-24c2-7 4-15 8-21v-2c5 0 8 6 6 10zm42 33c0 8-9 3-13 2 2-4-4-10-4-15-1-4-6-8-4-13 11 1 19 15 21 26zM95 325c-4 24-32 27-51 35-3-7 21-10 26-14 15-5 26-30 4-31-8 1-17 1-25 5-6 1-25 17-30 12-1-1 0-4 2-5 18-16 70-42 74-2zM64 390l5-4c2 2 6 3 8 6-2 5-9 5-13 8l-1 6c10-5 21 1 26 10l-2 4c-2 4-4 8-8 10v1c-4 2 7 7 8 9h1c1 0 2-2 3-1 5 3 20 6 17 13-7 2-15-1-22-2-2 12 1 24-4 35l-8 10h-3l-18-20-7-1c-2 1-6 1-8-1l-5-9c-9 3-17 9-25 15l-4 1-2 2c-2-2-2-5-2-8l2-2h1v-1h1l1-1c8-3 16-9 25-12l-1-2v-1h1c3-3 6-1 9-1 3-2 6-5 8-9l-10 4c-3-1 0-4-3-5-6-6-12-14-11-23 3-8 12-11 18-16-5-1-9-5-9-9l3-3c5 2 10 2 15 2l2-15c2-1 3-2 3-4 5 3 8 8 9 14zm-16 16c-7 2-16 6-19 14 2 7 5 14 11 19l8-11c-3-1-9 0-8-5h2l1-2 5-2 1-13h-1zm0 26c-4 2-5 5-6 8l7-2-1-6zm28 4c-7 4-16 3-22 9l-7 7 27-7 2-9zm-3 17-21 5-1-1-4 2c5 2 5 14 8 12l2 1 2 1v-1c4 4 13 6 15-1l-1-18zm-16 20zm11-62-6 1-1 6c3 1 4 3 5 5-1 2-3 3-5 3l-2 8c3 0 2-2 3-4l2-1c2-1 3-2 3-4 3-3 5-6 6-10l-5-4zM90 503c6 3 3 10 4 15v22l1 37c3 8-3 13-9 17h-2l-14-18 2 1 9-1 3-3-1-39-20 4c-2-2-3-5-3-8-2-3 2-9 1-13l-7 5c-4 3-2 9-5 13-3 3-6 0-8-2l-14 14c0 13 0 28-6 40-5-2-9-8-7-14 1 1 0-2 2-2 2-5 3-11 3-17-2-14 3-28-5-40l1-2c10 0 13 12 12 20 1-1 1 3 2 4 4-1 8-4 11-6v-1 1l1-1v-1l1 1v-17c-3-1-2-5 0-7v-1c1 1 2-2 3-1 5 1 11 5 7 10v8c3-3 8-5 9-9v-2l1-1 1-1h1l5 2-1 8 5-2 1 1 5 2v1c-4 4-11 3-12 9 5 1 11-3 16-2l-1-17c-5-4-8 3-13 4 3-7 13-16 21-11zm-49 20h-1l-1 1c-3 1-4 0-6-2h-1c1-2-2-4-2-7h2v-1c4 1 8 3 10 6l-1 3zM60 596c3 4 8 7 9 12l-1 2c-6-1-10 4-14 6 4 3 7 7 8 12l3-5 1-1h1v-1l2-1v-2h2v-1l2 1c6 1 10 5 13 9-6 8-17 11-26 14-6 12-8 26-8 39h3c0 3-2 6-5 8-17-10-8-47-4-62-12 17-19 37-36 50l-3 2H5c-3-8 7-10 10-15 9-13 15-28 21-41-4 1-10 5-15 3l-2-8 1-1h1v-1 1l1-1v-1l1 1v-1l5 2 8-2h-6c6-3 15-5 20-12-1-2-4-5-2-8l2-1h1c3-2 7 0 9 3zm28 56-11 13v-1l-2 3c6 0 14 1 18 7v2l-2 1v1c-3 0-4 4-7 5-6 2-10 5-14 10l5-6h-1c3-3 4-7 3-11-6-1-14 2-19-2-2-7 3-12 6-17l-4-2-1-4c4 0 8-5 12-5l3-2c5 1 11 4 14 8z" class="st0"/></svg>