<svg xmlns="http://www.w3.org/2000/svg" xml:space="preserve" id="レイヤー_1" x="0" y="0" style="enable-background:new 0 0 385.6 693.1" version="1.1" viewBox="0 0 385.6 693.1"><style>.st0{fill:#fff}.st1{fill:#e50012}</style><path d="M215 144.8c-5.1 3.6-6.4 9-11 12.8.3.9.1 1.2-.2 1.3-6 4.5-10.8 14.3-15.9 20.4-2.3 5.2-7.5 9.6-10.1 15.1 0 3.3-.9 6-2.8 8.3-3.3 8.2 14.9 6.1 19.3 10.6 4 5.5 11.9 3.6 16.1 9.2 4.3 1 7.7 4.5 11.5 6.4 5.4 2.6 1.7 9.9 1.4 14.3-2.2 1.2-1.5 3.3-2.3 5.1-5 3.5-9.6 9.7-16.5 9.2-6.4 5.5-13.3-1.5-20.3 2.7-5.5-1.3-9.3-6.8-15.6-6-7.7.9-12.4-4.9-19.8-4.6-11.1-3.3-16.5-15-27.6-18.4a38.4 38.4 0 0 1-14.3-38.6c1.6-5.3 14.9-30.8 6-31.7-.9 2.3-1.5 4.5-4.1 5.5-2 5.5-1.8 11.9-3.7 17.5-.8-7.7 1-14.1 3.7-20.3-1.7-3.2 2.9-4.9 2.3-8.3 3.1-2.3-.8-7.4 3.7-9.2l5.5-17c-1.3-1.8 1.9-6.9-2.8-6l-.4.5c-1.8-1.3 1.4-2.8-1-3.7-1.7-.3-3.6-.3-2.7-2.7-.9-1.3-1.7.4-2.8 0 .8-2.6-2.6-2.2-2.7-4.2.4-4.9-6.4-4-5.1-9.2-1.5-1.5.8-4-.9-6-5.5-6.9-10.1-14.5-16.1-20.7C83 68.6 75 61.2 77.3 51.6c1.2-1.9 3.5-3.5 3.2-5.9-3.8-4.4 3.1-5.5 4.2-8.3 3.5-.4 3.2-3.8 6.9-3.7 5.4-5.7 14.1.4 20.2 2.3 4.9-2.2 7.8 2.7 12.4 2.3 3.2-1 6.3.1 9.2 0 1.8 2 5.1 1 6.9 1.4 1.9-.1 1.4-3.2 3.7-2.3 1 2.2 4.1 2.9 4.6 5.5.6.3.9-.5 1.4-.9v-1.9c2.8.1 3.8 3.5 6 5.1-1.9 4 3.7 6.4 5.9 8.7-1.8 5 6.5 2.7 3.7 7.4 3.5.5 2.9 4.5 6.5 4.6-.8 1.7 1.2 2.2 1.8 3.2 2.9.5 4.6-3.3 6.4-4.6 3.1-2.9 8.3-2.6 9.7-7.3 3.7 1.7 4-3.1 6.9-2.8 1.1-4.1 6.7-1.4 9.2-4.1 1.2-2 5.1 1.9 4.6-2.3 5.1 2 9.2-2.2 14.3 0 5 2.6 9.7 5.8 15.6 6.4-.5 5.1 5 8.4 2.3 13.8 8.6 4.1-2.4 12.5 0 18.9 2.4 4.2-4 11-1.8 15.1L215 144.8z" class="st0"/><path d="M298.9 227.2c-2.3 2 .5 6.1-2.3 7.8-1.2 6.1 5.2 7.9 3.6 14.3 1 1.3 1.7 2.7 1.4 4.6 3.8 4.2 7.7 6.5 11.1 10.6 0 2.4-1.4 4.7-3.7 5.9-5.2 2.2-4.5 15.6-12.9 9.7a24.5 24.5 0 0 0-10.1 12.4c2.1 3 4.5-.9 6.4-1.8 1.7 2.6-1.8 3.3-2.7 5-4 2.9.4 10.4-5.6 12.5.8 2.9-6.5 1.3-3.2 5 .4 2.2-2.2 3.2-3.2 4.6-1.2 0-2 .5-2.8 1.4.4.8 1.3 1.3 1 2.3-2.7 0-2.8 4.4-5.6 2.8-1.8.9 1.9 4.5-1.3 4.6-.8.8-1.9 1.4-1.4 2.7-.9 0-1.3.9-1.9 1.4 1 2.3-2.4 1.7-1.8 3.7 2.2 2.4 7.6 2.7 6.4 7.3-1.9 5.1-5 9.9-6.4 15.2a204.7 204.7 0 0 1-54.8 53c-9.9.1-19.8 2.4-27.6-3.7-3.5.5-3.8-3.3-6.5-4.6-1.9-1.3-3.8-3.2-6-4.1l.5-.5c-1.2-2.6-6.1-1.9-5.5-5.9-3.7-4.7-6.5-10-11.1-14.3 1.2-.9 1.2-2.9.5-4.1-2.2-1.9-2.3-4.9-4.1-6.5 1.5-2.8-2.2-4.7-2.3-7.3-2.4-7.4-3.2-15.5-6-22.7a56.5 56.5 0 0 0-7.8-25.3c-.9-.4-1.1-1.8-2.3-1.4-2.8 3.7-.5 7.5-1.4 11.5-2.1 12.1-7.8 22.5-12.9 33.3-3.5 3.7-5.2 8.2-8.7 11.9-.5-.8-1.5-.3-2.3-.4-.1-2.7-3.1-.6-4.2-1.9-2.4-3.3-6.5.5-8.7-2.7.1-2.4 0-4.7-1.4-6.5-4.5 1-4.6-5.6-9.7-3.2-1.3-1.4-.9-4.6-3.6-4.1-1.3 1.2-2.4 2.7-4.2 2.7.3-8.4-3.2-17.2.5-24.8-3.2-.8-2.2-4.2-3.2-6.5 2.3-2.6-.8-5.8.9-8.7a33 33 0 0 1 2.3-22.1c-2.7-4 2.8-4.6 2.3-8.3.4-1 1.8-2.3.4-3.2 1-2.2 1.9-3.1 3.3-5 0-3.6 3.3-6.5 2.7-9.7 1.9-2.2 2.4-3.8 5.1-5.1-.1-4.1 3.3-8.8 6-12.8 3.5-2.2 7.9-1.4 11-4.2 1.7-.3 2.2 2.3 4.1 1.4 2.2-1.2 1.3-5.1 4.6-4.1 12.2 14.9 10.9 35.3 15.2 53.4.8 2.6-1.5 4.9 1.4 6 2.2-.9 5.1-1.8 6-4.1 4.9 1 9.7-2.2 13.8.9 5.2-3.1 5.4 3.6 10.1 3.2 2.2 3.5 5.8 5.5 9.2 6.9-1.3 3.2 2.7 5.2 3.2 8.3 4.2 2.2 3.1 7.6 7.4 9.6-.9.5-.4 1.5-.5 2.3 3.8 2 5.1 6.9 9.2 7.9 16.8-2.8 31.3-19.9 42-32.2-.4-1.2.9-1.7.4-2.8 14.8-10.9 24.4-29.2 35.1-43.8 5.4-6.4 12-14.3 15.6-22.1l17-5.6z" class="st0"/><path d="m333.4 75.6-126.6 35.8L244 242.9l131.5-37.2-37.2-131.5-4.9 1.4zm-2.1 11.2 31.6 111.9L251 230.3l-31.6-111.9 111.9-31.6z" class="st1"/><path d="m220.1 125.8 5.5-9.2 11.1-3.2 6.9 7.3c4.6-4.5 9.6-8.3 14.2-13.3l1.4-.5c3.8 5.6 7.3 11.3 10.1 17.1l-20.7 17c-.5 5-2.7 10.6-1.8 15.2l30.8-14.8c1.8 2.6 1.9 5.8 3.7 8.3.1-17.1 4.1-50.2 4.1-50.2l18.9-4.6c.4.8 1.3.8 1.8 1.4l-2.7 18.4c5.4-1.9 10.6-6.5 16.1-9.7 4.6 2.6 9.1 5.6 13.3 9.2l-2.8 15.2c4.5-1.5 9.1-3.8 12.9-6l1.9 8.7c-.9 5.2-.1 11.1-2.3 15.7-6.1.8-12.5 2.3-18.4 1.8-12.3-1.3-9.1-14.6-12-22.5-5 .6-9.1 4.1-12.9 6.4l4.2 18c-2 .9-4.5 1.8-6 2.7 3.2 2.7 6.8 4.4 10.1 6.5 3.1 1.8-.3 6 .9 8.2l31.3-15.6c4.7 3.2 9.3 6.8 14.3 9.2l5.9 23.5-8.7 16.5-17.9 5.5c-2.4-4.2-6.8-6.9-9.2-10.5 7.9-5.5 16.4-9.3 20.2-18.9-2.8-2-5.9-3.3-9.2-4.1L315.8 191l-1.4.5-12.8-14.5c-2.6.6-5 1.3-7.3 2.3-2.7-1.5 1.2-2.7.4-4.6-4.1-2.2-8.6-3.3-12.4-6 2.2-4.2 5-8.1 6.4-12.4-2.2.1-4.1.8-5.9 1.8.5.3.4.9.4 1.4-5.4 3.2-12.2 2.9-17.9 5.5 3.3 1.8 7.3 2 10.6 4.1-.9 4.2-3.8 7.4-4.6 11.5a77.7 77.7 0 0 0 15.1-5.5c6.5 6 11.5 12.4 18 18.4-.8 8.1-2.4 15.7-3.7 23.5l-12.4 3.7c-2.8-1.3-6.1-1.3-9.2-1.9l-1.4-1.4c2.2-7 3.1-14.7 4.6-22-4.4 1.5-8.7 3.1-12.9 5l-3.2 25.9-3.2 1.4c-5.4-.8-9.6-4.2-15.2-4.2l-1.8-7.3c2.6-1.3 2.2-4.6 4.1-6.5 6.5-7.7-6.4-10.1-9.7-15.2l-2.3-5.5a38 38 0 0 0 13.8-6l2.8-11.5c-1.8-.3-4.1.6-6 1-8.1 4.7-11.8-6-17.9-8.3l-3.2-11.5s3.7-8.8 5-13.4c-3.8-1.5-6.8-5.9-11-6.9l-1.5-6.6zM35.8 375.1c-1.2 2.3-4.6 1.2-6.4 2.7-.5 4.1.3 7.8 4.1 9.7 6.7 2 12.7-2 19.3 0-1.3 1.5-4.1 2.2-5 4.6-.9 2.3 0 5.8-2.8 6.9-2.8.1-5.5.1-7.4-1.9 2.2-.8 5.6-.6 7.4-3.2.5-2.9-2.9-3.8-4.6-5-6.3-.9-4.2 6.4-10.1 6.4-.9 1-3.1 2.4-2.3 4.6-.4 2.6 1.9 4.9 4.1 5.5 5.5 2.1 12 .4 17.5-.4 1 .8 1.7 1.8 1.4 3.2-6.9 4.6-16 .8-23-.9-2.2-1.3-3.2-4.3-1.4-6 .4-1.9-.8-4.1.9-6 1-5.2-1.5-9-2.7-13.3-.6-.5-1.2-1.4-1.9-1.4-3.5 5.4-1.5 11.6-2.7 17.5.5 2.8-.3 6.3 0 9.6h-1c-.3-8.6.6-17.8 1-26.7 2.7-5.8 10.2-5.8 15.6-5.9zM44.1 375.1v.9c-1.8.6-4.3.6-6 0 1-3.1 3.7 0 6-.9z" class="st1"/><path d="M51.9 374.6c12.9.8 27 .4 39.7.5 4.1 2.4 4.5 6.9 4.1 10.5-1.8-3.3-1.8-7.8-6-9.6l-8.7.4a35.5 35.5 0 0 0-12.4 16.1c4.5 1.3 2.8 6.5 3.2 9.2-2.2 0-4.3-1.7-6.5-.4-3.5 2.4-2.4 10.7-8.7 7.8a6.1 6.1 0 0 1 0-4.6c3.2-2.8 5-7 6-11 .5-.9 1.4-1 2.3-1 4.6-4.3 6.1-10.4 11-14.2.6-1.3-.9-1.3-1.4-1.9-9.3 2-18-1.7-27.1-.4-.4-1.2.5-.6.9-1.4 1.2 1.4 2.1-.6 3.6 0zM95.7 387.9c0 .5.1 1.2-.5 1.4-.8.1-1-.6-.9-1.4h1.4zM96.2 391.6c0 8.4-2.2 17.1 0 25.3l-.5 21.2c-4.5-2.8-5.3 3.6-7.4 5.5-.4 2.2-2.9 4.6-1.3 6.4 2.3.9 3.6-1.2 5.5-1.8 1.5-1.1 1.2-4 3.2-4.1 0 2.4-1.4 4.1-2.8 5.9-8.4 3.2-17.8 0-27.1 1-5.4.1-10.8 1.7-16.1.4v-.9c3.7-1 8.6.6 11-3.2.8-2.4-2-3.5-2.3-5.5 1.4 1.3 2.8-.4 4.2-.5 1.5 0 .3 1.8 1.4 2.3a8 8 0 0 0 5.9-3.2c.1-2.7 1.8-5.2.5-7.8a4.2 4.2 0 0 0-3.2-1.9c-2.7 2.2-.4 6.8-3.7 8.3-.6-1.7-.6-4.2-1.8-6-1.8-.5-2.7.9-3.7 1.9-.4 1.7-1.3 3.1-.9 5-.9-.4-1.2-1.8-2.3-1.4-2.8 1.3-.1 5.9-3.7 5.6-2.9-2.6-1.8-7.3-1.4-10.6l1.4-3.2c1.9 1.4-.1 5.5 1.8 7.3 3.1-2 4.2-5.6 5.5-8.7-.4 1.3.8 1.9 1.4 2.7 1-.5 2.4-.5 3.2-1.8.1-1.9 0-3.8-1.3-5.1l-2.3 1.4c.4-1.9.6-4 2.3-5.5 6.9-.1 1 10 8.7 9.7 2 1.8 3.5 3.8 3.7 6.4 0 3.3-1.4 6.4-4.2 8.3-2.7 1.3-8.2-1-8.2 3.7 6.3 2.8 14.3.3 20.7.4 5-3.7 5.2-9.5 6.9-14.7-.3-2.3-1.3-4.2-2.8-6-1.5-1-3.3-.1-4.6.9-1.7 1.4-2 5-5.1 4.2-.1-2-1.7-3.5-1.8-5.5 5.1 1.4 7.3-5.5 12.4-2.3l5.5 4.6c1.3-2.2 1.3-5 1.9-7.4-.6-1.5.3-3.6 0-5.5-2.6-5.8 1.2-12.3-1.4-18-3.3.9-1 5.6-3.7 7.4a19.3 19.3 0 0 1-17.5 0v-1.4c9.3 3.8 17.1-3.8 22.7-10.1.8-1.6-2.1-4.3 1.3-3.7zM21.5 410.9c.3.8-.5 1-.9 1.4l-1.4-.4c-1-1.7 1.9-2.6 2.3-1z" class="st1"/><path d="M89.7 416.1c.8 2.4-1 4.1-2.7 5.1-4.7 0-.1-6.4-4.2-7.9 1.6-4.8 5.4 1.1 6.9 2.8zM41.8 418.4c1 0 2.2-.3 2.7.9-1 1.9-4.4 2.1-6.4 3.2-.8.9-.4 2.3-.5 3.3 2.6 2.7 9-1.2 10.6 2.7-2.3 1.4-6.9.6-6.9 4.6 1.5 2 1 5.3.5 7.4-4.4-.8-2.4-7.2-6.9-8.8l-12.4 2.8c-3.5 3.6 0 8.8.9 12.9 1.5 2.2 3.7 3.3 6.4 2.7 2.7-1.8-2.2-2.9-1.8-5 .3-1.5-.6-2.4-.9-3.7l.4-.5c-.5-.1-.4-.9-.4-1.3 2.9.6 4.9 3.7 7.8 4.6-.1 1.7-2.2 2.4-1.4 4.6 1.7 2.6 5.1.5 7.4 1.8-.1.5.1.6.4.9-7.2-1.3-18.6 3.6-20.7-6-2.6-9.3-.9-20.6-1.4-30.8h1c1.9 5.6-2.3 12.3 1.8 17 4.6-2.3 10.9-.3 14.3-5.5-1-2.6-3.8-2.7-6-3.2-2.3-.1-4.5 6.1-6 1.8 0-6.9 14.2-2.6 9.7-12.4 4 .6 3 7.9 7.8 6zM95.7 440.9c.1.5-.3.8-.5 1-.4 0-1.1.1-1.3-.5-.1-1 1.3-1.3 1.8-.5zM45.9 451.1v.9c-.5-.1-1.5.4-1.8-.5.4-1 .9-1.9 1.8-.4z" class="st1"/><path d="M211.8 431.7c1.2-.9 1.9-.8 2.8.5 9.3 6.4 21.6 8.7 28.5 17.9v1c26.2 20.2 45.3 46.4 68.2 69.5-.8-.3-.9.6-1.4.9.1 2 4.3 1.5 3.2 4.6-1.9 2.7 1.9 4.6.5 6.9.4 3.5 2.9 7 1.4 10.2 2.2 2 1.5 5.4 1.8 7.8-2.3 1.4-1.2 4.9-2.8 6.9-.1 16.6-6 31-11.5 45.5-2.4 1.8-2.3 5.5-5 7.4v.9c18.3 15.7 32 34.9 47 53-3.6-1.8-6.8-5.8-10.6-5.5v.9c3.1 2.3 6 5.2 8.3 8.3-5.8-4.7-11.3-10.1-17.9-12.4-2.4-2.9-6.4-2.3-9.2-4.2l-1.9 1.9c7.7 5.5 14.5 13.4 22.6 17.9-11.1-2.8-20.7-11.8-33.3-8.3-4.2-2-9.5 2.7-12.4-2.7-5 .3-9-4.5-13.8-6-2.7-3.3-7-2.7-9.6-6l-2.3.5c.1-1.7-.3-3.3-1.9-3.7-3.7 1.5-5.1 5.9-9.6 5.5-3.1 1.8-6 5.1-9.2 5.1-12.4 1.2-22 11.5-35.1 8.2-1.3-1.7-4.1.4-5.1-2.3-4.2 1.3-7-2.3-11-.4-4.1.4-6.3-4.2-10.6-3.2a83.4 83.4 0 0 0-29.9-4.6c-1.7 2.6-3.1-1-5-.5-12.3-.6-26.5 1-37.4-4.1-.5-3.5 9.1-4.2 2.3-7.9-2.9-.8-6.4 0-8.7-2.3-.8-5 11.6-2 5.9-7.3-.8-.1-1.8.4-2.3-.5-.4-3.1 4.2-2.8 3.7-6 5.4-1.2 1.3-6 1.9-9.2-.5-6-7.3-6.4-10.6-10.5-2.2 2.2-5.4 3.6-8.3 2.3-1.8-4.6-6.8-6.1-11-6.9-4.5-4.5-10.5-5.6-13.8-11.5-3.3-9.3-9.3-17.4-11.5-27.2l-1-.9c-.8-7.4 2.1-16.1-2.3-22.1 6.1-15.6 9.9-32.2 20.3-46.1v-2.3c3.1 1.3 2.8-3.2 5-4.6 21.7-27.7 52.5-43.6 84.8-52.5 5.2-.1 8.3-5.5 14.2-3.7v.9c-3.1.8-2 4.8.5 5.5 5.1 1.3 10.1-2.3 15.6-.4 1-.8 2.4-.5 3.3-1.9-2.9-2.9-7.4-1.8-11.1-2.7-.4-.8.5-1.3.9-1.9 8.4.1 17.3-2.6 24.4 2.3zm-16.2 58.1c-.6-.1-1.5.1-1.4.9h1.4v-.9zm-11.5 4.1c-5.8-1.4-10.7 2-14.7 6-20.9 9.7-34 31.5-39.2 52.1-6.6 9.7-1.2 23.4 1.4 34 3.8 2.6 7.7 6.8 12.9 4.6 2 3.1 4.1-1.3 5.5 2.3 2.6-1.5 4.4 1.5 7.3.5 2.4 2.8 4.5-1.4 7.4 0v-1.8c-4-4.9-3.1-11.5-8.7-15.7 1.1-3.5-6.5-9.7-.5-10.6 5.2 2.6 1.9-4.1 5.5-5.5 6.3-.3 11.4-3.2 18-2.7a112 112 0 0 1 54.8 12.8c5.6 1.7 6-6.1 10.1-8.2 13.2-39.3-5.7-36.2-29.9-56.3-1 0-2.2-1.7-3.2-.4-9.7-2-17.8-6.7-26.7-11.1z" class="st0"/></svg>