<svg xmlns="http://www.w3.org/2000/svg" xml:space="preserve" id="レイヤー_1" x="0" y="0" style="enable-background:new 0 0 73 253.7" version="1.1" viewBox="0 0 73 253.7"><style>.st0{fill:#fff}</style><path d="M42.4 13.7c.2.8.2 1.7 0 2.4a174 174 0 0 0 8.8-.9c.4-.1.6-.3.7-.7 2.7.5 4.6 2.8 7.2 3.7l.5 1.3c-5 3.8-12.7 1.1-18.6 2.2a71 71 0 0 0-18.7 3.5c1.4 1.4 5.3 2.9 3.9 5.3A48.2 48.2 0 0 1 20 45.7 19.8 19.8 0 0 1 7 58.5c6.3-8.7 9.6-19.8 12.8-30.1-.5-3.3-5.5-4.5-4.6-8.3.3.1.5 0 .5-.4l.5.2v-.5h.2l-.2-.3a5 5 0 0 1 3 1.3c4.8-.7 15.2-1.6 14.5-8.3-4.3-1.6-1.6-3.4 1.3-4.4 2.7.6 8.9 2.4 7.4 6zm.9 13.7c-.3.3-.4.6-.2 1-.8 1-1.2 2.1-1 3.4 2.2-.2 4.3-.6 6.4-1.2.4-.7.9-2 1.9-1.9.3-.1.4-.3.3-.7a55 55 0 0 1 9.3 4.9c-3.8 5.4-12.6 3.7-18.4 5.9.2 1.6-.1 3-.9 4.4.9-.3 5.8.6 6.2-.5 5.2 2.1 11.1 5 13.1 10.6-2.5 1.7-5.7 2.4-8 4.4.5.3.8.8 1 1.3-5.9 2.1-12.4 1.5-18.3 2.8-.8 1-1.8 1.5-2.9 1.3l-3-2.9c-.6-5-10.8-7.7-9-12.1 5.3 2.7 10.4-2.1 14.3-5.2l.3-15.2a3.8 3.8 0 0 1-3.2-1.8c.4-.1.8-.2 1-.7H32c2.5-1.7 5.1-3.2 7.8-1 1.4 1 3.8 1.6 3.5 3.2zM45 49.3c-1 .2-2 .2-2.9-.1A30 30 0 0 0 31 53.4l1.8 3c5.8-.9 12.3.9 14.5-6a2.3 2.3 0 0 0-2.3-1.1zM25.2 75.3c-.9 1-1.8 2.1-2.5 3.3 3.6 0 6.8-.3 9.7 2.3-1.6 5.5-7.7 1-11.6 1.5-4 7.1-8.2 14.6-15.1 19.1v-.8c6.3-7.7 8.6-17.6 13-26.3-.5-.4-1.9-1.9-.3-1.8l-.2-.5c1-.6 2.3-.5 3.2-1.3h.6c1.6-.6 3.3 1.4 4.7 2.1a6 6 0 0 1-1.5 2.4zm23.5-4.5c2.3-.9 4.8 2.4 6.9 3.3 1.3.6 1.1 2.1.5 3.2a81 81 0 0 1-7.1 1.3l-.2.2v3.6c4.8-1.6 10 1.9 13.1 5.6v2.4c-.6 1-1 1.9-1 3.1l.1.5c-.3 7.6.6 15.3.7 22.9-.2.3-.3.6-.2 1a9.3 9.3 0 0 1-5.2 4.6c-3.2-2.2-4.9-6.7-7.9-9.4-1.3 3.5-1.3 7.3-3.9 10.2-.7.2-1.1.7-1.3 1.3-.9-5-1.4-10-.9-15.1-2-.7-5 2-6.2-1-1.3 1.9 1.1 3.5.5 5.5-.3.3-.5.7-.7 1.2-2.1 1.3-3.7-1.8-3.9-3.6l-4.4 2.5c-.4.8-.5 1.8-.2 2.5-1.9 1.9-4.2 2.7-6.4 4.1a3 3 0 0 0-.1 2.1c-.3 4.3-4.6-.5-4.9-2.6-.3-2.7-.9-5.6-3.2-7.9.1-.2-.1-.5-.2-.7l.5-.3c-.2-.2-.2-.5 0-1v.2l.2-.2c-.2 0-.2-.1-.2-.3 2.6-1.4 4.1-4.3 5.6-6.7-3 .8-5 3.9-8.1 4.1-.5-.2-1-.7-1.5-1.3v-.7h.2l.3-.5c.2.2.3.2.4 0a.5.5 0 0 1 0-.7v.2-.5c3.3-.9 11-4.4 9.2-8.8-1.6-.2-4 1.7-4.9 0 1.3-1.5 3-2.9 4.7-4.1h.5c.2-1.5.2-2.9 0-4.4.5-.1.6-.2.3-.5.2-.3.4-.3.7 0l-.2-.5h.5l-.2-.2c1.6-.4 3.2.4 4.2 1.8 1.7.3 3.3 1 4.7 2.1-.4.5-.6 1.2-.8 1.8-.9.7-1.9 1.2-3.2 1.3-.5.8-.7 1.6-.5 2.5 1.7-.2 3.2.2 4.7 1.3-.4.7-.6 1.5-.8 2.2A31.1 31.1 0 0 1 21 102c-1.8 3-6 5.2-6.2 8.6l.9.5c4.5-4 10.6-9.2 16.6-4.4 2.2-9.5-.1-17.5 10.4-21.9l.5-3.8c-.7-.9-2.3-.5-3 0a5.3 5.3 0 0 1-5.4-3.4l.2-.2c.2-.3.4-.6.8-.8v-.2c2.5.2 4.9-.4 7.2-1.3.7-1.7.6-3.8-.3-5.5.4-.2.7-.4 1-.8v-.2c1.6-.3 3.4-.8 4.7.7l.3 1.5zm-24 37.9c-2.1 1.5-6.6 3-6.4 5.9 1 0 1.9.6 2.9.5 1.8-1.6 3.5-4 4.2-6.4h-.7zM42 98.6c-1.8-.8-3.6 1.1-5.2 0a33 33 0 0 0-.5 7c1-2.6 3.9-4.3 5.7-6.6v-.4zm.5-9.5h-1.3c-3.7 1.3-3.9 5.5-4.4 8.7.2.1.5-.1.8-.2-.3 0-.5-.2-.5-.5 2 .3 3.3-1.7 5.2-2.1l.2-5.9zm-.5 12.6c-1.3 1-2.4 2-3.5 3.1v.5c1.3-.1 2.4-.4 3.5-1v-2.6zm9.6-15.1c-.9-.2-1.8-.2-2.7 0l-.2 4.1c1.9.6 3.7 1.6 5.2 3.2-.3 1.1-1 2-1 3.1-1.7.2-3.3.9-4.9 1.5v3.2c2.5-1.3 7.3-.1 5.6 3.3-1.7 1.4-4.2 1.6-5.4 3.6v3.3a9 9 0 0 1 2.1 1.8c9.1 2.4 3.8-17.5 5.1-22.7.5-2.4-2-3.8-3.8-4.4zM63 74.4a9.3 9.3 0 0 1-4.5 1.8l-.2-.2v-.2c-.2.2-.4.2-.5.2l-.3-.5c1.3-2.2-.7-3.4-1.5-5.2.4.1.6 0 .7-.2 2.3.4 6.3 1.4 6.3 4.3zM13.6 175.6c.8-.8 1.5-1.8 1.9-2.9-1.6 3.9-.3 7.5 1.9 10.8l-.5 1.5c-2.6.3-6.5-3.8-7-6.4 0-.7 1.4-5.7 1.5-6.6.1-.2.3-.2.5-.2l1.2 2.3c-.2.7 0 1.1.5 1.5zm7-32.6-.8 1.2c.8.1 1.5-.3 2-1 .3.1.4-.1.5-.5.7.2 1.4.1 1.9-.4 0 .3.4 0 .5 0 1.4.7 2.7 1.6 4.1 2.5-2.2 2.3-4.6 4.5-5.9 7.5.4.3.8-.2 1.3 0 1.6-.9 3.2.2 4.6 1.2-.6 5.3-6.4 7.6-8.6 12.1H19c1.2-2.5 3.6-5 3.6-7.8-3.7 1.4-6.4 4.6-9.5 6.9-.2.5-.5.9-1 1.1-1.9-1.3-3.4-4.3-1.7-6.3.5.1.9-.2 1.3-.7.4.3.8.4 1.4.5 2.3-2.7 3.1-6.3 4.9-9.3-.8-.1-1 .8-1.6.8-1.5 1.2-3.1 2-4.2 3.3-1.4-1.3-1.8-3-2.4-4.6a2 2 0 0 1 2-1.3c2.8-3.2 5.1-7.3 7-11.1l-.9-1.5.2-.2v-.5l2.5-.7c.2-.3.5-.4.9-.2 1.5-1.3 3.4.4 4.4 1.4a68.6 68.6 0 0 0-5.3 7.6zm.4 30.9c.5 1.7 3.8 4 1.9 5.6-2.9-1.3-6.4-3.4-6.5-6.9.5-.8.7-1.8.7-2.7.1.2.4.2.7 0 .2.5.6 1 1.2 1.3 1.2-1.3 2.3-2.8 3.3-4.2.1 2.3-1.8 4.5-1.3 6.9zm8.6-1.9c.1.7-.2 1.1-.7 1.4-2.9-1.4-5.7-3.7-6.1-7 .2-.2.4-.2.7-.2-.2-.2-.3-.3-.2-.5.1-.1.2-.1.4 0 .2-.1.2-.1 0-.2.2-.1.4-.2.5-.5 2.7 1.5 3.9 4.3 5.4 7zm31.7-30.4c-1.2 5.9-2.3 14.8-7.3 18.4-.6.5-1.2.8-1.9.9-.4-.4-1-.7-1.5-.9a45.4 45.4 0 0 0-8.7-6.4 40.6 40.6 0 0 1-13.5 10.9c.1-.2 0-.4-.2-.5a97.7 97.7 0 0 0 9.7-19.4c-1.2.3-2.5.7-3.6 1.2-.2.3-.4.3-.5 0-1.1-.6-2.4-.2-3.4-.7.7-.6 1.4-1.3 2.2-1.8h.2c5.9-3.6 11.8-8.2 18.9-8.6 3.8 1.3 6.6 4.3 9.6 6.9zM62 168l.7 1.9c-.4.5-.9.8-1.5.9a37.4 37.4 0 0 1-5.5 4.1v.3c1.4.8 2 1.9 2 3.4-5.6 2-11.8 1.3-17.5 2.6-.7.7-1.4 1.3-1.9 2.1-2-.7-2.8-2.9-3.8-4.7.9-2.9-1.5-7.2-3.8-9.1-.8.1-1.3-.3-1.6-1h.7l.5-.3-.2-.7h.2l-.2-.5c.4.1.6-.1.7-.4 1.6-.1 3 .1 4.4.7 7.7-5.2 21-8.9 26.8.7zm-13.7-1c-3.5.4-6.9 1.3-10 3.1.3 1.9 2 3.5 2.2 5.5 2.7-.6 5.4-1.3 8.3-1.5.9-1.9 1.5-3.8 2.9-5.4 0-.8-.3-1.3-1-1.9l-2.4.2zm3.4-27.1c-3.3.1-6.4 1.4-9.5 2.4 1.5.9 2.7 1.9 3.7 3.3a39.1 39.1 0 0 0-3.7 7c.3.2.6.2 1 .2 7.6 4 9.8-5.9 10.2-11.5l-1.7-1.4zM48.7 203.1c4.2 5.5 11.2 8.9 14.7 14.4-.4.6-1 .9-1.7.7-2.5 2.2-6.2.6-8.4-1.2-7-3.9-11.8-11.6-16.9-17.8-11.4 3.6-9.2 19.8-28.4 26l-.2-.2a206 206 0 0 0 21.6-29c-.7-3.3 5.7-4.5 8.4-4.6 3.9 3.5 7.1 8.2 10.9 11.7zm-21.2 18.7v.3c.7-.8 1.2-1.6 1.6-2.6-2.3 5.2-1.6 14.7-2.2 18.3.7 1.3-.5 1-1.2 1.4l-.2-.4-.3.4c-3.5-1.6-6-6.2-3.9-9.7 1.8-5.7 3.6-12 6.7-16.9-.1-.2 0-.4.2-.5 1.5 2.8-.1 6.8-.7 9.7zm17.5-6.1c1.4 11.2 1.2 23.6-7.8 31.6 3.4-11.8-.1-24.3-.2-36.2-3.9.8-1.3-3.9 1-4.4 4.4-.5 8.1 4.8 7 9z" class="st0"/></svg>