<svg xmlns="http://www.w3.org/2000/svg" xml:space="preserve" id="レイヤー_1" x="0" y="0" style="enable-background:new 0 0 73 253.7" version="1.1" viewBox="0 0 73 253.7"><style>.st0{fill:#fff}</style><path d="M37.7 14.9c5.2 3.2-5.4 8.2-6.9 10.2-1.4 7-5.3 12.7-4.3 19.6 8.5-4.2 14.2-11.9 22.7-16 9.3-1.6 13.7 11 9 17.2-8.1 15.8-10.7 2.1-19.9-2.5h-.8c-3.1 3.3-6.4 6.4-9.7 9.1.3.8.6 1.7.6 2.7-.7 1.4-1.8 1.9-3.1 1.6-1.2-3-5-.4-6.6-2.7-.6-1.7-5.2-3.2-2.4-5.4 4.8-5 3.3-12.8 4.7-19.2-3.8 1.7-6.5-.1-8.3-5.2C16.1 25.9 20.5 22 23 20c-.2-3.8 3-9-1.6-11.6a13 13 0 0 1 3.9-2.5c4.2 1.3 7.4 2 7.5 7.3 1.5-.2 3.2.5 4.9 1.7zm1.8 26.9c3.3 4.9 8.4 3.9 10.6-2.6 3.8-9.6-8.5-.3-10.6 2.6zm20.7-20.7c-.6 1.1-1.9 1.5-3.8 1.1-1.8-1.8-3.5 1.3-5.1 2 2.6-4.8-1.8-8.2-5.7-6.2a29.7 29.7 0 0 0-4.5 9.8c1.9-5.4.6-15.5 8.2-16 5.4.4 10.6 3.8 10.9 9.3zM53.3 75.2v1.7l-.6 1.1c-2.7.7-3.1 4.5-5.9 5.3 1 1.2 1.4 2.5 1.1 3.8-.4.2-.6.4-.8.8-10.1-.1-19 3.1-25.2 11.2 2.3 0 4.1-2.2 6.1-2 3 1 7 2.2 8.4 5.2-.8.3-1.1.8-1 1.4h-.3c-1.1 2-2.2 3.8-3.6 5.5 1.1.9 2 1.9 2.9 2.9.1 1.9-1.8 1.9-2.9 2.9-3.2.3-5.6 2.2-8.4 3.6l-1 2.7c-.6.3-1 .6-1.5 1.1-2-1.7-3.8-3.5-5.4-5.7l.3-.3c-.2-.6-.6-1.2-1.1-1.7.6-3.6-1.8-7.5-4-10.5h.1l-.1-.2c.3-.2.3-.4.1-.8 1.7-1.4 3.3-.8 5.2-.3 4.1-3.1 10.8-7.3 6.6-12.6-1.4-.3-.5-1.5-.5-2.4.6-5.8-4.3-8.8-7.2-13l.3-.6h-.3c2.1-2.3 5.7-1.4 7.9.3a55.4 55.4 0 0 1 20.4-7.2c4-2 8.7 4.5 10.4 7.8zm-27.4 28.1a10 10 0 0 0-6.4 4.5c1.1 1.7.3 4.3 1.3 5.8 4.7-.8 4.2-6.5 5.4-10.1l-.3-.2zm15.4-30a32 32 0 0 0-15.1 5.4l1.9 5.4a53.8 53.8 0 0 0 10.8-2.4 21 21 0 0 0 2.7-8l-.3-.4zm19 23.6c2 1.4 4 3 5.7 4.7 0 2.5-3.3 2.8-4.7 4.2-7.1 6.3-14.2 13-22.5 17.7 6.9-6.6 13.6-13.6 15.5-23.2-4.7-2.2-8.2 3.2-9.1 7.2-.7 2.7 1.7 5.2.3 7.7.3.5.3 1 0 1.4l-.3-.2v.4a3 3 0 0 0-1.9 0c-2.8-1-4-4.4-5.7-6.5 1.9-5.1.8-11.9 4.6-16.1.9.4.2 1.6 1.1 2.1l.4 8.7h.3a54.5 54.5 0 0 0 6.3-7.8c.4-.7 1-1.4 1.6-2l-.2-.2c2.5-2.1 6.2.6 8.6 1.9zM39.7 132.5c10.9-1.2 12.4 8.8 18.9 5.7l.3-.3-.1.3c.2-.6.4-1.1.9-1.5 1.3 1.5 2.7 3.6 4.2 6.1-.2.5-.3 1.1-.1 1.8-.4.1-.6.3-.6.7a12 12 0 0 1-4-.1c-3.3.6-8.6-1.9-12.3 1 .5 1.2 1.6 1.6 2.2 2.4a.3.3 0 0 0-.4 0c.9.2 2 .7 1.9 1.7-4 1.4-8.1 1.3-12.1 2.2l-.3 2.9a36 36 0 0 0 5.4-2.2l.3-.5c.1.2.3.2.6 0 1.7 2 4.8 2.9 5.9 5-3.8 1.9-8.2.7-12.1 2.1l-.1 2.6c4.7-.4 17.5.1 13.1-7.8.3.3.4.3.8.1 2.2 1.7 4.5 3.5 6.1 5.9-.3.3-.2.6.3.8v1.6c-8.4 6.4-21.7-.4-29.6 7.5 5.1-.9 10-2.5 15.1-3.5 4.6.4 13.4 5.7 12.6 10.9-4.7 1.8-5.7 8-10.6 9.2l-.8-.8c-5.1.6-12.9-2.3-16.5 2.2-3.2-.9-5.8-4.8-7.2-7.7.1-1.8 0-3.8-1.3-5.4-1.9-1.5-3.6-2.2-.2-3.8 1.2.8 2.2.6 2.9-.3a13 13 0 0 0 4.9-3.2c-4.3-.1-8.5 1-12.6 1.5-1.6-2.7-.6-6.8 2.9-7.1 3.7-1.4 2.2.1 3.3-3.6l.8-.4c1.3-2.6 6-1.5 8-4-3 .2-5.9.6-8.8 1a5 5 0 0 1-1.3-3.3l1.5-1.8c.1-.4.3-.6.8-.5 2.3 2.2 6.4.1 9-.5l.1-2.6c-5.8 1.5-11.9 1.7-17.6 3.6-1.1-1.9-2.7-3.8-.4-5.6 0-.9 1.4-1.4 1.9-.3 5.6-.6 11-1.5 16.5-2.7.2-.9.3-1.9.3-2.9-3.4.8-9.3 4-11.1-.4-.6-.4-.6-1.2-1.1-1.7h.5l.4-.8c.3.3.5.4.8.4-.3-.3-.3-.6-.3-.8l.4-.4v-.6l1.3.6 9.8-1.3c.3-1.8.2-3.6-.5-5.5 2.7-1.7 5.8.8 7.5 3l-.2 1.1zm-10.3 28.9c-3.4.5-6.9 1.2-10.3 2l-.2 1.2c3.8-.1 7.6-.4 11.4-1v-.3c.6-.6.7-1.3.3-2.3l-1.2.4zm16.5 11.5c-5.8-.8-23-.1-18.8 9.3l2.4.2c1.1-1 2.4-1.8 3.7-2.4-1.8.5-5.6-1.2-4.5-3.4 2-1.3 5.5-1.1 7-2.5 2.1-.7 6.2.4 7.7 2.3.1 2.4-2.6 3.2-4.5 2.9a7.7 7.7 0 0 0-3.2 2.4c5.5 1.2 9.1-3.2 10.7-7.9l-.5-.9zM30.7 156l-2.4 1.3 2.7-.6c0-.2 0-.4-.3-.7zm8.3-10.5-.1 2.3a4.7 4.7 0 0 0 2.7-2.3H39zm1-8.2c-.4 1.1-.6 2.3-.4 3.6 1.9-.3 3.8-.6 5.7-1.1l.2-.8a11.4 11.4 0 0 0-5.5-1.7zM44.4 201c2.6.9 1.6 5.3-.8 6-1.3.6-2.1 1.1-2.4 1.7 1.1 1.7 2.2 2.5 3.3 2.6 3.9-3.4 8.5-7.4 11.4-.3-1.1 1.6-3 3.8-4.7 5.2 21 17.4-30.5 4.2-26.3 20.8 4.9 2.3 12.4 3.6 17.2-.5 3.6.6 6.6 2.4 8.8 5.4-3.1 8.5-21.4 4.5-27.8 1.4-3.9-2.4-7.2-10-1-11.7 7.3-2.4 13.7-4.9 21.1-6.6 7.2-2.4 2.9-4-.4-5.4-6.9 2.6-15.5 6.3-21.8 7.7-2.9-1-4.7-2.7-5.2-4.9.7-1.9 1.8-3.5 3.4-5 4.3 4.7 11-.5 17-2.2l-3-3.9c-2.4.4-5.2 2.7-7.6.8-2.6-1.5-5.5-4-4.9-7.2 3.5-.5 6.4 1.7 9.8-.8-.3-2-.9-3.6-2.1-4.7 3.3-3.5 6.5-1.5 8.8 1.8 1.4-.3 2.7-.9 3.6-2.1 1.2.9 2.3 1.5 3.6 1.9z" class="st0"/></svg>