<svg xmlns="http://www.w3.org/2000/svg" xmlns:xlink="http://www.w3.org/1999/xlink" xml:space="preserve" id="レイヤー_1" x="0" y="0" style="enable-background:new 0 0 571.5 359" version="1.1" viewBox="0 0 571.5 359"><style>.st3{clip-path:url(#SVGID_4_)}.st3,.st4{fill:#ddc75c}</style><path d="m569.9 49.9-1.3-1.6-1-1.3-.2.3c-1.6-1.2-3.6-2-5.9-2.2L96 3.6a13.6 13.6 0 0 0-14 9.6L3.8 290.7c-.6 2.2-.6 4.3 0 6.2l-1-.2 2.1 3.5c.4.5 2.8 2.7 6 3.3l.7.1h.1l.4.1L501 358.9c6.9.8 13.5-4.1 14.8-10.9l55.6-290.9c.4-2.6-.2-5.1-1.5-7.2z" style="fill:#aaa"/><defs><path id="SVGID_1_" d="M499.3 357 10.5 301.8c-6.4-.7-10.1-6.5-8.2-13L80.4 11.3a13.9 13.9 0 0 1 14-9.6L560 43.2c6.5.6 10.9 6 9.7 12.1l-55.6 290.9a13.6 13.6 0 0 1-14.8 10.8z"/></defs><clipPath id="SVGID_2_"><use xlink:href="#SVGID_1_" style="overflow:visible"/></clipPath><g style="clip-path:url(#SVGID_2_)"><path d="m527 379.1-550.3-63L71.4-16.5l521.3 45.9z" style="fill:#1b3146"/><defs><path id="SVGID_3_" d="m527 379.1-550.3-63L71.4-16.5l521.3 45.9z"/></defs><clipPath id="SVGID_4_"><use xlink:href="#SVGID_3_" style="overflow:visible"/></clipPath><path d="M-136.6 505.4c-199-25.9-297.8-210.4-230.1-400 63.4-177.5 254.2-303.2 433.4-289.7C250.9-170.5 371.4-14 327.9 175.4c-46.7 202.9-259.2 356.7-464.5 330zM10.4 6.6C-63.4-.1-141.5 52.7-164.8 125.8c-24 75.1 18 144.6 95 153.2 77.8 8.7 159.2-48.4 180-125.5C130.4 78.4 85.1 13.3 10.4 6.6z" class="st3"/><path d="M406 279.4 53.2 204.9l18-47.1 350.5 72.3z" class="st3"/><path d="M392.4 106.7h-5.8l-1.8-2.7a17.7 17.7 0 0 1-8.5 1.3c-5-.5-8.6-2.5-10.9-6.2a12.5 12.5 0 0 1-1.5-9.7c.5-2.3 1.6-4.5 3.2-6.5a17.5 17.5 0 0 1 15.6-6.4c2.8.3 5.2 1.1 7.2 2.5a12.5 12.5 0 0 1 5.1 13.4c-.4 1.9-1.1 3.6-2.1 5.1-1 1.5-2.4 3-4.1 4.4l3.6 4.8zM383 93.9l2.5 3.4a9.2 9.2 0 0 0 3.6-5.6c.6-2.7.1-5-1.3-7a8.7 8.7 0 0 0-6.3-3.4c-2.9-.3-5.6.5-8 2.4a11 11 0 0 0-3.9 6.2 8.2 8.2 0 0 0 7.5 10.3c1.6.2 3-.1 4.4-.7l-4.4-5.7 5.9.1zM397.8 94.7l9.8.9-.9 4.2-9.8-.9.9-4.2zM437.8 83.3l-1.4 6.3c-.7-1-1.5-1.7-2.1-2.2a9.4 9.4 0 0 0-9.2-.8 11 11 0 0 0-4.6 3.4c-1 1.3-1.7 2.8-2.1 4.5a8.3 8.3 0 0 0 1.6 7.4 9.1 9.1 0 0 0 6 3c1.4.1 2.7 0 3.8-.3 1.2-.4 2.5-1 3.8-2l-1.4 6.4a16.8 16.8 0 0 1-14.7-1.7 12 12 0 0 1-4.8-6.3c-.7-2.2-.8-4.5-.3-6.9.6-2.6 1.8-5 3.6-7.1 1.9-2.2 4.3-3.8 7-4.9a16.5 16.5 0 0 1 14.8 1.2zM458.6 106.4l-12-1.1-3.9 5.6-6-.6 18.6-27.1 4.3.4 6.4 29.5-6.2-.6-1.2-6.1zm-.9-4.5-2-10.3-6.3 9.6 8.3.7zM485.9 103l6.9 12.6-7.1-.7-5.7-12-.7-.1L477 114l-5.7-.5 5.7-27.8 8.5.8c3.3.3 5.7 1.2 7.1 2.7a6 6 0 0 1 1.6 2.9 8.7 8.7 0 0 1-1.3 7 8.5 8.5 0 0 1-7 3.9zm-5.9-3.9 1.7.2c1.7.2 3.1 0 4.1-.5a4.6 4.6 0 0 0 2.3-3.2c.3-1.4 0-2.4-.8-3.2-.8-.8-2.1-1.3-3.9-1.4l-1.7-.2-1.7 8.3zM499.3 116.3l5.6-27.8 8.4.8c4.3.4 7.6 1.8 10 4.2 1.5 1.6 2.5 3.4 3.1 5.5.4 1.8.5 3.7.1 5.6a15 15 0 0 1-4.2 7.7 16 16 0 0 1-8 4.5 20 20 0 0 1-6.6.3l-8.4-.8zm6.7-4.2 1.5.1c1.9.2 3.5.2 4.8-.1a10.4 10.4 0 0 0 8.2-8.1c.4-1.9.2-3.6-.5-5.3a7.6 7.6 0 0 0-3.1-3.5c-1.4-.8-3.3-1.3-5.7-1.5l-1.5-.1-3.7 18.5zM378.9 55l-3.3 14.7-1.9-.2 3.3-14.7-4.2-.4.4-1.7 10.3.9-.4 1.7-4.2-.3zM394.2 54.4a8 8 0 0 1 6.9 4.9c.5 1.4.6 2.8.3 4.4a9.5 9.5 0 0 1-2.2 4.2 10.5 10.5 0 0 1-3.9 2.7c-1.6.7-3.3.9-5 .8a9.3 9.3 0 0 1-4.2-1.5 7.4 7.4 0 0 1-2.7-3.6 7.8 7.8 0 0 1-.2-4.3 9.2 9.2 0 0 1 4.2-5.8c2.1-1.4 4.4-2 6.8-1.8zm-.4 1.7c-2.2-.2-4.1.4-5.9 1.9a8 8 0 0 0-2.7 4.2c-.5 2-.1 3.8 1.1 5.2.6.7 1.4 1.3 2.3 1.7l2.1.6c1.3.1 2.6-.1 3.9-.6a8.2 8.2 0 0 0 3.2-2.3 8 8 0 0 0 1.6-3.2c.4-1.9.1-3.6-1.1-5.1a6 6 0 0 0-4.5-2.4zM403.1 72.2l3.8-17.1 10.6 14.7 2.8-12.7 2 .2-3.7 17.2-10.7-14.7-2.8 12.7-2-.3zM440.5 75.9l-2.5-.2-1.2-1.6a10 10 0 0 1-5.6 1.1c-1.6-.1-3-.7-4.3-1.6a7.4 7.4 0 0 1-2.9-7.8c.3-1.4 1-2.8 2-4 1-1.2 2.3-2.2 3.9-2.9 1.7-.7 3.4-1 5.1-.9 1.6.1 3 .7 4.2 1.5 1.3 1 2.2 2.2 2.8 3.7.5 1.3.5 2.8.2 4.3a7.9 7.9 0 0 1-1.2 3 12 12 0 0 1-2.5 2.6l2 2.8zm-5.5-7.5 2.4 3.3c.8-.7 1.5-1.3 1.9-2 .4-.7.8-1.5 1-2.4.4-1.9.1-3.6-1-5.1a6.2 6.2 0 0 0-4.6-2.4 8.3 8.3 0 0 0-7.1 3c-.8.9-1.3 2-1.5 3.2a6 6 0 0 0 5.6 7.4c1.5.1 2.9-.1 4.2-.8l-3.4-4.4 2.5.2zM459.9 69l7.3.7a17 17 0 0 1-.9 2.9c-.7 1.6-2 2.9-3.8 3.8a9.8 9.8 0 0 1-5.5 1.1 8 8 0 0 1-7-5.3 8.1 8.1 0 0 1-.2-4.1 9 9 0 0 1 2.3-4.4 10.5 10.5 0 0 1 8.6-3.3 8 8 0 0 1 6.6 4.3l-1.7 1.1a7 7 0 0 0-1.3-1.8 6 6 0 0 0-4-1.8c-1.2-.1-2.4.1-3.5.5a8.2 8.2 0 0 0-3.4 2.3c-.9 1-1.4 2.1-1.7 3.4-.4 2 0 3.7 1.2 5.1a6.4 6.4 0 0 0 4.4 2.3c1.6.1 3.1-.2 4.5-1.1.7-.4 1.3-.9 1.8-1.5.4-.6.8-1.2 1-2l-5.2-.5.5-1.7zM475.2 71.3l4.1 7.9-2.4-.2-3.8-7.8h-.5l-1.5 7.3-2-.2 3.4-16.6 2.8.3 2.4.4c.6.2 1.2.5 1.6.9.6.5.9 1 1.1 1.8.2.7.2 1.4 0 2.2a5.1 5.1 0 0 1-1.8 3c-.8.7-2 1-3.4 1zm-2.3-1.7 1.2.1c1.2.1 2.2 0 2.9-.4a3 3 0 0 0 1.6-2.2c.2-1.1 0-1.9-.8-2.5-.5-.4-1.4-.7-2.5-.8l-1.2-.1-1.2 5.9zM494.1 63.5c1.6.1 3.1.7 4.3 1.5a8 8 0 0 1 2.8 3.5c.6 1.4.7 2.9.4 4.4-.3 1.5-1 2.9-2.1 4.2a10.8 10.8 0 0 1-8.9 3.6 8.4 8.4 0 0 1-7.1-5.2 7.2 7.2 0 0 1-.2-4.4 9 9 0 0 1 4.2-5.8c1.8-1.4 4.1-2 6.6-1.8zm-.4 1.7c-2.2-.2-4.2.4-5.9 1.9a8 8 0 0 0-2.7 4.2 6.2 6.2 0 0 0 3.5 7.1 8 8 0 0 0 2.2.6c1.3.1 2.7-.1 3.9-.6a8 8 0 0 0 4.7-5.5c.4-1.9 0-3.7-1.2-5.1a5.6 5.6 0 0 0-4.5-2.6zM508.8 65.1l-2 10.2-.3 2 .2 1.3c.2.5.6 1 1.2 1.4.6.4 1.3.7 2.1.7a5 5 0 0 0 3.1-.7c.6-.4 1.1-.8 1.4-1.4a8 8 0 0 0 .8-2.6l2-10.2 2 .2-2.1 10.7c-.2.9-.4 1.6-.7 2.2-.3.6-.7 1.1-1.2 1.6-.8.7-1.7 1.2-2.7 1.5-1 .3-1.9.4-2.9.3a5.8 5.8 0 0 1-5.1-3.7 8 8 0 0 1 0-3.1l2.2-10.7 2 .3zM524.1 76l-1.4 7.3-2-.2 3.3-16.6 3.2.3c1.1.1 2 .3 2.6.5a3 3 0 0 1 1.6 1.1 4.6 4.6 0 0 1 1 3.7c-.1.6-.4 1.3-.8 1.8-.4.6-.8 1-1.4 1.4a6.2 6.2 0 0 1-4.4.9l-1.7-.2zm.3-1.7 1.6.1c1.2.1 2.2-.1 3-.6.7-.5 1.2-1.2 1.4-2.1.2-.9 0-1.7-.5-2.3-.5-.6-1.5-.9-2.8-1l-1.5-.1-1.2 6z" class="st4"/></g></svg>