<svg xmlns="http://www.w3.org/2000/svg" xml:space="preserve" id="レイヤー_1" x="0" y="0" style="enable-background:new 0 0 551.8 162.5" version="1.1" viewBox="0 0 551.8 162.5"><style>.st0{fill:#b2960b}</style><path d="m112 158.6-19 1.8-8-8.7a51.8 51.8 0 0 1-26.8 7.2 50.4 50.4 0 0 1-46.7-73.8c4.5-8.7 11-15.5 19.5-20.4 8.1-4.6 17.1-7 27-7 9.3 0 17.8 2.1 25.5 6.2a49.8 49.8 0 0 1 26.6 44.6c0 6.6-1.1 12.7-3.2 18.1A57.5 57.5 0 0 1 96.5 143l15.5 15.6zm-39.9-40.8 10.8 10.9a29.3 29.3 0 0 0 7.7-20.4 32.9 32.9 0 0 0-57.2-22.6 33.2 33.2 0 0 0-8.2 22.8c0 8.2 2.4 15.3 7.2 21.2a30.4 30.4 0 0 0 25 11.8c5.3 0 9.9-1.3 13.8-4l-18.7-18.3 19.6-1.4zM120.9 115.9h32.6v14.8h-32.6v-14.8zM243.4 63.6v22.3a46 46 0 0 0-8.5-6.9 30.1 30.1 0 0 0-30.8.2 32 32 0 0 0-12.5 13.3 35.7 35.7 0 0 0-3.6 16.2c0 10.3 3.5 18.6 10.5 24.8a31.2 31.2 0 0 0 21.6 8.2c4.6 0 8.7-.8 12.2-2.4 3.6-1.6 7.3-4.4 11.1-8.2v22.2a52 52 0 0 1-69.1-20.9c-3.9-7.2-5.8-15-5.8-23.6a50.1 50.1 0 0 1 26.2-44.7 50.8 50.8 0 0 1 48.7-.5zM327 136.2h-39.6l-8.8 20.4h-20l41.9-98.9h14.3l40.8 98.9h-20.3l-8.3-20.4zm-5.9-15.3-13.6-34.8-14 34.8h27.6zM413 115.8l30.5 40.9h-23.3l-26.2-39h-2.4v38.9h-18.9V59.8h28.1c10.9 0 19.1 2.3 24.7 6.9 3 2.4 5.3 5.6 7 9.5a32.6 32.6 0 0 1 .3 24.4 24 24 0 0 1-6.4 9.2 30 30 0 0 1-13.4 6zm-21.4-11.4h5.5c5.7 0 10-1 13-3.1 1.7-1.1 3.1-2.8 4-4.9 1-2.1 1.5-4.4 1.5-6.8 0-4.7-1.5-8.3-4.6-10.8-3.1-2.5-7.6-3.7-13.6-3.7h-5.7v29.3zM465 156.7V59.8h27.7c14.1 0 25.8 3.7 34.8 11.1a46.7 46.7 0 0 1 17.3 37.1c0 10.1-2.8 19.2-8.5 27.5a46.3 46.3 0 0 1-22.7 17.9 62.9 62.9 0 0 1-21.1 3.2H465zm18.8-16.4h5a56 56 0 0 0 15.4-1.8 28 28 0 0 0 18.4-16.8c1.8-4.3 2.8-8.8 2.8-13.5 0-6.5-1.7-12.4-5.1-17.8-3.2-5-7.2-8.6-12.1-10.9a47.5 47.5 0 0 0-19.3-3.3h-5v64.1zM133.2 7.8v30.3h-3.8V7.8h-8.2V4.3h20.2v3.5h-8.2zM162.3 3.7a17.7 17.7 0 0 1 17.6 17.5 17.3 17.3 0 0 1-8.7 15.1 17 17 0 0 1-9.1 2.5 17.9 17.9 0 0 1-15.3-9 18.1 18.1 0 0 1-2.2-8.7c0-4.8 1.9-9 5.6-12.5 3.4-3.2 7.4-4.8 12.1-4.9zm0 3.6a13 13 0 0 0-10.4 4.8 13.6 13.6 0 0 0-3.4 9c0 4.2 1.4 7.6 4.3 10.3 1.5 1.4 3.2 2.4 5.1 3.1a14 14 0 0 0 18.2-13.3 13.7 13.7 0 0 0-13.8-13.9zM186.8 38.2V2.9l26.4 27.6V4.3h3.8v35.4l-26.4-27.6v26.1h-3.8zM259.4 38.5h-4.8l-2.9-3.1a17.2 17.2 0 0 1-18.9.9 18 18 0 0 1-6.7-6.7 17.4 17.4 0 0 1-2.1-8.4 17.4 17.4 0 0 1 8.3-15 17.3 17.3 0 0 1 18-.4 17.5 17.5 0 0 1 8.9 15.3c0 2.3-.4 4.3-1.1 6.2-.8 1.9-2 3.8-3.7 5.7l5 5.5zm-13.5-13.9 5.8 6.1a13.5 13.5 0 0 0 3.7-9.3c0-4-1.3-7.3-4-10s-6-4-9.8-4c-2.7 0-5.2.7-7.5 2.2a13.5 13.5 0 0 0-6.3 11.8c0 4 1.4 7.4 4.2 10 2.7 2.6 5.9 3.8 9.4 3.8 2.8 0 5.4-.8 7.6-2.4l-8.2-8.2h5.1zM293.2 21.2h14.1c0 2.6-.2 4.6-.5 6-.7 3.4-2.6 6.2-5.6 8.4-3 2.2-6.3 3.3-9.9 3.3a17.5 17.5 0 0 1-8-33c2.6-1.4 5.4-2.1 8.3-2.1 3.9 0 7.4 1.1 10.4 3.4 1.1.9 2.4 2.2 3.9 3.9l-2.8 2.5a17.9 17.9 0 0 0-3.2-3.4 13.6 13.6 0 0 0-20.3 4 13.5 13.5 0 0 0-1.9 7.1c0 4 1.5 7.4 4.4 10.1 2.7 2.5 5.8 3.8 9.3 3.8a12.3 12.3 0 0 0 10.8-6.3c.6-1.2 1-2.6 1.1-4.3h-10v-3.4zM323.1 23l10.8 15.2h-4.6L319 23.3h-1v14.9h-3.8V4.3h5.5c1.9 0 3.5.1 4.8.4 1.2.3 2.4.8 3.3 1.4 1.2.8 2.2 1.9 2.8 3.3.6 1.4.9 2.8.9 4.3 0 2.6-.8 4.7-2.3 6.3a8.2 8.2 0 0 1-6.1 3zm-5-3h2.4c2.3 0 4.1-.5 5.3-1.4 1.5-1.1 2.2-2.7 2.2-4.8 0-2.2-.8-3.8-2.5-4.9-1.2-.7-2.9-1.1-5.1-1.1h-2.3V20zM355.6 3.7a17.7 17.7 0 0 1 17.6 17.5 17.3 17.3 0 0 1-8.7 15.1 17 17 0 0 1-9.1 2.5 17.9 17.9 0 0 1-15.3-9 18.1 18.1 0 0 1-2.2-8.7c0-4.8 1.9-9 5.6-12.5 3.3-3.2 7.4-4.8 12.1-4.9zm0 3.6a13 13 0 0 0-10.4 4.8 13.6 13.6 0 0 0-3.4 9c0 4.2 1.4 7.6 4.3 10.3 1.5 1.4 3.2 2.4 5.1 3.1a14 14 0 0 0 18.2-13.3 13.7 13.7 0 0 0-13.8-13.9zM383.9 4.3V25l.2 4c.2.9.5 1.8.9 2.5.6 1 1.6 1.9 2.9 2.6a9.2 9.2 0 0 0 9.9-.8 5.2 5.2 0 0 0 2.1-3c.4-1.1.6-2.9.6-5.3V4.3h3.8v21.8c0 1.8-.2 3.4-.5 4.6a9 9 0 0 1-1.7 3.4 12.5 12.5 0 0 1-9.9 4.7 13 13 0 0 1-7.4-2.3 10.2 10.2 0 0 1-3.6-4.2c-.7-1.6-1.1-3.7-1.1-6.2V4.3h3.8zM416.9 23.3v14.8h-3.8V4.3h6.2c2.1 0 3.8.2 5.1.5 1.3.4 2.5 1 3.5 1.8s1.7 1.9 2.3 3.2c.6 1.3.8 2.6.8 4a9.9 9.9 0 0 1-2.7 6.9 11.2 11.2 0 0 1-7.9 2.6h-3.5zm0-3.4h3.1c2.4 0 4.2-.6 5.4-1.7a5.7 5.7 0 0 0 1.8-4.4c0-1.9-.6-3.4-1.9-4.4-1.2-1-3.1-1.5-5.6-1.5h-2.8v12z" class="st0"/></svg>